<?xml version="1.0" encoding="UTF-8"?>
<svg version="1.1" xmlns="http://www.w3.org/2000/svg" width="512" height="512">
<path d="M0 0 C8.74029462 6.62410727 16.78107283 13.91292016 23 23 C23.67417969 23.98355469 24.34835938 24.96710938 25.04296875 25.98046875 C39.40761093 48.10686881 44.25257989 74.39277583 39.875 100.375 C36.288163 116.82729929 29.31561018 131.13601489 18.953125 144.37109375 C17.32397093 146.56393513 16.16874833 148.55622395 15 151 C24.80328352 162.36654986 24.80328352 162.36654986 34.8046875 173.55859375 C36.68008831 175.64422633 38.52875063 177.74855209 40.37109375 179.86328125 C50.89591179 191.90422085 62.14482289 203.24766782 73.4375 214.5625 C74.04709564 215.17468384 74.65669128 215.78686768 75.28475952 216.41760254 C84.04626541 225.21351834 84.04626541 225.21351834 93.27124023 233.51635742 C96.20914161 236.03769998 98.99694941 238.71889695 101.8125 241.375 C106.89202179 246.13201247 112.08026237 250.63506954 117.51171875 254.98828125 C121.09940038 257.88884018 124.55613939 260.93111561 128 264 C131.53342307 262.42775086 134.29111229 260.27372275 137.3125 257.875 C159.27610865 241.07126958 186.06885644 235.12096626 213.4140625 238.46484375 C238.05654861 242.21102658 260.7405737 255.44575148 275.9765625 275.15625 C292.59706903 298.51479972 299.68914137 325.49983917 295.3515625 354.04296875 C290.54130585 379.64089647 276.33078544 402.8790502 255 418 C231.5020574 433.97860097 205.09641552 439.96037128 176.8828125 435.26953125 C172.82125601 434.44424998 168.93671405 433.29373575 165 432 C163.89398438 431.66097656 162.78796875 431.32195312 161.6484375 430.97265625 C153.10591785 428.05240318 145.90597032 423.44003499 138.40087891 418.54541016 C135.75935278 416.84509895 133.09242442 415.19098475 130.41796875 413.54296875 C109.95507821 400.92787145 90.19462272 387.47152754 71 373 C70.3723877 372.52691406 69.74477539 372.05382812 69.09814453 371.56640625 C57.64753913 362.90549342 46.6225299 353.74830405 35.69580078 344.44140625 C33.99765154 342.99800384 32.29409807 341.56118577 30.58984375 340.125 C22.53317932 333.30948814 14.78384176 326.21463799 7.11303711 318.96948242 C5.54954326 317.5122086 3.97274529 316.06917948 2.38891602 314.6340332 C-5.25909496 307.70376159 -12.6255469 300.52930008 -19.91088867 293.21948242 C-21.82422194 291.30074495 -23.74290504 289.38747246 -25.66210938 287.47460938 C-31.10958038 282.0300909 -36.52027214 276.60596827 -41.51147461 270.73364258 C-44.1882088 267.6161275 -47.04911564 264.66921046 -49.875 261.6875 C-54.69258232 256.5649753 -59.28767105 251.35089469 -63.67578125 245.8515625 C-65.9220576 243.09562681 -68.24040475 240.42539467 -70.59106445 237.7590332 C-77.55100419 229.85471312 -84.01079823 221.6588972 -90.31982422 213.22900391 C-91.98753099 211.01654201 -93.67975835 208.8250965 -95.37890625 206.63671875 C-103.49030516 196.11400576 -111.00425242 185.23516779 -118.375 174.1875 C-119.0685408 173.1504895 -119.0685408 173.1504895 -119.77609253 172.0925293 C-125.43392198 163.61704768 -130.8656769 155.04417087 -136.04467773 146.26757812 C-137.85985465 143.2341997 -139.74766931 140.26722194 -141.6875 137.3125 C-155.84314064 115.0492407 -161.50944247 87.01676783 -155.87280273 60.93994141 C-155.06620256 57.89788384 -154.07688611 54.95642025 -153 52 C-152.78569336 51.37673828 -152.57138672 50.75347656 -152.35058594 50.11132812 C-143.55670389 24.68971277 -125.49776973 4.23748455 -101.48828125 -7.75390625 C-68.83311819 -22.34451102 -29.74999231 -20.92797224 0 0 Z " fill="#A4FEA7" transform="translate(157,76)"/>
<path d="M0 0 C8.74029462 6.62410727 16.78107283 13.91292016 23 23 C23.67417969 23.98355469 24.34835938 24.96710938 25.04296875 25.98046875 C39.40761093 48.10686881 44.25257989 74.39277583 39.875 100.375 C36.288163 116.82729929 29.31561018 131.13601489 18.953125 144.37109375 C17.32397093 146.56393513 16.16874833 148.55622395 15 151 C24.80328352 162.36654986 24.80328352 162.36654986 34.8046875 173.55859375 C36.68008831 175.64422633 38.52875063 177.74855209 40.37109375 179.86328125 C50.89591179 191.90422085 62.14482289 203.24766782 73.4375 214.5625 C74.04709564 215.17468384 74.65669128 215.78686768 75.28475952 216.41760254 C84.04626541 225.21351834 84.04626541 225.21351834 93.27124023 233.51635742 C96.20914161 236.03769998 98.99694941 238.71889695 101.8125 241.375 C106.89202179 246.13201247 112.08026237 250.63506954 117.51171875 254.98828125 C121.09940038 257.88884018 124.55613939 260.93111561 128 264 C131.53342307 262.42775086 134.29111229 260.27372275 137.3125 257.875 C159.27610865 241.07126958 186.06885644 235.12096626 213.4140625 238.46484375 C238.05654861 242.21102658 260.7405737 255.44575148 275.9765625 275.15625 C292.59706903 298.51479972 299.68914137 325.49983917 295.3515625 354.04296875 C290.54130585 379.64089647 276.33078544 402.8790502 255 418 C231.5020574 433.97860097 205.09641552 439.96037128 176.8828125 435.26953125 C172.82125601 434.44424998 168.93671405 433.29373575 165 432 C163.89398438 431.66097656 162.78796875 431.32195312 161.6484375 430.97265625 C153.10591785 428.05240318 145.90597032 423.44003499 138.40087891 418.54541016 C135.75935278 416.84509895 133.09242442 415.19098475 130.41796875 413.54296875 C109.95507821 400.92787145 90.19462272 387.47152754 71 373 C70.3723877 372.52691406 69.74477539 372.05382812 69.09814453 371.56640625 C57.64753913 362.90549342 46.6225299 353.74830405 35.69580078 344.44140625 C33.99765154 342.99800384 32.29409807 341.56118577 30.58984375 340.125 C22.53317932 333.30948814 14.78384176 326.21463799 7.11303711 318.96948242 C5.54954326 317.5122086 3.97274529 316.06917948 2.38891602 314.6340332 C-5.25909496 307.70376159 -12.6255469 300.52930008 -19.91088867 293.21948242 C-21.82422194 291.30074495 -23.74290504 289.38747246 -25.66210938 287.47460938 C-31.10958038 282.0300909 -36.52027214 276.60596827 -41.51147461 270.73364258 C-44.1882088 267.6161275 -47.04911564 264.66921046 -49.875 261.6875 C-54.69258232 256.5649753 -59.28767105 251.35089469 -63.67578125 245.8515625 C-65.9220576 243.09562681 -68.24040475 240.42539467 -70.59106445 237.7590332 C-77.55100419 229.85471312 -84.01079823 221.6588972 -90.31982422 213.22900391 C-91.98753099 211.01654201 -93.67975835 208.8250965 -95.37890625 206.63671875 C-103.49030516 196.11400576 -111.00425242 185.23516779 -118.375 174.1875 C-119.0685408 173.1504895 -119.0685408 173.1504895 -119.77609253 172.0925293 C-125.43392198 163.61704768 -130.8656769 155.04417087 -136.04467773 146.26757812 C-137.85985465 143.2341997 -139.74766931 140.26722194 -141.6875 137.3125 C-155.84314064 115.0492407 -161.50944247 87.01676783 -155.87280273 60.93994141 C-155.06620256 57.89788384 -154.07688611 54.95642025 -153 52 C-152.78569336 51.37673828 -152.57138672 50.75347656 -152.35058594 50.11132812 C-143.55670389 24.68971277 -125.49776973 4.23748455 -101.48828125 -7.75390625 C-68.83311819 -22.34451102 -29.74999231 -20.92797224 0 0 Z M-86 17 C-86.59167969 17.28407715 -87.18335938 17.5681543 -87.79296875 17.86083984 C-105.33500097 26.48691912 -118.26079428 40.57786466 -125 59 C-125.25894043 59.69448242 -125.51788086 60.38896484 -125.78466797 61.10449219 C-128.15706458 68.07419734 -128.45206101 74.55420439 -128.375 81.875 C-128.38660156 82.96941406 -128.39820313 84.06382812 -128.41015625 85.19140625 C-128.37073496 96.29506993 -126.25855916 105.94053664 -120.5625 115.5 C-120.13001953 116.25063721 -119.69753906 117.00127441 -119.25195312 117.7746582 C-117.85082989 120.19299092 -116.42697703 122.59684639 -115 125 C-114.00903348 126.69135873 -113.01814908 128.38276558 -112.02734375 130.07421875 C-106.01065038 140.27775122 -99.72186633 150.24799639 -93 160 C-92.47680176 160.76280273 -91.95360352 161.52560547 -91.41455078 162.31152344 C-83.75022865 173.46405221 -75.84186782 184.38232911 -67.51855469 195.05224609 C-66.06080364 196.92201103 -64.61166418 198.79815374 -63.1640625 200.67578125 C-58.06187284 207.26425699 -52.79020905 213.67247473 -47.33081055 219.96826172 C-44.39168966 223.35915308 -41.54221715 226.79834078 -38.75 230.3125 C-33.58417417 236.68055438 -27.91227059 242.56346591 -22.2578125 248.49609375 C-19.09010169 251.82205822 -15.99419397 255.20575966 -12.91015625 258.609375 C-6.87433246 265.236631 -0.56756578 271.58406097 5.78051758 277.91088867 C7.69925505 279.82422194 9.61252754 281.74290504 11.52539062 283.66210938 C16.98006108 289.11973768 22.41427873 294.5421701 28.29760742 299.54272461 C31.22923424 302.05224425 34.00590827 304.72761591 36.8125 307.375 C41.78318955 312.02639178 46.86221192 316.4515005 52.1796875 320.70703125 C54.796361 322.83443754 57.34410995 325.01946816 59.88525391 327.23535156 C67.57955112 333.93411945 75.57146958 340.16302384 83.72851562 346.28613281 C86.02313878 348.01745853 88.30163225 349.7683599 90.578125 351.5234375 C110.41323306 366.72994479 131.31705663 380.57068911 153 393 C153.92216309 393.53415527 154.84432617 394.06831055 155.79443359 394.61865234 C158.68605758 396.28538266 161.59028204 397.92759341 164.5 399.5625 C165.37180908 400.06378418 166.24361816 400.56506836 167.1418457 401.08154297 C182.76841627 409.70687695 199.2991035 409.95705096 216.17602539 405.26269531 C233.82666532 399.90443288 249.39153597 388.31138551 258.265625 371.953125 C267.52726657 354.07343706 271.02640349 335.64578734 265.3203125 315.95703125 C259.8242111 298.68779098 248.46549792 284.44303265 232.7734375 275.4140625 C215.98106355 266.85231691 195.76082384 263.24060191 177.4375 269.0625 C166.10229372 273.01869807 157.0934965 278.47094877 148.44140625 286.7578125 C141.41754918 293.20852283 134.62439474 294.4717574 125.29296875 294.31640625 C115.57668065 293.38281273 108.66224147 285.46469774 101.6875 279.25390625 C98.7396854 276.63170485 95.71976875 274.13595272 92.625 271.6875 C86.15442672 266.44941687 80.19085861 260.68012553 74.1640625 254.9453125 C71.76517016 252.66317562 69.35730589 250.39707445 66.8984375 248.1796875 C59.06820361 241.10926067 51.59152759 233.70025508 44.125 226.25 C43.30515625 225.43403854 43.30515625 225.43403854 42.46875 224.60159302 C36.99485516 219.14815538 31.58389671 213.68468173 26.56103516 207.80615234 C23.8517037 204.67139568 20.97473672 201.69406625 18.125 198.6875 C13.2114149 193.46726249 8.55500265 188.15787972 4.0859375 182.55078125 C1.91736474 179.89894976 -0.36200411 177.38978044 -2.6875 174.875 C-6.63278785 170.5434602 -10.00983434 166.03916442 -13 161 C-13.37511719 160.39414063 -13.75023437 159.78828125 -14.13671875 159.1640625 C-16.3316192 153.66191386 -15.82718464 146.33094488 -14.41796875 140.65625 C-12.58524071 136.57236287 -9.78979663 133.61954977 -6.75 130.375 C9.04187846 113.41431475 12.82175534 93.44576415 12.17480469 71.04589844 C11.83990032 65.21033015 10.50597994 60.30765073 8 55 C7.23623047 53.36417969 7.23623047 53.36417969 6.45703125 51.6953125 C-2.26839555 34.40419211 -15.35573525 21.31213972 -33.875 15.1875 C-50.55011595 9.89734514 -69.9924438 9.24162076 -86 17 Z " fill="#000100" transform="translate(157,76)"/>
<path d="M0 0 C5.67495288 1.89288572 11.28565296 3.93647825 16.87109375 6.078125 C17.59022949 6.35205078 18.30936523 6.62597656 19.05029297 6.90820312 C66.92207614 25.52047254 110.09700587 64.05907822 135.83349609 108.30126953 C136.55469139 109.53629526 137.28486445 110.76610438 138.02197266 111.99169922 C153.50547344 137.78921945 162.59617627 166.59971503 167.87109375 196.078125 C168.00531738 196.82739258 168.13954102 197.57666016 168.27783203 198.34863281 C169.92235927 208.05851373 170.17144623 217.87568031 170.37109375 227.703125 C170.41403564 228.91387695 170.45697754 230.12462891 170.5012207 231.37207031 C170.57346688 241.03820379 170.57346688 241.03820379 166.984375 245.3203125 C163.82127218 248.39952497 161.30285018 250.05100504 156.76953125 250.1015625 C151.49960972 249.76668454 147.92794856 248.6520209 143.87109375 245.078125 C141.36714664 240.85240901 140.47305581 237.58782797 140.28125 232.703125 C140.22163086 231.48173828 140.16201172 230.26035156 140.10058594 229.00195312 C140.0179248 227.0596582 140.0179248 227.0596582 139.93359375 225.078125 C139.24863289 212.17218448 137.77079764 199.69065817 134.87109375 187.078125 C134.67032227 186.19286133 134.46955078 185.30759766 134.26269531 184.39550781 C125.2160195 145.63001407 105.16750627 111.6914697 77.87109375 83.078125 C77.071875 82.22605469 76.27265625 81.37398438 75.44921875 80.49609375 C68.80615458 73.60337194 61.50848111 67.8082409 53.87109375 62.078125 C53.3090625 61.64999512 52.74703125 61.22186523 52.16796875 60.78076172 C42.61414318 53.5288947 32.50686204 47.60344023 21.87109375 42.078125 C21.18708496 41.71976563 20.50307617 41.36140625 19.79833984 40.9921875 C-5.84937305 27.72892309 -35.45169557 19.84328802 -64.33984375 18.8828125 C-65.22969971 18.8509082 -66.11955566 18.81900391 -67.03637695 18.78613281 C-68.75056752 18.73253973 -70.46545 18.6967474 -72.18041992 18.68261719 C-77.93115807 18.52517538 -82.33174479 17.33766959 -87.12890625 14.078125 C-89.86666491 11.12539222 -90.96155622 7.7868569 -91.3515625 3.8046875 C-91.12079914 -1.60440566 -89.26845801 -4.71724021 -85.6015625 -8.609375 C-70.12157309 -22.40586423 -17.50859744 -5.62385467 0 0 Z " fill="#000000" transform="translate(342.12890625,10.921875)"/>
<path d="M0 0 C10.95780978 5.62949826 20.96861253 11.89151871 30.18505859 20.12255859 C31.04615234 20.87537109 31.90724609 21.62818359 32.79443359 22.40380859 C35.28949645 24.61156118 37.74505507 26.85421361 40.18505859 29.12255859 C40.86181641 29.74517578 41.53857422 30.36779297 42.23583984 31.00927734 C70.83710051 58.34956059 85.46748882 98.5957048 86.62255859 137.56005859 C86.48986898 143.29098631 85.82625903 146.6722025 82.18505859 151.12255859 C77.92229474 154.87741867 73.73700534 155.26311421 68.18505859 155.12255859 C63.40693026 153.52984915 61.0280062 151.22903847 58.18505859 147.12255859 C56.90939988 144.57124117 56.83705063 142.42882767 56.57177734 139.58349609 C55.31278224 126.79571599 54.0885289 114.40388524 50.18505859 102.12255859 C49.98041992 101.47851074 49.77578125 100.83446289 49.56494141 100.17089844 C39.40912417 68.99754913 16.9942523 42.9856905 -12.05517578 27.83740234 C-29.4012369 19.22715484 -48.11171925 14.9501424 -67.38012695 13.98095703 C-73.08923196 13.61542392 -76.39130202 12.8194073 -80.81494141 9.12255859 C-83.71722558 5.81995936 -84.73053193 3.24098411 -85.06494141 -1.18994141 C-84.7039237 -6.5149526 -83.22962382 -9.56886017 -79.31494141 -13.18994141 C-60.25682905 -26.05416725 -18.02015288 -8.93913096 0 0 Z " fill="#000000" transform="translate(335.81494140625,105.87744140625)"/>
</svg>
