<?xml version="1.0" encoding="UTF-8"?>
<svg version="1.1" xmlns="http://www.w3.org/2000/svg" width="512" height="512">
<path d="M0 0 C5.93280473 5.04307916 8.65459247 11.13501358 10.39712524 18.55206299 C10.71733139 19.8193222 10.71733139 19.8193222 11.04400635 21.11218262 C11.48763192 22.88148816 11.92247152 24.65301833 12.3487854 26.42657471 C13.00135733 29.14129355 13.67915905 31.84871348 14.36196899 34.55596924 C14.79181383 36.28347134 15.22024978 38.01132475 15.64712524 39.73956299 C15.84704071 40.5468988 16.04695618 41.35423462 16.25292969 42.18603516 C17.09679304 45.70763855 17.62368774 48.73844519 17.62368774 52.38018799 C18.33911743 52.64186768 19.05454712 52.90354736 19.79165649 53.17315674 C22.7449938 54.43188947 25.24948268 55.93913664 27.93618774 57.69268799 C28.88751587 58.30885986 29.83884399 58.92503174 30.81900024 59.55987549 C32.20732056 60.46093018 32.20732056 60.46093018 33.62368774 61.38018799 C36.2843619 63.05666293 38.95406774 64.71797176 41.62368774 66.38018799 C46.08269658 57.16399951 49.42353303 48.01286161 52.12368774 38.13018799 C56.27406134 23.1867545 61.89363326 11.96007124 75.43618774 3.63018799 C87.99260009 -3.24263304 101.09383804 -4.55316147 115.19790649 -1.96356201 C127.48903818 1.76394459 137.86957225 9.2590152 144.37759399 20.37628174 C151.19547933 33.53562187 153.45978124 48.64348569 148.99868774 63.06768799 C145.98959536 70.59573536 141.64488476 76.94642483 135.62368774 82.38018799 C135.12353149 82.8610083 134.62337524 83.34182861 134.10806274 83.83721924 C126.54038588 90.821407 117.66743335 93.93751508 107.81118774 96.31768799 C99.2076291 98.51468111 91.49147633 101.19393066 83.62368774 105.38018799 C85.24465279 109.06897871 87.5511203 111.93110771 90.06118774 115.06768799 C106.48886916 136.14833115 119.14835819 160.04755077 127.62368774 185.38018799 C127.90293091 186.21356689 128.18217407 187.0469458 128.46987915 187.90557861 C131.46507005 197.00926654 133.95122897 206.17785008 135.87368774 215.56768799 C136.02483032 216.30188965 136.1759729 217.03609131 136.33169556 217.7925415 C139.28136332 233.17176298 139.99870041 248.38220325 139.93618774 264.00518799 C139.93403259 264.97574127 139.93187744 265.94629456 139.92965698 266.94625854 C139.87862114 281.27449696 139.53127213 295.30204581 136.62368774 309.38018799 C136.42501099 310.36325928 136.22633423 311.34633057 136.02163696 312.35919189 C127.91541753 351.33583801 111.46085591 388.85095487 85.62368774 419.38018799 C85.11338013 419.99055908 84.60307251 420.60093018 84.07730103 421.22979736 C73.56005173 433.77758886 62.56402956 445.28564748 49.62368774 455.38018799 C48.64013306 456.16909424 47.65657837 456.95800049 46.64321899 457.77081299 C24.83647951 475.1193468 0.04337625 488.54117273 -26.37631226 497.38018799 C-27.20969116 497.65943115 -28.04307007 497.93867432 -28.90170288 498.22637939 C-38.00539081 501.22157029 -47.17397434 503.70772922 -56.56381226 505.63018799 C-57.29801392 505.78133057 -58.03221558 505.93247314 -58.78866577 506.0881958 C-74.16788725 509.03786356 -89.37832751 509.75520065 -105.00131226 509.69268799 C-105.97186554 509.69053284 -106.94241882 509.68837769 -107.94238281 509.68615723 C-122.27407196 509.6351091 -136.29321936 509.274944 -150.37631226 506.38018799 C-151.83496704 506.09014893 -151.83496704 506.09014893 -153.3230896 505.79425049 C-208.64726701 494.4868646 -261.41288143 464.20033069 -296.37631226 419.38018799 C-297.16521851 418.3966333 -297.95412476 417.41307861 -298.76693726 416.39971924 C-316.87236456 393.64158066 -330.16453052 367.91983946 -339.37631226 340.38018799 C-339.63879761 339.59708252 -339.90128296 338.81397705 -340.17172241 338.00714111 C-342.8294032 329.91402822 -344.84354862 321.72037322 -346.56381226 313.38018799 C-346.79644775 312.26112061 -346.79644775 312.26112061 -347.03378296 311.1194458 C-350.03657779 295.69146231 -350.75154992 280.4344049 -350.68881226 264.75518799 C-350.6866571 263.7846347 -350.68450195 262.81408142 -350.68228149 261.81411743 C-350.60940126 241.35309667 -348.55274117 222.53931343 -343.35824585 202.70953369 C-343.10252808 201.72428711 -342.8468103 200.73904053 -342.58334351 199.72393799 C-342.23493408 198.42746338 -342.23493408 198.42746338 -341.87948608 197.10479736 C-340.74652971 190.97001176 -341.60411908 185.50230137 -343.21224976 179.5557251 C-343.40732117 178.80665894 -343.60239258 178.05759277 -343.80337524 177.28582764 C-344.22537289 175.66877362 -344.65111428 174.05269284 -345.08023071 172.43751335 C-345.76157194 169.86885268 -346.43069839 167.29728615 -347.0965271 164.7245636 C-348.99062509 157.41318017 -350.90312727 150.10670607 -352.83139038 142.80426025 C-354.01300871 138.32596018 -355.17773793 133.84352993 -356.33267212 129.35827827 C-356.77280033 127.66280914 -357.21921394 125.96895718 -357.6723938 124.27692986 C-364.00280322 100.62895871 -364.00280322 100.62895871 -360.2059021 91.59562683 C-355.3590695 83.29172146 -348.48494902 80.52208925 -339.53598022 78.09698486 C-338.36006726 77.77467518 -338.36006726 77.77467518 -337.16039848 77.44585419 C-327.90092857 74.93728668 -318.57745655 72.68917003 -309.25381851 70.43379211 C-302.51800471 68.79893454 -295.78985412 67.1327046 -289.06009102 65.47315216 C-283.2121101 64.03288159 -277.36199539 62.60281021 -271.50619507 61.19464111 C-246.87419677 55.26288399 -223.45848512 49.52515786 -200.94192505 37.67926025 C-195.23070077 34.78743921 -189.22099061 32.80440128 -183.12631226 30.88018799 C-181.89308228 30.48057861 -180.65985229 30.08096924 -179.38925171 29.66925049 C-161.61464686 24.06380989 -141.81089477 18.92834046 -122.99765015 19.45953369 C-102.17819501 19.78852511 -82.29179306 13.17929947 -62.37631226 7.81768799 C-55.86773314 6.07063284 -49.35523818 4.34008801 -42.83499146 2.63707161 C-40.26566712 1.95906267 -37.70323229 1.25866344 -35.14047241 0.55632019 C-9.98240623 -6.16294127 -9.98240623 -6.16294127 0 0 Z " fill="#E9F1FE" transform="translate(361.3763122558594,2.61981201171875)"/>
<path d="M0 0 C9.69658459 7.53016739 15.79273447 18.03921525 18.53515625 29.96875 C20.0296832 45.21359058 18.27387263 58.69390957 8.53515625 70.96875 C6.09765625 73.65625 6.09765625 73.65625 3.53515625 75.96875 C2.78492188 76.68998047 2.78492188 76.68998047 2.01953125 77.42578125 C-5.54814561 84.40996901 -14.42109815 87.52607709 -24.27734375 89.90625 C-32.8809024 92.10324312 -40.59705516 94.78249268 -48.46484375 98.96875 C-46.84387871 102.65754072 -44.5374112 105.51966972 -42.02734375 108.65625 C-25.59966234 129.73689316 -12.94017331 153.63611279 -4.46484375 178.96875 C-4.18560059 179.80212891 -3.90635742 180.63550781 -3.61865234 181.49414062 C-0.62346145 190.59782856 1.86269748 199.76641209 3.78515625 209.15625 C3.93629883 209.89045166 4.08744141 210.62465332 4.24316406 211.38110352 C7.19283183 226.76032499 7.91016892 241.97076526 7.84765625 257.59375 C7.84442352 259.04957993 7.84442352 259.04957993 7.84112549 260.53482056 C7.79008965 274.86305898 7.44274063 288.89060782 4.53515625 302.96875 C4.33647949 303.95182129 4.13780273 304.93489258 3.93310547 305.94775391 C-1.89381138 333.96496681 -11.70228892 361.90087871 -27.46484375 385.96875 C-28.12484375 385.63875 -28.78484375 385.30875 -29.46484375 384.96875 C-30.19615664 382.66622466 -30.80217188 380.41899737 -31.35668945 378.07250977 C-31.53426788 377.35025208 -31.71184631 376.62799438 -31.89480591 375.8838501 C-32.48442727 373.47775627 -33.06238792 371.06900899 -33.640625 368.66015625 C-34.0509722 366.97815219 -34.46213271 365.29634636 -34.87406921 363.61473083 C-35.96260985 359.1631922 -37.04171331 354.70942156 -38.1184082 350.25500488 C-39.8284928 343.18625392 -41.55220938 336.1208208 -43.27687645 329.05561638 C-43.87193406 326.61191369 -44.46272038 324.1672115 -45.05281067 321.7223053 C-47.10201825 313.27022272 -49.29171287 304.87550615 -51.64996052 296.50434208 C-53.68670293 289.24874744 -55.50166611 281.94914854 -57.27734375 274.625 C-57.6166166 273.23645169 -57.95622485 271.8479853 -58.29614258 270.45959473 C-59.53337991 265.40304309 -60.76462156 260.34503616 -61.99597168 255.28704834 C-63.21162349 250.29476224 -64.42985807 245.30311731 -65.65234375 240.3125 C-65.82001566 239.62773968 -65.98768757 238.94297935 -66.16044044 238.23746872 C-68.44446552 228.92623013 -70.85782802 219.66441974 -73.48583984 210.44433594 C-74.70856445 206.10351114 -75.7851237 201.74216268 -76.77734375 197.34375 C-76.94556641 196.61414063 -77.11378906 195.88453125 -77.28710938 195.1328125 C-77.68328404 193.41228253 -78.0746905 191.6906554 -78.46484375 189.96875 C-80.64947477 191.00286837 -82.27893745 191.7750976 -83.96484375 193.53125 C-87.09264168 196.52872302 -91.10564333 196.15009249 -95.26953125 196.39453125 C-101.91119207 195.10637995 -106.99577916 188.7217666 -111.54980469 184.14257812 C-112.33750748 183.35837997 -113.12521027 182.57418182 -113.93678284 181.76622009 C-116.5293028 179.18247598 -119.11447003 176.59151665 -121.69921875 174 C-123.50159962 172.1989667 -125.30427726 170.39823035 -127.10723877 168.59777832 C-130.87960536 164.82835715 -134.64843345 161.05544651 -138.41455078 157.27978516 C-142.76543961 152.91799773 -147.12350772 148.56348309 -151.48534369 144.21264505 C-155.68877306 140.01938925 -159.8865605 135.82052054 -164.08197784 131.61924744 C-165.86512634 129.83476376 -167.64976452 128.05176738 -169.43590546 126.27027893 C-171.92795804 123.78329593 -174.41352525 121.29000828 -176.89746094 118.79492188 C-177.63825394 118.05817734 -178.37904694 117.3214328 -179.14228821 116.56236267 C-179.81791306 115.88109818 -180.4935379 115.19983368 -181.18963623 114.4979248 C-181.77732159 113.9094854 -182.36500694 113.32104599 -182.97050095 112.71477509 C-186.47163374 108.62396964 -186.99603364 104.90509969 -186.93359375 99.65234375 C-186.11756574 94.98058337 -183.40229633 91.58811121 -180.46484375 87.96875 C-181.53025391 86.92074219 -181.53025391 86.92074219 -182.6171875 85.8515625 C-183.53628906 84.94148438 -184.45539063 84.03140625 -185.40234375 83.09375 C-186.31886719 82.18882813 -187.23539062 81.28390625 -188.1796875 80.3515625 C-190.62970313 77.79684535 -191.31300275 76.76591525 -191.96484375 73.34375 C-191.190612 68.11768571 -188.44600282 65.3118602 -184.46484375 61.96875 C-173.693155 55.46641376 -163.71022772 53.05628878 -151.16015625 55.65234375 C-144.59868775 57.66419351 -139.64313927 60.51996032 -134.46484375 64.96875 C-133.47484375 65.71125 -132.48484375 66.45375 -131.46484375 67.21875 C-130.80484375 67.79625 -130.14484375 68.37375 -129.46484375 68.96875 C-129.46484375 69.62875 -129.46484375 70.28875 -129.46484375 70.96875 C-128.90796875 70.6078125 -128.35109375 70.246875 -127.77734375 69.875 C-122.3161777 66.55402064 -118.847294 65.30849653 -112.46484375 65.96875 C-110.97984375 66.46375 -110.97984375 66.46375 -109.46484375 66.96875 C-109.61630859 66.40365723 -109.76777344 65.83856445 -109.92382812 65.25634766 C-110.60672851 62.70282552 -111.28583039 60.14830836 -111.96484375 57.59375 C-112.32255859 56.25957031 -112.32255859 56.25957031 -112.6875 54.8984375 C-112.91308594 54.04765625 -113.13867188 53.196875 -113.37109375 52.3203125 C-113.58056641 51.53479004 -113.79003906 50.74926758 -114.00585938 49.93994141 C-114.46484375 47.96875 -114.46484375 47.96875 -114.46484375 45.96875 C-110.69461621 47.34777016 -107.51101335 49.08912266 -104.15234375 51.28125 C-103.20101562 51.89742187 -102.2496875 52.51359375 -101.26953125 53.1484375 C-100.34398437 53.74914063 -99.4184375 54.34984375 -98.46484375 54.96875 C-95.80416959 56.64522494 -93.13446375 58.30653377 -90.46484375 59.96875 C-86.00583491 50.75256152 -82.66499847 41.60142363 -79.96484375 31.71875 C-75.81447015 16.77531651 -70.19489823 5.54863325 -56.65234375 -2.78125 C-38.39165617 -12.7763373 -17.29179005 -11.74348907 0 0 Z " fill="#BE5F14" transform="translate(493.46484375,9.03125)"/>
<path d="M0 0 C1.01586182 0.01160156 2.03172363 0.02320313 3.07836914 0.03515625 C21.92418054 0.44645856 38.42675847 8.27746208 51.796875 21.52734375 C65.16418675 35.82433696 70.4101538 52.8012082 69.83203125 72.09375 C69.09645352 88.64606067 62.96699973 103.180045 51.625 115.375 C51.07328125 116.00535156 50.5215625 116.63570313 49.953125 117.28515625 C40.51968196 127.50471955 24.92077398 135.57294522 10.90869141 136.56787109 C-12.57209729 137.21305513 -30.30995382 133.68076321 -48.02734375 116.9140625 C-55.48828199 108.84482814 -60.84659303 99.79417823 -64.375 89.375 C-64.85259766 87.99634766 -64.85259766 87.99634766 -65.33984375 86.58984375 C-70.5445649 69.15282865 -67.47157132 50.96323229 -59.015625 35.09765625 C-55.24908069 28.84698628 -50.72698728 23.33537845 -45.375 18.375 C-44.87226563 17.85550781 -44.36953125 17.33601563 -43.8515625 16.80078125 C-39.53095958 12.60281553 -34.83671524 9.81736879 -29.5 7.125 C-28.85248779 6.79588623 -28.20497559 6.46677246 -27.5378418 6.12768555 C-18.45123356 1.7134814 -10.10161149 -0.14824344 0 0 Z " fill="#37B990" transform="translate(175.375,350.625)"/>
<path d="M0 0 C1.359375 1.29077148 1.359375 1.29077148 2.75 3.12109375 C3.27013672 3.79978516 3.79027344 4.47847656 4.32617188 5.17773438 C4.87853516 5.92345703 5.43089844 6.66917969 6 7.4375 C6.57814453 8.21029297 7.15628906 8.98308594 7.75195312 9.77929688 C23.65482411 31.26824767 36.50247291 54.60101469 45 80 C45.27924316 80.83337891 45.55848633 81.66675781 45.84619141 82.52539062 C48.8413823 91.62907856 51.32754123 100.79766209 53.25 110.1875 C53.40114258 110.92170166 53.55228516 111.65590332 53.70800781 112.41235352 C56.65767558 127.79157499 57.37501267 143.00201526 57.3125 158.625 C57.30926727 160.08082993 57.30926727 160.08082993 57.30596924 161.56607056 C57.2549334 175.89430898 56.90758438 189.92185782 54 204 C53.80132324 204.98307129 53.60264648 205.96614258 53.39794922 206.97900391 C47.57103237 234.99621681 37.76255483 262.93212871 22 287 C21.34 286.67 20.68 286.34 20 286 C19.26868711 283.69747466 18.66267187 281.45024737 18.1081543 279.10375977 C17.93057587 278.38150208 17.75299744 277.65924438 17.57003784 276.9151001 C16.98041648 274.50900627 16.40245583 272.10025899 15.82421875 269.69140625 C15.41387155 268.00940219 15.00271104 266.32759636 14.59077454 264.64598083 C13.5022339 260.1944422 12.42313044 255.74067156 11.34643555 251.28625488 C9.63635095 244.21750392 7.91263437 237.1520708 6.1879673 230.08686638 C5.59290969 227.64316369 5.00212337 225.1984615 4.41203308 222.7535553 C2.3628255 214.30147272 0.17313088 205.90675615 -2.18511677 197.53559208 C-4.22185918 190.27999744 -6.03682236 182.98039854 -7.8125 175.65625 C-8.15177285 174.26770169 -8.4913811 172.8792353 -8.83129883 171.49084473 C-10.06853616 166.43429309 -11.29977781 161.37628616 -12.53112793 156.31829834 C-13.74677971 151.32601236 -14.96486806 146.33433143 -16.1875 141.34375 C-16.35502651 140.6599036 -16.52255302 139.97605721 -16.6951561 139.27148819 C-19.26797411 128.78883333 -22.02037641 118.37388321 -25 108 C-25.62875582 105.70936096 -26.25445709 103.41787758 -26.875 101.125 C-27.11992187 100.22007812 -27.36484375 99.31515625 -27.6171875 98.3828125 C-28.01702533 95.89402602 -27.80348267 94.36642155 -27 92 C-26.52949219 92.48210937 -26.05898438 92.96421875 -25.57421875 93.4609375 C-24.64029297 94.40839844 -24.64029297 94.40839844 -23.6875 95.375 C-23.07261719 96.00148438 -22.45773437 96.62796875 -21.82421875 97.2734375 C-18.96814713 99.9766145 -17.63757076 101.01180687 -13.625 100.9375 C-8.21812018 99.53916901 -6.1495375 96.52144669 -2.875 92.1875 C1.07146967 85.47850156 2.51965123 79.79891218 2.375 72.125 C2.36339844 71.33343506 2.35179687 70.54187012 2.33984375 69.72631836 C2.01301535 58.019373 -1.7524472 51.14711301 -9 42 C-10.0035806 40.66935965 -11.00498205 39.33705537 -12 38 C-11.71125 37.50371094 -11.4225 37.00742188 -11.125 36.49609375 C-8.58061402 31.84022079 -7.12944155 28.41680816 -8 23 C-10.33511178 18.18210138 -13.64531269 14.14318219 -17 10 C-15.22970554 8.70759488 -13.45874502 7.41610207 -11.6875 6.125 C-10.70136719 5.40570313 -9.71523438 4.68640625 -8.69921875 3.9453125 C-3.2248996 0 -3.2248996 0 0 0 Z " fill="#FECA45" transform="translate(444,108)"/>
<path d="M0 0 C1.95874195 1.44251276 3.80786725 2.95443142 5.65234375 4.5390625 C6.64234375 5.2815625 7.63234375 6.0240625 8.65234375 6.7890625 C9.31234375 7.3665625 9.97234375 7.9440625 10.65234375 8.5390625 C10.65234375 9.1990625 10.65234375 9.8590625 10.65234375 10.5390625 C11.24844515 10.81054076 11.84454655 11.08201902 12.45871162 11.3617239 C14.61703656 12.52011287 16.02411819 13.65716209 17.75045776 15.3764801 C18.33627625 15.95521378 18.92209473 16.53394745 19.52566528 17.13021851 C20.15640961 17.76344025 20.78715393 18.39666199 21.43701172 19.04907227 C22.11070801 19.71765762 22.7844043 20.38624298 23.47851562 21.0750885 C25.70572393 23.28839081 27.92541745 25.50905274 30.14453125 27.73046875 C31.69363793 29.2756874 33.24296778 30.82068235 34.79251099 32.36546326 C38.04234378 35.60783044 41.2882686 38.85405124 44.53173828 42.1027832 C48.67465784 46.25147991 52.82878852 50.38874085 56.98620415 54.5229044 C60.19148639 57.71339832 63.38975454 60.910853 66.5860939 64.11030388 C68.1138551 65.63755384 69.64396245 67.16246081 71.17650986 68.68490791 C73.32792754 70.82388815 75.46945741 72.97232844 77.60888672 75.12329102 C78.23558258 75.74234314 78.86227844 76.36139526 79.50796509 76.99920654 C89.32410047 86.93175497 93.8856965 96.59709012 94.08984375 110.5390625 C94.00536224 121.84106806 90.69697478 130.35329759 82.65234375 138.5390625 C79.62072225 140.52701102 77.25128887 141.09780284 73.65234375 140.5390625 C71.1171875 138.640625 71.1171875 138.640625 68.58984375 136.1640625 C65.73436758 133.39218271 63.34364365 131.09060195 59.65234375 129.5390625 C58.90984375 130.3434375 58.16734375 131.1478125 57.40234375 131.9765625 C53.2692959 135.82781164 50.42707739 135.63730688 44.84765625 135.96484375 C38.20599543 134.67669245 33.12140834 128.2920791 28.56738281 123.71289062 C27.77968002 122.92869247 26.99197723 122.14449432 26.18040466 121.33653259 C23.5878847 118.75278848 21.00271747 116.16182915 18.41796875 113.5703125 C16.61558788 111.7692792 14.81291024 109.96854285 13.00994873 108.16809082 C9.23758214 104.39866965 5.46875405 100.62575901 1.70263672 96.85009766 C-2.64825211 92.48831023 -7.00632022 88.13379559 -11.36815619 83.78295755 C-15.57158556 79.58970175 -19.769373 75.39083304 -23.96479034 71.18955994 C-25.74793884 69.40507626 -27.53257702 67.62207988 -29.31871796 65.84059143 C-31.81077054 63.35360843 -34.29633775 60.86032078 -36.78027344 58.36523438 C-37.52106644 57.62848984 -38.26185944 56.8917453 -39.02510071 56.13267517 C-40.03853798 55.11077843 -40.03853798 55.11077843 -41.07244873 54.0682373 C-41.66013409 53.4797979 -42.24781944 52.89135849 -42.85331345 52.28508759 C-46.35444624 48.19428214 -46.87884614 44.47541219 -46.81640625 39.22265625 C-46.00037824 34.55089587 -43.28510883 31.15842371 -40.34765625 27.5390625 C-41.05792969 26.84039062 -41.76820313 26.14171875 -42.5 25.421875 C-43.41910156 24.51179688 -44.33820313 23.60171875 -45.28515625 22.6640625 C-46.20167969 21.75914063 -47.11820312 20.85421875 -48.0625 19.921875 C-50.51251563 17.36715785 -51.19581525 16.33622775 -51.84765625 12.9140625 C-51.0734245 7.68799821 -48.32881532 4.8821727 -44.34765625 1.5390625 C-30.4409903 -6.85570456 -14.41607266 -8.97106685 0 0 Z " fill="#FDA732" transform="translate(353.34765625,69.4609375)"/>
<path d="M0 0 C2.34386427 2.34386427 2.57506627 3.62478775 3.33203125 6.8125 C3.57373047 7.80765625 3.81542969 8.8028125 4.06445312 9.828125 C4.31130859 10.87484375 4.55816406 11.9215625 4.8125 13 C6.30679052 19.25555044 7.83657711 25.48767716 9.59928894 31.6739502 C12.21068585 40.84668359 14.54421896 50.08113988 16.8125 59.34375 C16.98138418 60.03317688 17.15026836 60.72260376 17.32427025 61.43292236 C18.73126262 67.1813694 20.13126443 72.93151539 21.53112793 78.68170166 C22.74677973 83.67398773 23.96496861 88.66564389 25.1875 93.65625 C25.3568959 94.34794785 25.52629181 95.03964569 25.70082092 95.75230408 C27.70486703 103.92087808 29.79238294 112.0524035 32.10778809 120.13842773 C34.10755278 127.20550124 35.84915365 134.33516262 37.59375 141.46875 C37.75208313 142.11599533 37.91041626 142.76324066 38.07354736 143.43009949 C39.38535396 148.79755955 40.69009144 154.16673415 41.99468994 159.53594971 C46.87099746 179.73520272 46.87099746 179.73520272 52.26849365 199.79937744 C54.43228588 207.42961598 56.30815168 215.12720542 58.16748047 222.83642578 C58.7600556 225.29166374 59.35826381 227.74548434 59.95703125 230.19921875 C60.34147244 231.78377496 60.72559922 233.3684075 61.109375 234.953125 C61.28539246 235.67502014 61.46140991 236.39691528 61.64276123 237.14068604 C62.58868529 241.07624604 63.38815762 244.99876993 64 249 C33.6304166 224.57229161 13.11345648 185.21453255 1 149 C0.73751465 148.21689453 0.4750293 147.43378906 0.20458984 146.62695312 C-2.45309094 138.53384023 -4.46723636 130.34018523 -6.1875 122 C-6.34259033 121.25395508 -6.49768066 120.50791016 -6.6574707 119.73925781 C-9.66026554 104.31127433 -10.37523767 89.05421691 -10.3125 73.375 C-10.31034485 72.40444672 -10.3081897 71.43389343 -10.30596924 70.43392944 C-10.22021663 46.35900814 -7.66295694 22.98887081 0 0 Z " fill="#FECA46" transform="translate(21,194)"/>
<path d="M0 0 C2.4375 2.1875 2.4375 2.1875 4 5 C3.9364008 8.17995991 3.72345973 10.11173044 1.69360352 12.60400391 C-0.24128632 14.19888643 -1.60193592 14.65409213 -4.03515625 15.2109375 C-5.25235352 15.50097656 -5.25235352 15.50097656 -6.49414062 15.796875 C-7.34169922 15.98765625 -8.18925781 16.1784375 -9.0625 16.375 C-14.58850943 17.65613198 -20.07689797 19.00517656 -25.53318787 20.56069946 C-34.75268086 23.18566034 -44.03380353 25.53288626 -53.34375 27.8125 C-54.03298994 27.9813332 -54.72222988 28.1501664 -55.43235588 28.32411575 C-61.18099189 29.73115918 -66.93132526 31.13121814 -72.68170166 32.53112793 C-77.67398772 33.74677973 -82.66564694 34.96495618 -87.65625 36.1875 C-88.69579079 36.44209236 -88.69579079 36.44209236 -89.7563324 36.701828 C-97.15997067 38.51828692 -104.54679468 40.365744 -111.875 42.46875 C-120.26792782 44.87547737 -128.74017829 46.95225593 -137.21875 49.03125 C-137.95389328 49.21155762 -138.68903656 49.39186523 -139.44645691 49.57763672 C-145.57231894 51.07894061 -151.69986913 52.57331138 -157.82745361 54.06756592 C-163.14614726 55.36485939 -168.46423658 56.66458594 -173.78125 57.96875 C-174.51015631 58.14751553 -175.23906261 58.32628105 -175.99005699 58.51046371 C-185.53773039 60.85607152 -195.04615665 63.30266561 -204.50048828 66.00292969 C-209.3732777 67.39127014 -214.26722619 68.66719085 -219.1875 69.875 C-220.04923828 70.09929687 -220.91097656 70.32359375 -221.79882812 70.5546875 C-226.85789523 71.79143423 -230.82475144 72.26192831 -236 71 C-238 69.375 -238 69.375 -239 67 C-238.9375 63.4375 -238.9375 63.4375 -238 60 C-235.05955882 57.21724327 -232.21161972 56.31072113 -228.32373047 55.36181641 C-227.18088593 55.07787018 -226.03804138 54.79392395 -224.86056519 54.50137329 C-223.62525055 54.20443573 -222.38993591 53.90749817 -221.1171875 53.6015625 C-219.82058883 53.28242578 -218.52421578 52.9623711 -217.22805786 52.64144897 C-213.80760746 51.79679913 -210.38460022 50.96303574 -206.96081543 50.13201904 C-201.54543467 48.81565081 -196.13397333 47.48319008 -190.72240448 46.15125275 C-189.39770147 45.82533776 -188.07289698 45.49983496 -186.74799347 45.17473602 C-179.4589791 43.3852283 -172.19257942 41.55711387 -164.9765625 39.4921875 C-157.20854271 37.27156976 -149.37854737 35.32548206 -141.53125 33.40625 C-140.88415195 33.24795086 -140.23705391 33.08965172 -139.57034683 32.92655563 C-134.20273805 31.61471454 -128.83341419 30.3099446 -123.46405029 29.00531006 C-118.79817067 27.87130533 -114.13293394 26.73471026 -109.46875 25.59375 C-108.82200821 25.43559311 -108.17526642 25.27743622 -107.50892639 25.11448669 C-99.52805364 23.15905005 -91.59179342 21.10559422 -83.69116211 18.84960938 C-71.56380498 15.41970677 -59.26096793 12.61877771 -47.01318359 9.65673828 C-43.58111703 8.82564407 -40.14978902 7.99157537 -36.71875 7.15625 C-35.61926025 6.88981689 -34.51977051 6.62338379 -33.38696289 6.34887695 C-28.41312804 5.1320698 -23.46431901 3.87442197 -18.546875 2.4453125 C-17.72288208 2.20598999 -16.89888916 1.96666748 -16.04992676 1.72009277 C-14.5556425 1.27854457 -13.06458619 0.82582831 -11.57800293 0.35900879 C-7.3600366 -0.89697098 -4.25404942 -1.21677639 0 0 Z " fill="#78BFFF" transform="translate(345,195)"/>
<path d="M0 0 C2.5625 1.625 2.5625 1.625 4 4 C4.56268241 7.37609444 4.59351575 9.1357186 2.63696289 11.98486328 C-1.39596325 15.06677906 -5.82594328 15.97403032 -10.69140625 17.2421875 C-12.33321617 17.68544876 -12.33321617 17.68544876 -14.00819397 18.13766479 C-27.88298063 21.84225622 -41.84353981 25.22108472 -55.7989502 28.60620117 C-61.49172009 29.9872316 -67.18338529 31.37274201 -72.87384224 32.76327133 C-74.81249351 33.23590734 -76.75204386 33.70485098 -78.69163513 34.1736145 C-85.45369332 35.82273624 -92.16686335 37.58160906 -98.86645508 39.46606445 C-106.87262916 41.71674508 -114.91433698 43.77322309 -122.99452972 45.73991585 C-125.31922322 46.30581066 -127.64300053 46.87535012 -129.96661377 47.44566345 C-134.89366359 48.65433199 -139.82175026 49.8587348 -144.75 51.0625 C-150.48844115 52.46426411 -156.22641078 53.86790816 -161.9633255 55.27590752 C-164.22353696 55.82968752 -166.4845082 56.38027828 -168.74554443 56.93067932 C-176.53212732 58.83540564 -184.24877836 60.88460744 -191.9475708 63.1214447 C-197.86389102 64.82428992 -203.84421875 66.2659829 -209.82568359 67.71972656 C-212.02749147 68.25670463 -214.22656768 68.8040687 -216.42578125 69.3515625 C-217.84619935 69.69855104 -219.26676697 70.04492821 -220.6875 70.390625 C-221.94949219 70.70032227 -223.21148437 71.01001953 -224.51171875 71.32910156 C-228.73178086 72.14074285 -232.3565171 72.6919928 -236.375 71 C-238.45358801 68.44173784 -238.48138883 66.26989935 -238.53125 63.03515625 C-237.75915671 60.07735769 -236.33088631 58.95821127 -234 57 C-231.02059937 55.90724182 -231.02059937 55.90724182 -227.49755859 55.06469727 C-226.53055779 54.82715225 -226.53055779 54.82715225 -225.54402161 54.58480835 C-223.41515509 54.065277 -221.28207038 53.56596661 -219.1484375 53.06640625 C-217.64995635 52.70428859 -216.15180214 52.3408156 -214.65396118 51.97605896 C-210.70179561 51.01704339 -206.74585819 50.07464494 -202.78875732 49.13623047 C-196.51887811 47.64593121 -190.25532982 46.12904489 -183.99080658 44.61642075 C-182.46711585 44.24883298 -180.94327555 43.88186463 -179.41928864 43.51550674 C-170.80696176 41.44506901 -162.22853455 39.31453457 -153.71530151 36.86354065 C-146.69916892 34.86483235 -139.61700364 33.13863843 -132.53125 31.40625 C-131.88374409 31.24786589 -131.23623817 31.08948177 -130.56911087 30.92629814 C-125.20191367 29.61454415 -119.83300558 28.30984532 -114.46405029 27.00531006 C-109.79817067 25.87130533 -105.13293334 24.73471275 -100.46875 23.59375 C-99.49826344 23.35642119 -99.49826344 23.35642119 -98.50817108 23.11429787 C-90.54564417 21.16333797 -82.62773512 19.11494953 -74.74554443 16.86320496 C-63.50171172 13.68347337 -52.10495091 11.06096532 -40.75 8.3125 C-37.15179346 7.44104805 -33.55382173 6.56868624 -29.956604 5.69316101 C-27.73791047 5.15316242 -25.51865814 4.61545291 -23.29876709 4.08039856 C-4.02262637 -0.61064537 -4.02262637 -0.61064537 0 0 Z " fill="#78BEFF" transform="translate(357,243)"/>
<path d="M0 0 C2.01953125 1.53125 2.01953125 1.53125 3.8125 3.5 C4.41707031 4.1496875 5.02164063 4.799375 5.64453125 5.46875 C6.09183594 5.9740625 6.53914062 6.479375 7 7 C5.69955265 11.00971265 4.63523507 12.85264236 1 15 C-2.15462084 16.03828762 -5.36726517 16.77675187 -8.6015625 17.5234375 C-9.55203461 17.75149078 -10.50250671 17.97954407 -11.48178101 18.21450806 C-14.52744388 18.94374076 -17.57596277 19.66002007 -20.625 20.375 C-24.59748163 21.31561356 -28.56862704 22.26172596 -32.5390625 23.2109375 C-33.52896179 23.4470575 -34.51886108 23.68317749 -35.53875732 23.92645264 C-41.20490262 25.28947556 -46.82716 26.74832586 -52.4296875 28.3515625 C-60.68443081 30.70642162 -69.00705147 32.77137624 -77.34375 34.8125 C-78.37930086 35.06615767 -78.37930086 35.06615767 -79.43577194 35.32493973 C-85.18326936 36.73170815 -90.93246333 38.1314952 -96.68170166 39.53112793 C-101.67398772 40.74677973 -106.66564561 41.96496162 -111.65625 43.1875 C-112.6949184 43.44187427 -112.6949184 43.44187427 -113.75457001 43.70138741 C-121.19526172 45.52690251 -128.61879392 47.38508066 -135.984375 49.49609375 C-144.09889013 51.82168263 -152.28672354 53.83966432 -160.484375 55.84765625 C-161.18053925 56.01821911 -161.87670349 56.18878197 -162.59396362 56.3645134 C-167.64504799 57.60098623 -172.69740685 58.83220949 -177.75 60.0625 C-182.82760524 61.2989978 -187.90472436 62.53743266 -192.98078156 63.78027153 C-194.97507704 64.26761121 -196.97013783 64.75171426 -198.965271 65.23561096 C-206.3114335 67.03278417 -213.55847462 69.00420897 -220.77960205 71.25559998 C-224.31774658 72.07344762 -227.37999264 72.23213422 -231 72 C-233.4375 70.4375 -233.4375 70.4375 -235 68 C-235.5 64.5 -235.5 64.5 -235 61 C-232.07493637 57.25991789 -229.46377785 56.27103873 -224.8984375 55.25390625 C-223.07699219 54.83334961 -223.07699219 54.83334961 -221.21875 54.40429688 C-219.31609375 53.98760742 -219.31609375 53.98760742 -217.375 53.5625 C-214.90284902 53.00482263 -212.43150213 52.44356982 -209.9609375 51.87890625 C-209.3152179 51.73192291 -208.66949829 51.58493958 -208.00421143 51.4335022 C-203.31925216 50.35052983 -198.69369966 49.09818159 -194.0703125 47.77734375 C-185.64755487 45.38409632 -177.16025683 43.26915958 -168.65625 41.1875 C-167.62178679 40.93412274 -167.62178679 40.93412274 -166.56642532 40.67562675 C-160.81819523 39.2686703 -155.06827157 37.86868371 -149.31829834 36.46887207 C-144.32601226 35.25322026 -139.33435916 34.03501895 -134.34375 32.8125 C-133.30819725 32.55890465 -133.30819725 32.55890465 -132.25172424 32.30018616 C-123.99113608 30.27365439 -115.76712297 28.16256277 -107.58911133 25.82409668 C-95.4973514 22.39816942 -83.22657535 19.61046011 -71.01318359 16.65673828 C-58.59142641 13.64873995 -46.21230452 10.57633346 -33.91455078 7.09423828 C-28.20709959 5.48371037 -22.45389255 4.0698294 -16.6875 2.6875 C-15.08358398 2.29208008 -15.08358398 2.29208008 -13.44726562 1.88867188 C-12.41666016 1.64052734 -11.38605469 1.39238281 -10.32421875 1.13671875 C-9.41760498 0.91717529 -8.51099121 0.69763184 -7.5769043 0.47143555 C-4.96019857 -0.00728153 -2.65275072 -0.19287085 0 0 Z " fill="#78BFFE" transform="translate(327,137)"/>
<path d="M0 0 C1.94921875 1.70703125 1.94921875 1.70703125 3.6875 3.8125 C4.55955078 4.84310547 4.55955078 4.84310547 5.44921875 5.89453125 C6.90543954 7.8716169 7.93517697 9.79694765 9 12 C7.76137207 12.30703857 6.52274414 12.61407715 5.24658203 12.93041992 C0.56040604 14.09277258 -4.12493591 15.25845853 -8.81005859 16.42504883 C-10.82090746 16.92527832 -12.8319684 17.42465626 -14.84326172 17.9230957 C-24.39936861 20.29184611 -33.94559769 22.66282846 -43.4140625 25.36328125 C-51.67521065 27.7081134 -60.00390664 29.76960615 -68.34375 31.8125 C-69.03409458 31.9816221 -69.72443916 32.15074421 -70.43570328 32.32499123 C-76.18322299 33.7317444 -81.93244582 35.13149094 -87.68170166 36.53112793 C-91.98886474 37.57994815 -96.29542185 38.63119884 -100.60127258 39.68539429 C-102.57098318 40.16666622 -104.54151658 40.64456688 -106.51208496 41.12231445 C-113.33315353 42.79101922 -120.10718429 44.56487976 -126.86645508 46.46606445 C-135.69476843 48.9477864 -144.57208656 51.18159324 -153.48046875 53.35546875 C-155.07471877 53.74682011 -156.66889962 54.13845334 -158.26301575 54.53034973 C-162.39743828 55.54615556 -166.53258522 56.55897622 -170.66796875 57.57086182 C-177.32189453 59.19936502 -183.97486736 60.83174764 -190.6274662 62.465662 C-192.93087548 63.03080109 -195.2347191 63.59414131 -197.53862 64.15727234 C-198.95569288 64.50477253 -200.37275193 64.85232913 -201.78979492 65.19995117 C-203.01679611 65.50019699 -204.2437973 65.80044281 -205.50798035 66.10978699 C-207.94314418 66.73057803 -210.36771954 67.39377916 -212.78266907 68.08906555 C-215.81597568 68.94789653 -217.8959198 69.50336436 -221 69 C-223.3125 67.4375 -223.3125 67.4375 -225 65 C-225.5 61.5 -225.5 61.5 -225 58 C-222.11983341 54.34759033 -219.58690564 53.28994513 -215.1171875 52.25390625 C-213.36341797 51.83334961 -213.36341797 51.83334961 -211.57421875 51.40429688 C-209.74310547 50.98760742 -209.74310547 50.98760742 -207.875 50.5625 C-205.49674426 50.00406978 -203.11914863 49.44282157 -200.7421875 48.87890625 C-199.48051758 48.58000488 -198.21884766 48.28110352 -196.91894531 47.97314453 C-192.95145384 47.00751495 -189.02769405 45.89748379 -185.1015625 44.77734375 C-176.66778267 42.38720253 -168.16964534 40.27196218 -159.65625 38.1875 C-158.96665318 38.01858183 -158.27705635 37.84966366 -157.56656265 37.67562675 C-151.81828707 36.26866936 -146.06831471 34.86869421 -140.31829834 33.46887207 C-135.32601226 32.25322026 -130.33435916 31.03501895 -125.34375 29.8125 C-124.30819725 29.55890465 -124.30819725 29.55890465 -123.25172424 29.30018616 C-114.99113608 27.27365439 -106.76712297 25.16256277 -98.58911133 22.82409668 C-86.4973514 19.39816942 -74.22657535 16.61046011 -62.01318359 13.65673828 C-48.93832012 10.49058659 -35.90848619 7.25264409 -22.97273254 3.55599976 C-19.38680281 2.54533257 -15.78692569 1.58627933 -12.1875 0.625 C-10.92292969 0.28726563 -9.65835938 -0.05046875 -8.35546875 -0.3984375 C-5.02471341 -0.99556942 -3.15530887 -1.16162912 0 0 Z " fill="#78BFFE" transform="translate(303,85)"/>
<path d="M0 0 C5.5959711 5.5959711 5.36276611 14.42167796 5.4375 21.875 C5.35348055 35.29216468 1.63400293 45.68558651 -7.4375 55.6875 C-8.283125 56.450625 -9.12875 57.21375 -10 58 C-10.75023437 58.72123047 -10.75023437 58.72123047 -11.515625 59.45703125 C-19.08373642 66.44162006 -27.95619388 69.55617474 -37.8125 71.9375 C-46.461645 74.15405668 -54.03217965 76.94276632 -62 81 C-63.216875 81.474375 -64.43375 81.94875 -65.6875 82.4375 C-70.52279311 84.71829864 -74.70097298 87.84276688 -79 91 C-78.60167969 91.43570313 -78.20335937 91.87140625 -77.79296875 92.3203125 C-73.63814787 96.9906951 -70.39048776 100.98766586 -69.5625 107.375 C-70.10585441 111.87707941 -71.74217524 115.1193637 -74 119 C-78.25556298 117.34986235 -81.09579796 114.17055778 -84.23730469 110.98974609 C-84.85236374 110.3749791 -85.46742279 109.7602121 -86.10112 109.1268158 C-88.12948258 107.09706176 -90.15067226 105.06031925 -92.171875 103.0234375 C-93.57819697 101.61338475 -94.98496164 100.20377342 -96.39215088 98.79458618 C-100.09222618 95.08687958 -103.78625567 91.37320576 -107.47906494 87.65826416 C-111.24934253 83.86751741 -115.02529761 80.08243543 -118.80078125 76.296875 C-126.2060936 68.87012159 -133.60503232 61.43705286 -141 54 C-140 51 -140 51 -137.4375 49.3125 C-132.22735479 47.32317183 -128.18324038 47.19799333 -122.9375 49.125 C-119.31517615 51.43712161 -116.16663663 54.10505705 -113 57 C-112.01 55.68 -111.02 54.36 -110 53 C-105.41155551 54.82458146 -102.47057887 58.42356377 -99.15429688 61.92382812 C-95.56535034 65.63290676 -92.49605026 68.56527426 -87.30859375 69.46875 C-79.11874146 69.55789125 -73.33839699 67.44640949 -66 64 C-63.75846934 63.04242673 -61.5077408 62.10620166 -59.25 61.1875 C-58.64671875 60.94177246 -58.0434375 60.69604492 -57.421875 60.44287109 C-53.34669147 58.82280189 -49.23153556 57.39955097 -45.05859375 56.05078125 C-44.00833008 55.71087158 -42.95806641 55.37096191 -41.87597656 55.02075195 C-39.80485949 54.35770904 -37.73011927 53.70584177 -35.65136719 53.06713867 C-23.15290218 49.0784208 -13.09701575 42.82653947 -6.3984375 31.2265625 C-1.50930234 21.01942068 -0.60592651 11.20964045 0 0 Z " fill="#A54B0E" transform="translate(507,27)"/>
<path d="M0 0 C3.3729114 1.4633541 5.57509078 3.32787599 8.16351318 5.92300415 C8.98518478 6.74192642 9.80685638 7.56084869 10.65342712 8.40458679 C11.54606766 9.30441788 12.43870819 10.20424896 13.35839844 11.13134766 C14.31421162 12.08772517 15.27046578 13.04366214 16.22712708 13.99919128 C18.8201478 16.59163832 21.40695695 19.19020436 23.99269772 21.78990984 C26.69705757 24.50677442 29.40708438 27.21797416 32.11651611 29.92977905 C37.24509234 35.0645708 42.3685491 40.20443938 47.49018788 45.3461498 C53.32177026 51.20008892 59.15903446 57.04834825 64.99678373 62.89613652 C77.00419087 74.92444729 89.00444037 86.9598742 101 99 C100.09515208 100.15518918 99.1755794 101.29885406 98.25 102.4375 C97.73953125 103.07558594 97.2290625 103.71367187 96.703125 104.37109375 C93.45574854 107.4769561 89.53713714 107.17089681 85.1953125 107.42578125 C78.55365168 106.13762995 73.46906459 99.7530166 68.91503906 95.17382812 C68.12733627 94.38962997 67.33963348 93.60543182 66.52806091 92.79747009 C63.93554095 90.21372598 61.35037372 87.62276665 58.765625 85.03125 C56.96324413 83.2302167 55.16056649 81.42948035 53.35760498 79.62902832 C49.58523839 75.85960715 45.8164103 72.08669651 42.05029297 68.31103516 C37.69940414 63.94924773 33.34133603 59.59473309 28.97950006 55.24389505 C24.77607069 51.05063925 20.57828325 46.85177054 16.38286591 42.65049744 C14.59971741 40.86601376 12.81507923 39.08301738 11.02893829 37.30152893 C8.53688571 34.81454593 6.0513185 32.32125828 3.56738281 29.82617188 C2.82658981 29.08942734 2.08579681 28.3526828 1.32255554 27.59361267 C0.64693069 26.91234818 -0.02869415 26.23108368 -0.72479248 25.5291748 C-1.31247784 24.9407354 -1.90016319 24.35229599 -2.5056572 23.74602509 C-6.02210136 19.63732947 -6.53136579 15.89256746 -6.46875 10.6171875 C-5.67280102 6.17313905 -3.02622299 3.22436854 0 0 Z " fill="#454545" transform="translate(313,98)"/>
<path d="M0 0 C2.89649391 1.31207969 4.96810464 2.71734984 7.2144165 4.96044922 C7.82573425 5.56612732 8.437052 6.17180542 9.06689453 6.7958374 C9.7257666 7.45875793 10.38463867 8.12167847 11.06347656 8.8046875 C11.76631775 9.50402405 12.46915894 10.2033606 13.19329834 10.92388916 C15.51412986 13.23592054 17.82757252 15.55518804 20.140625 17.875 C21.74887303 19.4819012 23.35741789 21.08850537 24.96624756 22.69482422 C28.33525497 26.06088294 31.70061745 29.43053353 35.06347656 32.80273438 C39.38355726 37.13422768 43.71257771 41.45665739 48.04434586 45.77645874 C51.36609939 49.09100248 54.68309584 52.41027369 57.9986496 55.73101807 C59.59365583 57.32736228 61.19015957 58.92221165 62.7881546 60.51556396 C65.01500006 62.73735672 67.23537752 64.9654136 69.45410156 67.1953125 C70.12107056 67.85823303 70.78803955 68.52115356 71.47521973 69.2041626 C72.07525818 69.8098407 72.67529663 70.4155188 73.29351807 71.03955078 C73.81927555 71.56606232 74.34503304 72.09257385 74.88672256 72.63504028 C76 74 76 74 76 76 C76.66 76 77.32 76 78 76 C78 76.66 78 77.32 78 78 C79.485 78.495 79.485 78.495 81 79 C81 79.66 81 80.32 81 81 C81.66 81 82.32 81 83 81 C83 81.66 83 82.32 83 83 C84.485 83.495 84.485 83.495 86 84 C86 84.66 86 85.32 86 86 C87.98 86.99 87.98 86.99 90 88 C90 88.66 90 89.32 90 90 C91.98 90.99 91.98 90.99 94 92 C94 92.66 94 93.32 94 94 C95.98 94.99 95.98 94.99 98 96 C98 96.66 98 97.32 98 98 C99.98 98.99 99.98 98.99 102 100 C102 100.66 102 101.32 102 102 C103.485 102.495 103.485 102.495 105 103 C105 103.66 105 104.32 105 105 C106.98 105.99 106.98 105.99 109 107 C109 107.66 109 108.32 109 109 C110.485 109.495 110.485 109.495 112 110 C112 110.66 112 111.32 112 112 C113.485 112.495 113.485 112.495 115 113 C115 113.66 115 114.32 115 115 C118.65288193 116.21762731 121.15754136 116.39075851 125 116 C131.52489029 112.27149126 134.42630969 105.87383125 137 99 C137.96428974 94.68365545 138.5882296 90.40168362 139 86 C144.72272115 92.71797701 143.52764841 102.50595814 143.17480469 110.87988281 C142.49666348 119.10471278 137.67464922 126.22579553 132 132 C128.93166927 134.01202015 126.63843619 134.38821126 123 134 C120.73147678 132.43395901 120.73147678 132.43395901 118.41151428 130.21592712 C117.53790316 129.38855986 116.66429203 128.56119259 115.76420784 127.70875359 C114.85201925 126.8148649 113.93983067 125.92097622 113 125 C112.10197599 124.12691256 111.20395199 123.25382511 110.27871513 122.35428047 C107.30586905 119.43597979 104.35839157 116.49385613 101.41577148 113.54516602 C100.29298615 112.42373923 99.16998897 111.30252451 98.04679871 110.1815033 C95.02856689 107.1677877 92.0134549 104.15096958 88.99907565 101.13340116 C85.83536675 97.96714339 82.66919944 94.80334541 79.50343323 91.6391449 C74.19865207 86.33617597 68.8959676 81.03111735 63.59448242 75.72485352 C57.46252477 69.58743257 51.32694273 63.45365259 45.18950981 57.32170731 C39.91021435 52.04694325 34.63286168 46.77024139 29.35714203 41.49190086 C26.20993347 38.34313256 23.06205125 35.19504572 19.91241264 32.04870796 C16.95932829 29.09850346 14.00868409 26.14588035 11.05993843 23.19133949 C9.97597256 22.10604761 8.89114785 21.02161276 7.80541992 19.93808365 C6.3282437 18.46362453 4.85415765 16.98614507 3.38084412 15.50782776 C2.55407889 14.68068551 1.72731367 13.85354326 0.87549496 13.0013361 C-1.49643165 10.470259 -1.9648083 9.55133656 -2.1875 6.0625 C-2 3 -2 3 0 0 Z " fill="#D78522" transform="translate(304,76)"/>
<path d="M0 0 C4.3986399 1.31023316 4.3986399 1.31023316 5.9375 3.875 C6.3651522 9.19764968 5.64097618 12.23745383 2.88671875 16.77734375 C1.88185425 18.46114136 1.88185425 18.46114136 0.85668945 20.17895508 C0.1130991 21.39032469 -0.63080579 22.60150127 -1.375 23.8125 C-2.13793553 25.07814068 -2.8993822 26.34467991 -3.65942383 27.61206055 C-5.27303134 30.29923175 -6.89446261 32.98147172 -8.52050781 35.66113281 C-11.12126882 39.95809684 -13.66978839 44.28477955 -16.2109375 48.6171875 C-17.47872697 50.77387276 -18.74693613 52.93031075 -20.01522827 55.08670044 C-20.83047945 56.47374168 -21.64480902 57.86132508 -22.4581604 59.2494812 C-24.94554403 63.48856153 -27.47451074 67.69646901 -30.0625 71.875 C-30.60213379 72.75075684 -31.14176758 73.62651367 -31.69775391 74.52880859 C-32.42937744 75.61863037 -32.42937744 75.61863037 -33.17578125 76.73046875 C-33.57192627 77.32883545 -33.96807129 77.92720215 -34.3762207 78.54370117 C-37.1732971 80.75196201 -39.55428176 80.79235403 -43.0625 80.875 C-46.39233398 79.50732422 -46.39233398 79.50732422 -49.80859375 77.4296875 C-50.42340103 77.06279816 -51.03820831 76.69590881 -51.67164612 76.31790161 C-53.62564941 75.14610399 -55.56246762 73.94879231 -57.5 72.75 C-58.79648382 71.96702165 -60.09400289 71.18575481 -61.39257812 70.40625 C-63.87196391 68.91337245 -66.3423462 67.40735668 -68.80419922 65.88574219 C-70.75639729 64.68101393 -72.71450313 63.48566827 -74.68408203 62.30957031 C-77.91132202 60.36783666 -79.94239797 59.05515305 -82.0625 55.875 C-81.88239972 52.51312807 -81.64362046 49.87581858 -79.9375 46.9375 C-76.92566532 45.23079368 -74.47528989 45.60816801 -71.0625 45.875 C-68.52843772 47.018988 -66.37089499 48.14182927 -64.03515625 49.59375 C-63.40137558 49.97108276 -62.76759491 50.34841553 -62.11460876 50.73718262 C-60.10914273 51.93561486 -58.11724685 53.15474579 -56.125 54.375 C-54.76060961 55.19541564 -53.3953823 56.01444115 -52.02929688 56.83203125 C-48.69713484 58.83040397 -45.37696928 60.84742917 -42.0625 62.875 C-41.61596069 61.73043335 -41.61596069 61.73043335 -41.16040039 60.56274414 C-39.84239888 57.33617563 -38.21320775 54.34028208 -36.5 51.3125 C-36.12504395 50.64774658 -35.75008789 49.98299316 -35.36376953 49.2980957 C-31.18692259 41.97451891 -26.81266721 34.76858095 -22.4375 27.5625 C-22.07655243 26.96766815 -21.71560486 26.3728363 -21.34371948 25.75997925 C-18.93154883 21.78907213 -16.4998521 17.83051824 -14.0625 13.875 C-13.4221582 12.82006348 -12.78181641 11.76512695 -12.12207031 10.67822266 C-11.21473145 9.20748291 -11.21473145 9.20748291 -10.2890625 7.70703125 C-9.76135254 6.84440674 -9.23364258 5.98178223 -8.68994141 5.09301758 C-6.12547699 1.59794419 -4.42871681 -0.18076395 0 0 Z " fill="#FBFDFC" transform="translate(211.0625,375.125)"/>
<path d="M0 0 C2.625 2.125 2.625 2.125 4 5 C3.93797973 8.10101374 3.70941522 10.0600469 1.82275391 12.55981445 C-0.67666655 14.53464452 -3.02460053 15.09044073 -6.1015625 15.91796875 C-6.7421611 16.09234467 -7.3827597 16.26672058 -8.04277039 16.44638062 C-10.23395063 17.0382091 -12.42912175 17.61336401 -14.625 18.1875 C-16.20339586 18.60724002 -17.78176401 19.02708427 -19.36010742 19.44702148 C-35.89462496 23.81329996 -52.50040589 27.91046431 -69.10137177 32.01544571 C-71.30854555 32.56152163 -73.51540452 33.10885593 -75.722229 33.65634155 C-79.24847777 34.53046295 -82.77602179 35.39916689 -86.30460548 36.26381302 C-88.2467084 36.7406305 -90.18778551 37.22162005 -92.12882996 37.70272827 C-104.51660425 40.72311765 -104.51660425 40.72311765 -110 41 C-113 38.9375 -113 38.9375 -115 36 C-115.5625 32.9375 -115.5625 32.9375 -115 30 C-111.58780012 25.16527538 -106.83728998 24.68592156 -101.375 23.5625 C-94.7969444 22.15218932 -88.30821636 20.5561397 -81.8359375 18.71875 C-70.38457895 15.48005448 -58.81721394 12.72732222 -47.25 9.9375 C-42.98356579 8.90825723 -38.71778728 7.87640545 -34.453125 6.83984375 C-32.93747452 6.47165276 -32.93747452 6.47165276 -31.39120483 6.09602356 C-24.77397696 4.47388305 -18.2287995 2.70745216 -11.71044922 0.72119141 C-7.50082197 -0.39889857 -4.32893902 -0.62839437 0 0 Z " fill="#78BFFF" transform="translate(377,321)"/>
<path d="M0 0 C2.03411336 3.09185231 2.16855429 4.73867425 1.5625 8.375 C-1.26817196 11.85028576 -3.757325 13.11754154 -8.02490234 14.33374023 C-9.18302429 14.66469696 -10.34114624 14.99565369 -11.53436279 15.3366394 C-19.00828458 17.34770625 -26.52011812 19.20117087 -34.0390625 21.03515625 C-35.8102614 21.47028749 -37.58136766 21.90579593 -39.35238647 22.34165955 C-43.97996476 23.47968446 -48.60857373 24.61345489 -53.23748779 25.74603271 C-60.65049855 27.56048662 -68.06198485 29.38115197 -75.47330856 31.20248222 C-78.04016824 31.83258541 -80.60752121 32.46064427 -83.17495728 33.08839417 C-84.76985142 33.47935665 -86.36469173 33.87053884 -87.95947266 34.26196289 C-88.71104959 34.44602723 -89.46262653 34.63009157 -90.23697853 34.81973362 C-95.2552051 36.05764046 -100.2333095 37.4019279 -105.18759155 38.87791443 C-107.7014134 39.43330795 -109.87059621 39.56452386 -112.4375 39.375 C-114.75 37.8125 -114.75 37.8125 -116.4375 35.375 C-116.9375 31.875 -116.9375 31.875 -116.4375 28.375 C-113.4029346 24.42177634 -110.44399221 23.52654133 -105.6796875 22.41015625 C-105.01776398 22.25010605 -104.35584045 22.09005585 -103.67385864 21.92515564 C-101.55635325 21.4157717 -99.43494241 20.92586029 -97.3125 20.4375 C-94.55860499 19.78793503 -91.80657378 19.13067265 -89.0546875 18.47265625 C-88.34828629 18.30502274 -87.64188507 18.13738922 -86.91407776 17.9646759 C-81.93546511 16.77144075 -77.00688336 15.44409398 -72.08203125 14.046875 C-61.0579299 10.93030643 -49.94317368 8.1819648 -38.82006836 5.44360352 C-35.21597466 4.55410244 -31.61488203 3.65304781 -28.01367188 2.75195312 C-25.70330033 2.18158099 -23.39275947 1.61189416 -21.08203125 1.04296875 C-20.01531693 0.77429489 -18.9486026 0.50562103 -17.8495636 0.22880554 C-4.52439286 -3.01626191 -4.52439286 -3.01626191 0 0 Z " fill="#78BEFF" transform="translate(390.4375,368.625)"/>
<path d="M0 0 C3.26668274 1.81009164 5.4866474 3.68986045 8.12443542 6.31990051 C9.05527451 7.24128311 9.98611359 8.16266571 10.94515991 9.11196899 C11.94320831 10.11538763 12.94086431 11.11919671 13.93815613 12.12336731 C14.97570811 13.1588958 16.01370486 14.19397882 17.05212402 15.2286377 C19.22127466 17.39337796 21.38493875 19.56341864 23.54484558 21.73738098 C26.30524042 24.51486679 29.07888665 27.27866494 31.85679913 30.03861713 C34.00101031 32.1719557 36.13798545 34.31242792 38.27288246 36.45508385 C39.29249607 37.47668985 40.31431845 38.49609656 41.3384304 39.51319313 C42.77177959 40.93887112 44.19442111 42.37528963 45.61662292 43.81208801 C46.42681381 44.62466568 47.2370047 45.43724335 48.07174683 46.27444458 C51.20168358 49.97090277 52.99019403 53.32335169 53.61393738 58.13508606 C53.07058297 62.63716547 51.43426213 65.87944976 49.17643738 69.76008606 C44.9208744 68.1099484 42.08063942 64.93064384 38.93913269 61.74983215 C38.32407364 61.13506516 37.70901459 60.52029816 37.07531738 59.88690186 C35.04695479 57.85714782 33.02576512 55.82040531 31.00456238 53.78352356 C29.59824041 52.37347081 28.19147574 50.96385948 26.7842865 49.55467224 C23.0842112 45.84696564 19.39018171 42.13329182 15.69737244 38.41835022 C11.92709485 34.62760347 8.15113977 30.84252149 4.37565613 27.05696106 C-3.02965622 19.63020765 -10.42859494 12.19713892 -17.82356262 4.76008606 C-16.82356262 1.76008606 -16.82356262 1.76008606 -14.26106262 0.07258606 C-9.11631169 -1.89177339 -5.09352098 -2.23672307 0 0 Z " fill="#844342" transform="translate(383.8235626220703,76.23991394042969)"/>
<path d="M0 0 C3.31185373 1.44505507 5.48752705 3.24209655 8.0294342 5.7956543 C8.82152786 6.58644379 9.61362152 7.37723328 10.42971802 8.19198608 C11.2895932 9.06062286 12.14946838 9.92925964 13.03540039 10.82421875 C13.94800125 11.73813385 14.86060211 12.65204895 15.80085754 13.59365845 C17.78338875 15.57912003 19.76272532 17.56769366 21.73964119 19.55874634 C24.86518813 22.70657422 27.99782144 25.84728515 31.13145447 28.98706055 C36.0862476 33.95323025 41.03634445 38.92405081 45.98441452 43.8969183 C54.84790934 52.80475502 63.71699865 61.70701314 72.59131807 70.6040659 C75.70578832 73.72694659 78.81742732 76.85261362 81.92682469 79.98054504 C83.39492195 81.45672032 84.86413706 82.93177208 86.33384705 84.40634155 C88.12643975 86.20496939 89.91720202 88.00542405 91.70581055 89.80801392 C92.8897213 90.99419815 92.8897213 90.99419815 94.09754944 92.2043457 C95.12539094 93.23746635 95.12539094 93.23746635 96.17399693 94.29145813 C98.09201511 96.17938262 98.09201511 96.17938262 101 98 C97.16305715 99.27898095 92.96944527 99.76987462 89 99 C83.54323926 95.81232339 79.35262832 91.63593698 74.91503906 87.17382812 C74.12733627 86.38962997 73.33963348 85.60543182 72.52806091 84.79747009 C69.93554095 82.21372598 67.35037372 79.62276665 64.765625 77.03125 C62.96324413 75.2302167 61.16056649 73.42948035 59.35760498 71.62902832 C55.58523839 67.85960715 51.8164103 64.08669651 48.05029297 60.31103516 C43.69940414 55.94924773 39.34133603 51.59473309 34.97950006 47.24389505 C30.77607069 43.05063925 26.57828325 38.85177054 22.38286591 34.65049744 C20.59971741 32.86601376 18.81507923 31.08301738 17.02893829 29.30152893 C14.53688571 26.81454593 12.0513185 24.32125828 9.56738281 21.82617188 C8.82658981 21.08942734 8.08579681 20.3526828 7.32255554 19.59361267 C6.64693069 18.91234818 5.97130585 18.23108368 5.27520752 17.5291748 C4.68752216 16.9407354 4.09983681 16.35229599 3.4943428 15.74602509 C0.44005081 12.17731888 -0.24731671 9.39803502 -0.125 4.75 C-0.09792969 3.41195312 -0.09792969 3.41195312 -0.0703125 2.046875 C-0.04710937 1.37140625 -0.02390625 0.6959375 0 0 Z " fill="#4E5A62" transform="translate(307,106)"/>
<path d="M0 0 C-3.65353418 2.0777175 -7.5373714 3.0631713 -11.57421875 4.109375 C-12.73241119 4.41449005 -12.73241119 4.41449005 -13.91400146 4.72576904 C-16.50383737 5.40571489 -19.09554183 6.07819277 -21.6875 6.75 C-22.58373077 6.98388428 -23.47996155 7.21776855 -24.40335083 7.45874023 C-44.1811531 12.61769601 -64.03208681 17.48124892 -83.89135742 22.31542969 C-85.67150238 22.74931 -85.67150238 22.74931 -87.48760986 23.19195557 C-89.70343813 23.73163665 -91.91959839 24.26995742 -94.13616943 24.80657959 C-100.04720034 26.245498 -105.89722038 27.79694681 -111.72499084 29.54577637 C-114 30 -114 30 -117 29 C-91.87669224 15.97634704 -66.01853889 6.5991897 -38 2 C-37.22946289 1.87157715 -36.45892578 1.7431543 -35.66503906 1.61083984 C-23.79928309 -0.28206857 -11.98358417 -0.21085485 0 0 Z " fill="#FECA49" transform="translate(255,22)"/>
<path d="M0 0 C2.21292271 1.81829826 4.1769431 3.60968376 6.18310547 5.63378906 C6.7804097 6.22087143 7.37771393 6.8079538 7.99311829 7.41282654 C9.96158355 9.35352351 11.91486832 11.30869515 13.8671875 13.265625 C15.22963159 14.62029581 16.59252242 15.97451744 17.95584106 17.32830811 C20.80880418 20.16635335 23.653898 23.01201971 26.49414062 25.86279297 C30.1393557 29.51961733 33.80683562 33.15316553 37.48095512 36.78091812 C40.3000357 39.57057955 43.10518748 42.37392436 45.90646744 45.18144989 C47.25343384 46.52738773 48.60515035 47.86858883 49.96160507 49.20496368 C51.85346299 51.07222371 53.72534056 52.95746943 55.59326172 54.84863281 C56.15939682 55.39948044 56.72553192 55.95032806 57.30882263 56.51786804 C58.83810425 58.08966064 58.83810425 58.08966064 61 61 C60.89581436 63.8871203 60.27523144 65.44953711 59 68 C54.74443702 66.34986235 51.90420204 63.17055778 48.76269531 59.98974609 C48.14763626 59.3749791 47.53257721 58.7602121 46.89888 58.1268158 C44.87051742 56.09706176 42.84932774 54.06031925 40.828125 52.0234375 C39.42180303 50.61338475 38.01503836 49.20377342 36.60784912 47.79458618 C32.90777382 44.08687958 29.21374433 40.37320576 25.52093506 36.65826416 C21.75065747 32.86751741 17.97470239 29.08243543 14.19921875 25.296875 C6.7939064 17.87012159 -0.60503232 10.43705286 -8 3 C-7.67 2.01 -7.34 1.02 -7 0 C-4.16411394 -1.41794303 -3.00918662 -0.99666607 0 0 Z " fill="#6E2A2A" transform="translate(374,78)"/>
<path d="M0 0 C0.99 0.495 0.99 0.495 2 1 C-36.36941071 26.93558577 -82.75158989 38.4960545 -128.625 38.3125 C-129.59555328 38.31034485 -130.56610657 38.3081897 -131.56607056 38.30596924 C-156.61328862 38.2167534 -181.23528512 35.49029984 -205 27 C-201.65479947 25.88125518 -199.60247254 26.14132855 -196.23828125 27.109375 C-195.29895752 27.36831543 -194.35963379 27.62725586 -193.3918457 27.89404297 C-192.37566162 28.17650879 -191.35947754 28.45897461 -190.3125 28.75 C-169.79810439 34.05462724 -150.03591565 35.26671713 -128.9375 35.3125 C-127.48870956 35.31814972 -127.48870956 35.31814972 -126.01065063 35.32391357 C-114.17057892 35.3473087 -102.70451361 34.85159366 -91 33 C-89.97865967 32.84442627 -88.95731934 32.68885254 -87.9050293 32.52856445 C-58.00947095 27.69330046 -28.30101926 17.20457526 -2.484375 1.30078125 C-1.66453125 0.87152344 -0.8446875 0.44226563 0 0 Z " fill="#FCCF59" transform="translate(385,474)"/>
<path d="M0 0 C8.8719808 3.2610524 16.60427019 9.21480161 24 15 C21.41789374 20.45111321 18.61861108 25.17518523 15 30 C14.54109375 29.60167969 14.0821875 29.20335938 13.609375 28.79296875 C12.68898438 27.99826172 12.68898438 27.99826172 11.75 27.1875 C11.11320312 26.63449219 10.47640625 26.08148438 9.8203125 25.51171875 C7.97326534 23.91148057 7.97326534 23.91148057 5.625 22.5 C3.23956763 20.29806243 3.46573874 18.19049375 3 15 C2.48783741 12.37284473 1.9687578 9.74824425 1.4375 7.125 C1.29892578 6.43664063 1.16035156 5.74828125 1.01757812 5.0390625 C0.67927173 3.35919626 0.33976088 1.67957266 0 0 Z " fill="#FDC847" transform="translate(379,55)"/>
</svg>
