<?xml version="1.0" encoding="UTF-8"?>
<svg version="1.1" xmlns="http://www.w3.org/2000/svg" width="512" height="512">
<path d="M0 0 C2.45943532 2.16571295 4.83871485 4.39123924 7.203125 6.66015625 C8.15574219 7.54960938 9.10835938 8.4390625 10.08984375 9.35546875 C30.71926372 28.96122812 46.60998847 56.67570865 47.5390625 85.63671875 C47.56937226 88.18605099 47.58180464 90.73564649 47.578125 93.28515625 C47.57724884 93.9493457 47.57637268 94.61353516 47.57546997 95.29785156 C47.50040327 112.54501108 44.3955491 131.1004066 31.90625 144.1484375 C21.79961391 153.11923604 9.53251073 158.87256708 -4.109375 158.72265625 C-5.17800781 158.71363281 -6.24664062 158.70460937 -7.34765625 158.6953125 C-8.56001953 158.67791016 -8.56001953 158.67791016 -9.796875 158.66015625 C-9.85875 159.44390625 -9.920625 160.22765625 -9.984375 161.03515625 C-12.10995115 170.51849598 -17.60571028 178.22471327 -24.796875 184.66015625 C-30.00256428 187.66015625 -30.00256428 187.66015625 -33.796875 187.66015625 C-33.838125 188.81515625 -33.879375 189.97015625 -33.921875 191.16015625 C-35.25722718 202.83076842 -41.91277597 221.14443084 -50.59448242 229.36157227 C-55.88274959 234.63511448 -56.42343826 239.34440283 -56.48046875 246.5078125 C-56.45931219 250.24889036 -56.35252501 253.98357478 -56.234375 257.72265625 C-56.19921972 259.65684463 -56.16728814 261.59109445 -56.13867188 263.52539062 C-56.06197061 268.23850905 -55.94141921 272.94865035 -55.796875 277.66015625 C-54.98414124 277.86203049 -54.17140747 278.06390472 -53.33404541 278.27189636 C-45.62414723 280.18874065 -37.91660128 282.11472763 -30.21147537 284.05066967 C-26.25140931 285.04531791 -22.29056253 286.03657733 -18.32763672 287.01977539 C-14.49352101 287.97115409 -10.66184412 288.9318472 -6.83159637 289.89867592 C-5.3798077 290.26346529 -3.92721079 290.62505551 -2.47376251 290.98317528 C15.94455752 295.52685756 31.47692775 302.33013108 45.203125 315.66015625 C46.23373047 316.58054687 46.23373047 316.58054687 47.28515625 317.51953125 C57.41044321 326.86594998 64.20061274 339.57717224 68.203125 352.66015625 C68.45619919 353.46504486 68.70927338 354.26993347 68.97001648 355.09921265 C71.96670032 366.11152727 71.65747226 377.11264412 71.63671875 388.4453125 C71.64128661 390.63675599 71.64659398 392.82819805 71.65260315 395.01963806 C71.66148988 399.58598703 71.65915718 404.15216063 71.64916992 408.71850586 C71.63761279 414.5729616 71.6580171 420.42682019 71.68708706 426.28119755 C71.70540246 430.79444719 71.70516716 435.30755193 71.69944954 439.82082939 C71.69929614 441.98062422 71.70535551 444.14042875 71.71774101 446.30018806 C71.73258213 449.30866777 71.72202903 452.31601909 71.70483398 455.32446289 C71.71450195 456.21538132 71.72416992 457.10629974 71.73413086 458.0242157 C71.72429672 458.84392853 71.71446259 459.66364136 71.70433044 460.50819397 C71.70412116 461.2176822 71.70391188 461.92717043 71.70369625 462.6581583 C70.9596038 465.63410138 69.58282671 466.75518314 67.203125 468.66015625 C64.19741821 469.16155291 64.19741821 469.16155291 60.60009766 469.16352081 C59.93483818 469.16933458 59.2695787 469.17514834 58.58415985 469.18113828 C56.34480421 469.19578924 54.10653597 469.18183055 51.8671875 469.16809082 C50.24965859 469.17269776 48.63213385 469.17904927 47.01461792 469.1869998 C42.56184748 469.20374489 38.10941862 469.19542336 33.65664673 469.18305492 C28.85766245 469.17402787 24.05873811 469.18796248 19.25976562 469.19897461 C9.85546228 469.21678954 0.4512864 469.21290663 -8.953022 469.20132405 C-16.59401753 469.19230168 -24.23497725 469.19106053 -31.87597656 469.19541931 C-32.96222132 469.19603224 -34.04846607 469.19664518 -35.16762733 469.19727668 C-37.37410229 469.19855554 -39.58057723 469.1998524 -41.78705215 469.20116705 C-62.49200515 469.21258156 -83.19688738 469.19944548 -103.90182877 469.17796558 C-121.67937963 469.16009382 -139.45682602 469.16319768 -157.234375 469.18164062 C-177.86369549 469.20303196 -198.49295391 469.21148284 -219.12228394 469.19919157 C-221.32078043 469.19791733 -223.51927693 469.19665985 -225.71777344 469.19541931 C-226.79956186 469.19480221 -227.88135029 469.19418511 -228.99592018 469.19354931 C-236.63043326 469.19009119 -244.26490707 469.19593468 -251.89941406 469.20533752 C-261.1994864 469.21653961 -270.49942364 469.21355525 -279.79948044 469.19221455 C-284.54730416 469.18167997 -289.2949024 469.17762316 -294.04272461 469.19081116 C-298.38525845 469.20269123 -302.72735684 469.19624547 -307.06985092 469.17490095 C-308.64448489 469.17041618 -310.21915531 469.17274293 -311.79376602 469.1824041 C-313.92765609 469.19449697 -316.06003754 469.18216837 -318.19384766 469.16352081 C-319.38096344 469.1628714 -320.56807922 469.16222199 -321.79116821 469.16155291 C-325.40747784 468.5582986 -326.58225822 467.5237513 -328.796875 464.66015625 C-329.30023956 462.66653824 -329.30023956 462.66653824 -329.30480957 460.52838135 C-329.31608887 459.713004 -329.32736816 458.89762665 -329.33898926 458.05754089 C-329.33089233 457.1713356 -329.32279541 456.28513031 -329.31445312 455.37207031 C-329.3214624 454.4315834 -329.32847168 453.4910965 -329.33569336 452.52210999 C-329.35332249 449.40636801 -329.34162158 446.29153288 -329.328125 443.17578125 C-329.3308212 441.00022203 -329.33470468 438.82466399 -329.33972168 436.64910889 C-329.34562564 432.0792702 -329.33703468 427.5097438 -329.31835938 422.93994141 C-329.29573191 417.12337026 -329.30858385 411.30754405 -329.33264923 405.49100113 C-329.34722221 400.99009776 -329.34244619 396.48936575 -329.33213806 391.98845673 C-329.32949391 389.84696106 -329.33265785 387.70544915 -329.34205627 385.56397247 C-329.43551142 358.24918403 -322.55479656 335.33118526 -303.046875 315.34765625 C-291.2757954 303.70056642 -276.8197547 296.60630513 -260.859375 292.53515625 C-259.80121582 292.25728271 -258.74305664 291.97940918 -257.65283203 291.69311523 C-253.70509272 290.66510929 -249.75201176 289.65921682 -245.796875 288.66015625 C-244.92049377 288.43873962 -244.04411255 288.217323 -243.14117432 287.98919678 C-229.36794969 284.5131746 -215.58488912 281.07699212 -201.796875 277.66015625 C-201.59747002 272.02274735 -201.45318762 266.38743781 -201.35742188 260.74731445 C-201.31746091 258.8335388 -201.26306968 256.92000313 -201.19335938 255.00708008 C-200.55355132 240.30600954 -200.55355132 240.30600954 -207.73876953 227.86938477 C-208.41794434 227.14033936 -209.09711914 226.41129395 -209.796875 225.66015625 C-211.5336076 223.03954548 -213.02385361 220.31760941 -214.484375 217.53515625 C-214.85812256 216.82721924 -215.23187012 216.11928223 -215.61694336 215.38989258 C-219.87511569 206.99642422 -223.796875 197.15781872 -223.796875 187.66015625 C-224.498125 187.57765625 -225.199375 187.49515625 -225.921875 187.41015625 C-233.74354674 185.36972014 -239.27546505 178.90010614 -243.28125 172.1640625 C-247.16648868 164.6564101 -249.18983285 157.67040844 -249.171875 149.22265625 C-249.17054565 148.09996338 -249.17054565 148.09996338 -249.16918945 146.95458984 C-249.04587976 141.22225415 -248.14104614 137.43754359 -244.796875 132.66015625 C-244.2643663 132.2646608 -243.7318576 131.86916534 -243.18321228 131.46168518 C-240.93648298 128.54208698 -241.3923109 125.2459051 -241.42797852 121.71069336 C-241.42421204 120.90036148 -241.42044556 120.0900296 -241.41656494 119.25514221 C-241.41012402 117.49220372 -241.41047041 115.72923051 -241.41674995 113.96629143 C-241.42587368 111.15906177 -241.41561531 108.35249853 -241.40013123 105.54530334 C-241.36010913 97.56235848 -241.35880344 89.57946406 -241.36108398 81.59643555 C-241.36113568 76.71040208 -241.34165915 71.82472024 -241.31175041 66.93878365 C-241.30108847 64.2038082 -241.31296755 61.46955452 -241.32557678 58.73460388 C-241.28531821 39.00964867 -238.11832564 20.51499966 -224.046875 5.73046875 C-220.88104808 2.81746828 -217.30491035 -0.33984375 -212.796875 -0.33984375 C-212.41015625 -1.41492187 -212.41015625 -1.41492187 -212.015625 -2.51171875 C-204.8828497 -19.06341528 -188.93751417 -29.39023544 -172.82104492 -35.87744141 C-115.50257999 -57.8203684 -45.59047548 -38.14063521 0 0 Z " fill="#5C4430" transform="translate(384.796875,43.33984375)"/>
<path d="M0 0 C15.11482499 8.76472614 30.4626843 14.8214393 47.90844727 16.70849609 C55.56544931 17.65675848 62.40324072 19.91441212 69.58984375 22.7265625 C70.81159805 23.18984955 72.03335236 23.6531366 73.29212952 24.13046265 C76.48845816 25.34270896 79.67713981 26.57387881 82.86444092 27.80963135 C86.1388163 29.075083 89.42030202 30.32181877 92.70117188 31.5703125 C99.09938489 34.00813374 105.48968757 36.46609209 111.875 38.9375 C111.87996522 39.89829405 111.87996522 39.89829405 111.88503075 40.87849808 C111.9662338 56.4604742 112.05831733 72.04234222 112.16252708 87.62417984 C112.21265936 95.15942605 112.25910219 102.69466134 112.296875 110.22998047 C112.32980524 116.79738846 112.36964213 123.36471192 112.41779006 129.93202662 C112.44304486 133.40971053 112.4648291 136.88733843 112.47834396 140.36508942 C112.49355655 144.24642445 112.52418804 148.12755401 112.55615234 152.00878906 C112.55831253 153.16325027 112.56047272 154.31771149 112.56269836 155.50715637 C112.57386185 156.56442429 112.58502533 157.6216922 112.5965271 158.71099854 C112.60205786 159.62910435 112.60758862 160.54721016 112.61328697 161.49313736 C113.01409394 165.2366177 114.23541998 167.29791998 116.875 169.9375 C34.375 169.9375 -48.125 169.9375 -133.125 169.9375 C-132.135 168.9475 -131.145 167.9575 -130.125 166.9375 C-128.82934013 163.05052038 -128.98058512 159.36486846 -128.9831543 155.3137207 C-128.97967987 154.43190125 -128.97620544 153.55008179 -128.97262573 152.64154053 C-128.96526796 150.72307784 -128.95992269 148.80460664 -128.95633507 146.88613319 C-128.94915448 143.8359813 -128.93347088 140.78598888 -128.91499329 137.73588562 C-128.86263494 129.06182189 -128.81466812 120.38784099 -128.79907227 111.71362305 C-128.78890487 106.40611346 -128.75935082 101.09899927 -128.71775246 95.79164696 C-128.70555019 93.78136393 -128.70030119 91.77102475 -128.70255089 89.76070595 C-128.7231841 65.27900449 -123.42735335 45.9288899 -106.04296875 27.76171875 C-92.47660112 14.79941944 -75.60739946 10.70163993 -57.90625 6.23046875 C-56.94056343 5.98586631 -56.94056343 5.98586631 -55.95536804 5.7363224 C-52.56590355 4.87785325 -49.1754976 4.023236 -45.78417969 3.17211914 C-42.29733263 2.29625173 -38.81396693 1.40726216 -35.33118439 0.51539135 C-32.6306126 -0.17371475 -29.92772178 -0.85334749 -27.22410583 -1.53040123 C-25.31636191 -2.01069154 -23.41113877 -2.50095927 -21.50598145 -2.9914093 C-19.76762024 -3.42262337 -19.76762024 -3.42262337 -17.99414062 -3.86254883 C-16.47077087 -4.2474926 -16.47077087 -4.2474926 -14.91662598 -4.64021301 C-8.93644964 -5.54482942 -4.97629983 -2.99308615 0 0 Z " fill="#F4F4F4" transform="translate(200.125,342.0625)"/>
<path d="M0 0 C0.35191406 1.00417969 0.70382812 2.00835937 1.06640625 3.04296875 C6.07583482 18.14015649 6.07583482 18.14015649 14.98022461 30.94067383 C21.62939993 37.78060721 22.04115881 43.68352837 21.95898438 52.78295898 C21.91350257 54.50123116 21.86461632 56.21941626 21.8125 57.9375 C21.78298776 59.70450488 21.75369165 61.47151338 21.72460938 63.23852539 C21.4523316 74.9727994 20.66226526 86.0957843 16 97 C15.5659082 98.04220703 15.5659082 98.04220703 15.12304688 99.10546875 C11.00450123 108.70666434 5.65149436 116.94259475 -1 125 C-1.61230469 125.77601563 -2.22460938 126.55203125 -2.85546875 127.3515625 C-15.74534651 142.9073638 -35.28202453 155.01875008 -55.4609375 157.41015625 C-77.369829 158.3702088 -95.52994806 144.62077362 -111.3046875 131.01171875 C-126.93450022 116.35484618 -138.59791488 94.09116182 -139.3184967 72.59138489 C-139.40388675 69.08853828 -139.46851021 65.58585601 -139.51489258 62.08227539 C-139.54648303 60.24435882 -139.5941868 58.40664455 -139.65844727 56.56958008 C-140.25159909 39.3403006 -140.25159909 39.3403006 -135.2265625 33.18359375 C-133.8305901 31.77616754 -132.42299564 30.38009814 -131 29 C-124.97061483 20.24924069 -121.22035849 10.0481378 -118 0 C-79.96044185 -5.75259708 -38.06274413 -5.95065436 0 0 Z " fill="#F4DFCC" transform="translate(315,147)"/>
<path d="M0 0 C7.73210696 0.07321378 15.24851828 2.08202163 22.69921875 3.94921875 C23.89247269 4.24431839 25.08572662 4.53941803 26.31513977 4.84346008 C28.82972058 5.46781674 31.34339659 6.09582757 33.85620117 6.72729492 C37.65559755 7.67950457 41.45929221 8.61285009 45.26367188 9.54492188 C71.52276769 16.05752069 94.79879596 23.95326775 110 48 C119.53997575 63.85579304 120.58699614 79.77954677 120.5390625 97.765625 C120.54899154 99.8182682 120.56094107 101.87090251 120.57479858 103.92352295 C120.60687727 109.27463645 120.61752977 114.62554542 120.62164307 119.97674561 C120.63046775 128.58145841 120.66587268 137.18600615 120.7138176 145.79058075 C120.72638749 148.78641523 120.72564781 151.78203761 120.72354126 154.77789307 C120.7301183 156.60616216 120.73712391 158.43442979 120.74462891 160.26269531 C120.74050491 161.09279617 120.73638092 161.92289703 120.73213196 162.77815247 C120.7701631 168.18230963 121.18277719 171.18277719 125 175 C84.74 175 44.48 175 3 175 C3.99 174.01 4.98 173.02 6 172 C7.02247106 168.93258681 7.13305623 166.83008898 7.14717102 163.61695862 C7.15432632 162.49953278 7.16148163 161.38210693 7.16885376 160.2308197 C7.17154266 159.00424149 7.17423157 157.77766327 7.17700195 156.51391602 C7.18357315 155.22267822 7.19014435 153.93144043 7.19691467 152.60107422 C7.21793304 148.31869749 7.22831235 144.03632049 7.23828125 139.75390625 C7.2423291 138.27957579 7.24644603 136.80524552 7.25063133 135.33091545 C7.26967511 128.40683924 7.28390999 121.48277366 7.2922433 114.5586763 C7.30202464 106.56350008 7.32837065 98.56860006 7.36874419 90.5735212 C7.3988791 84.39425372 7.41370951 78.21506556 7.41702431 72.03572601 C7.41937709 68.34445337 7.42836708 64.65347608 7.45348549 60.96228218 C7.48104217 56.84650309 7.47694321 52.7313439 7.4699707 48.61547852 C7.48278076 47.39092453 7.49559082 46.16637054 7.50878906 44.90470886 C7.50184525 43.7844632 7.49490143 42.66421753 7.48774719 41.51002502 C7.49013555 40.53682092 7.4925239 39.56361681 7.49498463 38.56092167 C6.85117458 35.23001598 5.61991647 34.09501575 3 32 C0.33651381 30.81618861 -2.23494158 29.79145109 -4.9765625 28.8359375 C-5.74302094 28.55779205 -6.50947937 28.27964661 -7.29916382 27.99307251 C-9.73743124 27.1097413 -12.18068362 26.24143747 -14.625 25.375 C-17.07567795 24.49948329 -19.52507912 23.62075141 -21.97225952 22.73550415 C-23.49254021 22.18622297 -25.01497611 21.64286323 -26.53970337 21.10604858 C-31.77653617 19.22346383 -31.77653617 19.22346383 -34 17 C-32.79085938 16.5153125 -31.58171875 16.030625 -30.3359375 15.53125 C-14.10460789 9.57340535 -14.10460789 9.57340535 0 0 Z " fill="#F4F4F4" transform="translate(320,337)"/>
<path d="M0 0 C3.25525847 3.24461143 5.27400015 5.31919197 5.56762695 9.98583984 C5.56684472 11.47777331 5.53914667 12.96987117 5.48828125 14.4609375 C5.47766914 15.6467894 5.47766914 15.6467894 5.46684265 16.8565979 C5.43901463 19.36372433 5.37630474 21.86855712 5.3125 24.375 C5.28740184 26.08199883 5.26459133 27.78903292 5.24414062 29.49609375 C5.18922691 33.66493648 5.10304076 37.83208038 5 42 C3.60396057 41.58402437 2.20818801 41.16715317 0.8125 40.75 C-0.56010986 40.34164917 -0.56010986 40.34164917 -1.96044922 39.92504883 C-4.01533946 39.29966898 -6.06386495 38.65304389 -8.10595703 37.98706055 C-15.64968296 35.55136414 -23.03164277 33.92693385 -30.875 32.8125 C-31.91140625 32.64814453 -32.9478125 32.48378906 -34.015625 32.31445312 C-53.05921469 29.52124252 -72.54483339 29.7934268 -91.75 29.8125 C-93.31374863 29.81290787 -93.31374863 29.81290787 -94.90908813 29.81332397 C-111.01874856 29.8325661 -126.97623701 30.1897841 -143 32 C-144.42119141 32.15275391 -144.42119141 32.15275391 -145.87109375 32.30859375 C-157.80058563 33.63409285 -168.65450221 36.10239702 -180 40 C-182.33125841 40.67388657 -184.66434229 41.34152299 -187 42 C-187.17409588 37.01970985 -187.30055003 32.04121999 -187.38452148 27.05859375 C-187.41955043 25.36687337 -187.46719144 23.67536226 -187.52807617 21.984375 C-188.08460398 6.12099399 -188.08460398 6.12099399 -183.84765625 1.12890625 C-181.91430664 -0.58349609 -181.91430664 -0.58349609 -180 -2 C-179.01 -2.82628906 -178.02 -3.65257813 -177 -4.50390625 C-131.12131887 -35.98576166 -42.94594443 -39.86790746 0 0 Z " fill="#D7D7D9" transform="translate(347,99)"/>
<path d="M0 0 C1.12462646 0.02320312 1.12462646 0.02320312 2.27197266 0.046875 C43.70649549 1.0670633 83.31048442 21.66011694 111.77734375 50.84765625 C123.93051652 63.84149961 133.49323747 79.04167448 139 96 C139.3196875 96.95519531 139.639375 97.91039063 139.96875 98.89453125 C144.83223532 116.07434283 143.42390462 135.72715516 135.875 151.875 C134 155 134 155 132 156 C131.87044922 154.83597656 131.87044922 154.83597656 131.73828125 153.6484375 C129.84140055 139.06507945 124.99911712 125.0704511 115 114 C112.15916359 112.57958179 110.14522722 112.68547728 107 113 C104.5 114.5 104.5 114.5 103 117 C102.50020291 121.75131779 103.22047299 123.94310295 106.1875 127.625 C114.51473826 138.81788705 117.87854388 151.20890418 117 165 C116.67 165.99 116.34 166.98 116 168 C110.86308839 169.99186369 106.47549707 170.1921227 101 170 C100.34895833 168.046875 99.69791667 166.09375 99.046875 164.140625 C98.111532 161.85780023 98.111532 161.85780023 95.9657135 160.3074646 C93.25839932 157.12946759 93.50116731 155.07940216 93.50170898 150.93994141 C93.49343079 149.88550591 93.49343079 149.88550591 93.48498535 148.80976868 C93.4756764 147.28693049 93.47555114 145.76401445 93.48357964 144.24116898 C93.49621897 141.82765164 93.48491188 139.4152765 93.46754456 137.00180054 C93.44083597 132.74614741 93.43524891 128.49077426 93.43664551 124.23504639 C93.43887312 117.43080191 93.42467389 110.62690495 93.38105965 103.82279587 C93.37124549 101.45073835 93.37992696 99.07922981 93.38975525 96.70718384 C93.38360798 95.2444015 93.37669522 93.78162212 93.36889648 92.31884766 C93.36985825 91.04739899 93.37082001 89.77595032 93.37181091 88.4659729 C92.96811606 84.70278207 91.88893036 82.25181021 90 79 C91.03640625 79.04640625 92.0728125 79.0928125 93.140625 79.140625 C94.51038779 79.17815275 95.88018182 79.21455184 97.25 79.25 C97.93191406 79.28351563 98.61382812 79.31703125 99.31640625 79.3515625 C102.77964041 79.41880977 104.64367091 79.26413601 107.4609375 77.17578125 C109.51663107 74.26963578 109.445239 72.4877055 109 69 C106.11404468 64.67106702 103.17215923 64.62818462 98.23046875 63.53125 C94.09943536 62.87173238 90.09832815 63.04077191 85.93041992 63.203125 C75.77391718 63.59046758 69.63459991 62.85054988 61.20703125 57.11328125 C56.16472733 53.79064249 50.69605141 51.96807092 45 50 C45.33 49.34 45.66 48.68 46 48 C49.3199699 47.39020961 52.64249945 47.03932224 55.99609375 46.66015625 C59.30258062 46.29752289 59.30258062 46.29752289 61 43 C61.33957563 38.92509248 61.31332486 37.46998729 59 34 C48.66417005 30.55472335 36.07788713 33.57831611 26 37 C24.26345439 37.8841484 22.54915626 38.81524885 20.875 39.8125 C16.76820266 42.09035176 13.95819621 42.11919967 9.31640625 41.671875 C7.9768124 41.55670705 6.63695145 41.4446147 5.296875 41.33520508 C4.5958667 41.27676422 3.8948584 41.21832336 3.17260742 41.15811157 C-0.51544943 40.88971312 -4.20650401 40.78554709 -7.90234375 40.68359375 C-8.64440063 40.66238968 -9.38645752 40.64118561 -10.15100098 40.61933899 C-12.41311065 40.55639538 -14.67529375 40.49685959 -16.9375 40.4375 C-18.50716883 40.39414616 -20.07683037 40.35052764 -21.64648438 40.30664062 C-25.43091295 40.2013908 -29.21542054 40.0996701 -33 40 C-30.45041912 37.31175446 -28.16390037 35.98762139 -24.75 34.5 C-23.77804688 34.07074219 -22.80609375 33.64148437 -21.8046875 33.19921875 C-19.50278574 32.21497942 -17.19225444 31.25959362 -14.875 30.3125 C-11.89654341 29.31635791 -11.89654341 29.31635791 -11 27 C-10.62501272 23.55011705 -10.65602717 21.60977001 -12.375 18.5625 C-15.84650165 16.49612997 -17.93300691 16.56074321 -21.88671875 17.12890625 C-35.52473013 20.94481157 -48.62941124 29.52698904 -58 40 C-58.37253906 40.68320312 -58.74507812 41.36640625 -59.12890625 42.0703125 C-62.23107799 45.26962949 -66.32660148 45.71325216 -70.5625 46.75 C-83.61825309 50.21349512 -96.5419478 54.81700867 -107.46875 62.96875 C-109 64 -109 64 -111 64 C-110.40404783 56.25262175 -106.63478179 50.16454339 -100.9375 45.0625 C-95.08111053 40.15704901 -90.64989124 39.69036198 -83.09375 39.34375 C-80.16968403 39.01885378 -78.43329317 38.60689172 -76 37 C-74.54852097 34.09704195 -74.62760975 32.22738221 -75 29 C-76.47368516 26.72248656 -78.11435238 24.97993 -80 23 C-60.15787395 0.32328451 -27.81656766 -0.73528016 0 0 Z " fill="#F3F3F2" transform="translate(274,16)"/>
<path d="M0 0 C3.28253866 1.95162979 6.48183245 3.98242653 9.65429688 6.10864258 C21.76563572 14.14219949 33.94768176 19.3782685 48 23 C48 30.92 48 38.84 48 47 C36.77725349 45.75302817 27.42375648 42.84516546 17.25 38.125 C16.56550781 37.80974365 15.88101563 37.4944873 15.17578125 37.16967773 C13.81141946 36.51646661 12.46065335 35.83412131 11.12475586 35.12451172 C8.96583813 33.94772223 8.96583813 33.94772223 6.50219727 32.91064453 C3.75935106 31.50752859 1.98507786 30.36871586 0 28 C-1.10617561 23.16703895 -0.85148442 18.55008499 -0.5625 13.625 C-0.52189453 12.31660156 -0.48128906 11.00820313 -0.43945312 9.66015625 C-0.33356047 6.43631326 -0.18580949 3.22006258 0 0 Z " fill="#ECECEB" transform="translate(200,296)"/>
<path d="M0 0 C0.33 0 0.66 0 1 0 C3.02797791 24.01893833 3.02797791 24.01893833 -0.01806641 29.99853516 C-2.75262994 32.90381838 -6.28763025 34.19192673 -10.03222656 35.35205078 C-12.09069028 36.02986253 -13.95478004 36.88355651 -15.8984375 37.83984375 C-25.39146421 42.4599083 -36.33537739 47 -47 47 C-47 39.08 -47 31.16 -47 23 C-44.525 22.34 -42.05 21.68 -39.5 21 C-25.78397815 17.08341414 -10.25546678 10.25546678 0 0 Z " fill="#ECECEC" transform="translate(311,296)"/>
<path d="M0 0 C4.17053153 0.86886074 5.42481832 2.23209645 8 5.625 C8.71614492 9.01393432 8.65379241 12.32844253 8.59375 15.78125 C8.59379028 16.76113892 8.59383057 17.74102783 8.59387207 18.75061035 C8.58852058 20.81834339 8.5709538 22.88607616 8.54199219 24.95361328 C8.50014246 28.11424075 8.50092503 31.27273593 8.5078125 34.43359375 C8.49731929 36.44532727 8.48438048 38.45704983 8.46875 40.46875 C8.46854858 41.41157837 8.46834717 42.35440674 8.46813965 43.32580566 C8.38040995 48.20202201 8.24472922 51.70511292 5 55.625 C2.19084526 57.02957737 0.11189466 56.87395157 -3 56.625 C-6.1359157 54.84515595 -6.84102736 54.10191793 -8 50.625 C-8.11048419 49.16372994 -8.16864048 47.69815069 -8.19287109 46.23291016 C-8.20893402 45.34834137 -8.22499695 44.46377258 -8.24154663 43.55239868 C-8.2860985 39.51736327 -8.3270428 35.48248942 -8.35009766 31.44726562 C-8.3666722 29.31922481 -8.39398175 27.19124 -8.43212891 25.06347656 C-8.48688194 21.99254534 -8.50876728 18.922916 -8.5234375 15.8515625 C-8.54610687 14.90246002 -8.56877625 13.95335754 -8.59213257 12.97549438 C-8.57739192 8.36781817 -8.50886018 6.2976532 -5.65478516 2.52490234 C-3 0.625 -3 0.625 0 0 Z " fill="#5B432E" transform="translate(368,455.375)"/>
<path d="M0 0 C4.17053153 0.86886074 5.42481832 2.23209645 8 5.625 C8.71614492 9.01393432 8.65379241 12.32844253 8.59375 15.78125 C8.59379028 16.76113892 8.59383057 17.74102783 8.59387207 18.75061035 C8.58852058 20.81834339 8.5709538 22.88607616 8.54199219 24.95361328 C8.50014246 28.11424075 8.50092503 31.27273593 8.5078125 34.43359375 C8.49731929 36.44532727 8.48438048 38.45704983 8.46875 40.46875 C8.46854858 41.41157837 8.46834717 42.35440674 8.46813965 43.32580566 C8.38040995 48.20202201 8.24472922 51.70511292 5 55.625 C2.19084526 57.02957737 0.11189466 56.87395157 -3 56.625 C-6.1359157 54.84515595 -6.84102736 54.10191793 -8 50.625 C-8.11048419 49.16372994 -8.16864048 47.69815069 -8.19287109 46.23291016 C-8.20893402 45.34834137 -8.22499695 44.46377258 -8.24154663 43.55239868 C-8.2860985 39.51736327 -8.3270428 35.48248942 -8.35009766 31.44726562 C-8.3666722 29.31922481 -8.39398175 27.19124 -8.43212891 25.06347656 C-8.48688194 21.99254534 -8.50876728 18.922916 -8.5234375 15.8515625 C-8.54610687 14.90246002 -8.56877625 13.95335754 -8.59213257 12.97549438 C-8.57739192 8.36781817 -8.50886018 6.2976532 -5.65478516 2.52490234 C-3 0.625 -3 0.625 0 0 Z " fill="#5B432E" transform="translate(144,455.375)"/>
<path d="M0 0 C-1.32780909 4.4260303 -3.07777401 8.15660059 -5.4375 12.125 C-6.03433594 13.13820312 -6.63117188 14.15140625 -7.24609375 15.1953125 C-8.73082318 17.56955689 -10.27614336 19.79641567 -12 22 C-14.31 21.34 -16.62 20.68 -19 20 C-19.48359884 16.22524235 -19.66803357 12.7596308 -19 9 C-16.78056959 6.16500237 -14.17459959 4.63455741 -11 3 C-10.35675781 2.66226563 -9.71351563 2.32453125 -9.05078125 1.9765625 C-5.78283614 0.43120017 -3.66780826 0 0 0 Z " fill="#AF8763" transform="translate(179,152)"/>
<path d="M0 0 C6.66422121 0.66642212 11.61602978 3.31135443 17 7.125 C19.90820067 11.30553846 19.43167344 15.05973734 19 20 C16.69 20.66 14.38 21.32 12 22 C10.55862125 19.79411638 9.12184635 17.58545003 7.6875 15.375 C7.28337891 14.75753906 6.87925781 14.14007813 6.46289062 13.50390625 C0 3.52057927 0 3.52057927 0 0 Z " fill="#AF8864" transform="translate(333,152)"/>
<path d="M0 0 C4.0743356 0.84881992 5.54405875 2.30225596 8 5.625 C8.625 8.625 8.625 8.625 8 11.625 C5.54405875 14.94774404 4.0743356 16.40118008 0 17.25 C-4.0743356 16.40118008 -5.54405875 14.94774404 -8 11.625 C-8.625 8.625 -8.625 8.625 -8 5.625 C-5.54405875 2.30225596 -4.0743356 0.84881992 0 0 Z " fill="#5F4834" transform="translate(288,487.375)"/>
<path d="M0 0 C4.0743356 0.84881992 5.54405875 2.30225596 8 5.625 C8.625 8.625 8.625 8.625 8 11.625 C5.54405875 14.94774404 4.0743356 16.40118008 0 17.25 C-4.0743356 16.40118008 -5.54405875 14.94774404 -8 11.625 C-8.625 8.625 -8.625 8.625 -8 5.625 C-5.54405875 2.30225596 -4.0743356 0.84881992 0 0 Z " fill="#5F4834" transform="translate(224,487.375)"/>
<path d="M0 0 C4.0743356 0.84881992 5.54405875 2.30225596 8 5.625 C8.625 8.625 8.625 8.625 8 11.625 C5.54405875 14.94774404 4.0743356 16.40118008 0 17.25 C-4.0743356 16.40118008 -5.54405875 14.94774404 -8 11.625 C-8.625 8.625 -8.625 8.625 -8 5.625 C-5.54405875 2.30225596 -4.0743356 0.84881992 0 0 Z " fill="#5F4834" transform="translate(288,439.375)"/>
<path d="M0 0 C4.0743356 0.84881992 5.54405875 2.30225596 8 5.625 C8.625 8.625 8.625 8.625 8 11.625 C5.54405875 14.94774404 4.0743356 16.40118008 0 17.25 C-4.0743356 16.40118008 -5.54405875 14.94774404 -8 11.625 C-8.625 8.625 -8.625 8.625 -8 5.625 C-5.54405875 2.30225596 -4.0743356 0.84881992 0 0 Z " fill="#5F4834" transform="translate(224,439.375)"/>
<path d="M0 0 C4.0743356 0.84881992 5.54405875 2.30225596 8 5.625 C8.625 8.625 8.625 8.625 8 11.625 C5.54405875 14.94774404 4.0743356 16.40118008 0 17.25 C-4.0743356 16.40118008 -5.54405875 14.94774404 -8 11.625 C-8.625 8.625 -8.625 8.625 -8 5.625 C-5.54405875 2.30225596 -4.0743356 0.84881992 0 0 Z " fill="#5F4834" transform="translate(288,391.375)"/>
<path d="M0 0 C4.0743356 0.84881992 5.54405875 2.30225596 8 5.625 C8.625 8.625 8.625 8.625 8 11.625 C5.54405875 14.94774404 4.0743356 16.40118008 0 17.25 C-4.0743356 16.40118008 -5.54405875 14.94774404 -8 11.625 C-8.625 8.625 -8.625 8.625 -8 5.625 C-5.54405875 2.30225596 -4.0743356 0.84881992 0 0 Z " fill="#5F4834" transform="translate(224,391.375)"/>
<path d="M0 0 C0.81448553 8.18105471 -0.97098952 14.82722641 -5 22 C-5.99 22.66 -6.98 23.32 -8 24 C-8 16.41 -8 8.82 -8 1 C-5.29120665 -0.35439668 -2.99066732 -0.06501451 0 0 Z " fill="#EFDAC7" transform="translate(360,187)"/>
<path d="M0 0 C2.64 0.33 5.28 0.66 8 1 C8 8.59 8 16.18 8 24 C2.91231011 18.91231011 0.41479979 13.51094768 -0.25 6.28125 C-0.25 4.18584228 -0.13710932 2.09091715 0 0 Z " fill="#F0DBC8" transform="translate(152,187)"/>
<path d="M0 0 C0.66 0.33 1.32 0.66 2 1 C-2.29 5.29 -6.58 9.58 -11 14 C-11 10.30159372 -10.17133056 9.68584567 -7.75 7 C-7.14671875 6.319375 -6.5434375 5.63875 -5.921875 4.9375 C-4.06233388 3.06284066 -2.15205789 1.52358081 0 0 Z " fill="#837261" transform="translate(166,45)"/>
<path d="M0 0 C0.99 0.33 1.98 0.66 3 1 C-0.3 4.3 -3.6 7.6 -7 11 C-7.33 10.01 -7.66 9.02 -8 8 C-5.36 5.36 -2.72 2.72 0 0 Z " fill="#7B695A" transform="translate(188,21)"/>
</svg>
