<?xml version="1.0" encoding="UTF-8"?>
<svg version="1.1" xmlns="http://www.w3.org/2000/svg" width="128" height="128">
<path d="M0 0 C1.06011292 -0.00281982 2.12022583 -0.00563965 3.21246338 -0.00854492 C4.97200348 -0.00550858 4.97200348 -0.00550858 6.76708984 -0.00241089 C7.99457947 -0.00416321 9.22206909 -0.00591553 10.48675537 -0.00772095 C13.86271013 -0.01137919 17.23860396 -0.010506 20.61455536 -0.00734186 C24.14017318 -0.00481792 27.66578833 -0.00715589 31.19140625 -0.00872803 C37.11312327 -0.01054962 43.03482784 -0.00814367 48.95654297 -0.00338745 C55.81219544 0.00205515 62.66781818 0.00029249 69.52346992 -0.00521386 C75.39946816 -0.00974527 81.27545742 -0.0103954 87.15145683 -0.00777519 C90.66536827 -0.00621257 94.17926572 -0.00601823 97.69317627 -0.00931168 C101.60845098 -0.01272468 105.52369211 -0.00800019 109.43896484 -0.00241089 C110.61199158 -0.00443512 111.78501831 -0.00645935 112.99359131 -0.00854492 C114.58376068 -0.00431519 114.58376068 -0.00431519 116.20605469 0 C117.1330014 0.00037703 118.05994812 0.00075405 119.01498413 0.0011425 C121.10302734 0.12698364 121.10302734 0.12698364 122.10302734 1.12698364 C122.20139944 2.45741989 122.23381327 3.79291709 122.23583984 5.12698364 C122.23712891 5.93135864 122.23841797 6.73573364 122.23974609 7.56448364 C122.23587891 8.41010864 122.23201172 9.25573364 122.22802734 10.12698364 C122.23189453 10.97260864 122.23576172 11.81823364 122.23974609 12.68948364 C122.2378125 13.89604614 122.2378125 13.89604614 122.23583984 15.12698364 C122.23471191 15.86948364 122.23358398 16.61198364 122.23242188 17.37698364 C122.10302734 19.12698364 122.10302734 19.12698364 121.10302734 20.12698364 C116.43457507 20.27124978 111.77436782 20.16906779 107.10302734 20.12698364 C107.10302734 29.03698364 107.10302734 37.94698364 107.10302734 47.12698364 C106.44302734 47.12698364 105.78302734 47.12698364 105.10302734 47.12698364 C105.10302734 55.37698364 105.10302734 63.62698364 105.10302734 72.12698364 C108.73302734 72.12698364 112.36302734 72.12698364 116.10302734 72.12698364 C115.85541843 76.33633514 115.52200473 78.60326191 112.85302734 81.93948364 C108.70483846 85.23917935 105.94422416 86.3562709 100.66552734 86.06448364 C95.80730825 85.39941859 93.49208268 83.60076536 90.10302734 80.12698364 C88.74863067 77.41819029 89.03801284 75.11765097 89.10302734 72.12698364 C92.73302734 72.12698364 96.36302734 72.12698364 100.10302734 72.12698364 C99.98957245 68.16800482 99.86281485 64.21024332 99.72802734 60.25198364 C99.69708984 59.12405396 99.66615234 57.99612427 99.63427734 56.83401489 C99.59560547 55.75764771 99.55693359 54.68128052 99.51708984 53.57229614 C99.48566895 52.57730103 99.45424805 51.58230591 99.421875 50.55715942 C99.33055651 47.94843848 99.33055651 47.94843848 97.10302734 46.12698364 C96.87597656 43.51321411 96.87597656 43.51321411 96.90771484 40.24417114 C96.91416016 39.07756958 96.92060547 37.91096802 96.92724609 36.70901489 C96.95238281 34.87403442 96.95238281 34.87403442 96.97802734 33.00198364 C96.98705078 31.77092896 96.99607422 30.53987427 97.00537109 29.27151489 C97.02900101 26.22325559 97.06487295 23.17509575 97.10302734 20.12698364 C90.50302734 20.12698364 83.90302734 20.12698364 77.10302734 20.12698364 C77.10302734 32.89486492 78.77155387 42.83913732 83.39599609 54.76370239 C85.68429878 60.8576411 86.9517388 65.73793088 85.10302734 72.12698364 C83.79833984 74.50198364 83.79833984 74.50198364 82.22802734 76.12698364 C81.71498047 76.68385864 81.20193359 77.24073364 80.67333984 77.81448364 C77.20163053 80.71621083 73.40981755 80.41896942 69.10302734 80.12698364 C63.96343227 78.31300891 61.470106 76.04322393 59.10302734 71.12698364 C58.4099983 63.31885645 60.45876554 57.41044842 63.10302734 50.12698364 C66.7552024 39.5345797 67.90677276 31.27895134 67.10302734 20.12698364 C61.49302734 20.12698364 55.88302734 20.12698364 50.10302734 20.12698364 C50.11462891 21.99225708 50.12623047 23.85753052 50.13818359 25.77932739 C50.1475596 28.20771181 50.15666 30.63609731 50.16552734 33.06448364 C50.17390625 34.29618286 50.18228516 35.52788208 50.19091797 36.79690552 C50.19414063 37.96672974 50.19736328 39.13655396 50.20068359 40.34182739 C50.20592041 41.42584839 50.21115723 42.50986938 50.21655273 43.6267395 C50.10302734 46.12698364 50.10302734 46.12698364 49.10302734 47.12698364 C48.94562129 48.83262143 48.85209343 50.54425609 48.78662109 52.25588989 C48.7237793 53.80759888 48.7237793 53.80759888 48.65966797 55.39065552 C48.62035156 56.4792688 48.58103516 57.56788208 48.54052734 58.68948364 C48.49734375 59.78196411 48.45416016 60.87444458 48.40966797 62.00003052 C48.30320666 64.70887928 48.20119218 67.41782357 48.10302734 70.12698364 C49.49521484 70.21979614 49.49521484 70.21979614 50.91552734 70.31448364 C54.10302734 71.12698364 54.10302734 71.12698364 55.78173828 73.33499146 C57.22233396 76.37908831 57.46472091 78.26723536 57.43115234 81.61135864 C57.42599609 82.62842896 57.42083984 83.64549927 57.41552734 84.69338989 C57.39490234 85.74397583 57.37427734 86.79456177 57.35302734 87.87698364 C57.34787109 88.94303833 57.34271484 90.00909302 57.33740234 91.10745239 C57.25724629 98.97276469 57.25724629 98.97276469 56.10302734 100.12698364 C54.46829853 100.21398706 52.82988679 100.23399427 51.19287109 100.22463989 C50.20351563 100.22141724 49.21416016 100.21819458 48.19482422 100.21487427 C47.15390625 100.20649536 46.11298828 100.19811646 45.04052734 100.18948364 C43.99574219 100.18497192 42.95095703 100.18046021 41.87451172 100.17581177 C39.28396075 100.16398277 36.69352176 100.14750054 34.10302734 100.12698364 C33.9869134 95.87721318 33.91580386 91.62785027 33.85302734 87.37698364 C33.81951172 86.17042114 33.78599609 84.96385864 33.75146484 83.72073364 C33.73857422 82.56057739 33.72568359 81.40042114 33.71240234 80.20510864 C33.69145508 79.1367981 33.67050781 78.06848755 33.64892578 76.96780396 C34.10302734 74.12698364 34.10302734 74.12698364 35.81494141 71.74710083 C38.4994703 69.84627563 39.88461485 69.76938225 43.10302734 70.12698364 C42.99348326 66.50134178 42.86277774 62.87676933 42.72802734 59.25198364 C42.69708984 58.21944458 42.66615234 57.18690552 42.63427734 56.12307739 C42.57626953 54.64387817 42.57626953 54.64387817 42.51708984 53.13479614 C42.48566895 52.22359009 42.45424805 51.31238403 42.421875 50.37356567 C42.30420223 47.92767178 42.30420223 47.92767178 40.10302734 46.12698364 C39.87597656 43.51321411 39.87597656 43.51321411 39.90771484 40.24417114 C39.91416016 39.07756958 39.92060547 37.91096802 39.92724609 36.70901489 C39.94400391 35.48569458 39.96076172 34.26237427 39.97802734 33.00198364 C39.98705078 31.77092896 39.99607422 30.53987427 40.00537109 29.27151489 C40.02900101 26.22325559 40.06487295 23.17509575 40.10302734 20.12698364 C33.17302734 20.12698364 26.24302734 20.12698364 19.10302734 20.12698364 C19.14254884 25.63167184 19.14254884 25.63167184 19.19311523 31.13626099 C19.21413845 36.90476142 19.21413845 36.90476142 18.10302734 39.12698364 C17.44302734 39.12698364 16.78302734 39.12698364 16.10302734 39.12698364 C16.10302734 44.73698364 16.10302734 50.34698364 16.10302734 56.12698364 C17.75302734 56.45698364 19.40302734 56.78698364 21.10302734 57.12698364 C24.82029939 59.41396264 27.55001858 62.0900922 29.60302734 65.93948364 C30.49263744 71.61074798 29.99659546 76.23261923 27.54052734 81.43948364 C23.81633455 85.54564493 20.20568857 87.84050945 14.60693359 88.35745239 C8.97050928 88.12581852 5.57854014 86.62932614 1.47802734 82.79495239 C-2.01935958 78.55238359 -2.27301154 74.95238639 -2.14697266 69.59573364 C-1.66686456 64.85466619 0.12131241 62.08286397 3.47802734 58.81448364 C6.15697453 57.09230331 8.01036955 56.64932217 11.10302734 56.12698364 C10.96283043 53.31409659 10.8161478 50.50181479 10.66552734 47.68948364 C10.62621094 46.88704224 10.58689453 46.08460083 10.54638672 45.25784302 C10.69759775 41.37458803 10.69759775 41.37458803 9.10302734 38.12698364 C9.0167086 36.78430951 8.99596261 35.43724042 9.00537109 34.09182739 C9.00859375 33.28294067 9.01181641 32.47405396 9.01513672 31.64065552 C9.02351562 30.7905188 9.03189453 29.94038208 9.04052734 29.06448364 C9.04503906 28.21047974 9.04955078 27.35647583 9.05419922 26.47659302 C9.06602361 24.36002701 9.08395966 22.24349679 9.10302734 20.12698364 C8.10400391 20.13858521 7.10498047 20.15018677 6.07568359 20.16213989 C4.78533203 20.17116333 3.49498047 20.18018677 2.16552734 20.18948364 C0.87775391 20.20108521 -0.41001953 20.21268677 -1.73681641 20.22463989 C-4.89697266 20.12698364 -4.89697266 20.12698364 -5.89697266 19.12698364 C-5.99534476 17.79654739 -6.02775858 16.4610502 -6.02978516 15.12698364 C-6.03107422 14.32260864 -6.03236328 13.51823364 -6.03369141 12.68948364 C-6.02982422 11.84385864 -6.02595703 10.99823364 -6.02197266 10.12698364 C-6.02583984 9.28135864 -6.02970703 8.43573364 -6.03369141 7.56448364 C-6.03240234 6.76010864 -6.03111328 5.95573364 -6.02978516 5.12698364 C-6.02865723 4.38448364 -6.0275293 3.64198364 -6.02636719 2.87698364 C-5.75122482 -0.84418716 -3.13127097 0.00127361 0 0 Z M72.10302734 56.12698364 C71.13974192 59.37903524 70.93834502 62.36584117 70.91552734 65.75198364 C70.90134766 66.71362427 70.88716797 67.67526489 70.87255859 68.66604614 C70.8556891 71.30504113 70.8556891 71.30504113 73.10302734 73.12698364 C74.07343157 67.19673561 73.99619004 62.06308031 73.10302734 56.12698364 C72.77302734 56.12698364 72.44302734 56.12698364 72.10302734 56.12698364 Z M66.10302734 57.12698364 C67.10302734 60.12698364 67.10302734 60.12698364 67.10302734 60.12698364 Z M78.10302734 58.12698364 C78.10302734 62.74698364 78.10302734 67.36698364 78.10302734 72.12698364 C81.2793966 69.60316019 81.2793966 69.60316019 81.24755859 67.18948364 C81.13798828 66.50885864 81.02841797 65.82823364 80.91552734 65.12698364 C80.81884766 64.44635864 80.72216797 63.76573364 80.62255859 63.06448364 C80.1328401 60.82473755 80.1328401 60.82473755 78.10302734 58.12698364 Z M65.10302734 60.12698364 C63.92949545 63.64757933 63.90156333 66.43347665 64.10302734 70.12698364 C64.76302734 70.78698364 65.42302734 71.44698364 66.10302734 72.12698364 C66.10302734 68.16698364 66.10302734 64.20698364 66.10302734 60.12698364 C65.77302734 60.12698364 65.44302734 60.12698364 65.10302734 60.12698364 Z " fill="#E1AC6C" transform="translate(5.89697265625,13.873016357421875)"/>
<path d="M0 0 C2.5 0.25 2.5 0.25 4.5 2.25 C5.73360987 9.52364309 5.59209294 17.07180347 5.625 24.4375 C5.63200928 25.55137085 5.63200928 25.55137085 5.63916016 26.68774414 C5.62313142 32.00373717 5.62313142 32.00373717 4.5 34.25 C3.84 34.25 3.18 34.25 2.5 34.25 C2.5 39.86 2.5 45.47 2.5 51.25 C4.15 51.58 5.8 51.91 7.5 52.25 C11.21727205 54.536979 13.94699123 57.21310856 16 61.0625 C16.88961009 66.73376433 16.39356812 71.35563559 13.9375 76.5625 C10.21330721 80.66866128 6.60266122 82.9635258 1.00390625 83.48046875 C-4.63251806 83.24883487 -8.0244872 81.7523425 -12.125 77.91796875 C-15.62238693 73.67539995 -15.87603889 70.07540275 -15.75 64.71875 C-15.2698919 59.97768255 -13.48171493 57.20588033 -10.125 53.9375 C-7.44605281 52.21531967 -5.5926578 51.77233852 -2.5 51.25 C-2.64019692 48.43711295 -2.78687955 45.62483115 -2.9375 42.8125 C-2.97681641 42.01005859 -3.01613281 41.20761719 -3.05664062 40.38085938 C-2.9054296 36.49760439 -2.9054296 36.49760439 -4.5 33.25 C-4.71832989 28.85001055 -4.68579146 24.44465188 -4.68530273 20.03979492 C-4.68748751 17.82516218 -4.70563531 15.61102877 -4.72460938 13.39648438 C-4.72754356 11.99479338 -4.72952819 10.5931 -4.73046875 9.19140625 C-4.73457764 7.90951416 -4.73868652 6.62762207 -4.74291992 5.30688477 C-4.44098792 1.50739668 -3.87475263 0.38747526 0 0 Z " fill="#888A8C" transform="translate(19.5,18.75)"/>
<path d="M0 0 C3 0.25 3 0.25 5 2.25 C5.17539436 5.19096737 5.23132375 8.03653349 5.1953125 10.9765625 C5.1924826 11.83937836 5.18965271 12.70219421 5.18673706 13.59115601 C5.17552333 16.3525772 5.15041684 19.1136765 5.125 21.875 C5.11497173 23.74478699 5.10584562 25.61457905 5.09765625 27.484375 C5.07558012 32.07304109 5.04104234 36.66146593 5 41.25 C4.34 41.25 3.68 41.25 3 41.25 C3 49.5 3 57.75 3 66.25 C6.63 66.25 10.26 66.25 14 66.25 C13.75239109 70.45935149 13.41897739 72.72627827 10.75 76.0625 C6.60181111 79.36219571 3.84119682 80.47928726 -1.4375 80.1875 C-6.29571909 79.52243495 -8.61094466 77.72378172 -12 74.25 C-13.35439668 71.54120665 -13.06501451 69.24066732 -13 66.25 C-9.37 66.25 -5.74 66.25 -2 66.25 C-2.1134549 62.29102118 -2.2402125 58.33325968 -2.375 54.375 C-2.4059375 53.24707031 -2.436875 52.11914062 -2.46875 50.95703125 C-2.50742188 49.88066406 -2.54609375 48.80429688 -2.5859375 47.6953125 C-2.6173584 46.70031738 -2.6487793 45.70532227 -2.68115234 44.68017578 C-2.77247083 42.07145483 -2.77247083 42.07145483 -5 40.25 C-5.19990227 37.40459858 -5.27976976 34.65862216 -5.265625 31.8125 C-5.26753845 30.97662354 -5.2694519 30.14074707 -5.27142334 29.27954102 C-5.27278536 27.51090189 -5.26908776 25.74225277 -5.26074219 23.97363281 C-5.25004275 21.26084006 -5.26063676 18.54870956 -5.2734375 15.8359375 C-5.27211591 14.1197902 -5.26955352 12.40364331 -5.265625 10.6875 C-5.26967346 9.87289307 -5.27372192 9.05828613 -5.27789307 8.21899414 C-5.21282049 0.43440171 -5.21282049 0.43440171 0 0 Z " fill="#9C9EA0" transform="translate(108,19.75)"/>
<path d="M0 0 C1.65 0 3.3 0 5 0 C5 7.26 5 14.52 5 22 C6.98 22.33 8.96 22.66 11 23 C13.8424092 26.40220965 14.37187332 29.12613701 14.328125 33.484375 C14.32296875 34.50144531 14.3178125 35.51851562 14.3125 36.56640625 C14.291875 37.61699219 14.27125 38.66757813 14.25 39.75 C14.24484375 40.81605469 14.2396875 41.88210937 14.234375 42.98046875 C14.15421895 50.84578105 14.15421895 50.84578105 13 52 C11.36527118 52.08700342 9.72685945 52.10701063 8.08984375 52.09765625 C7.10048828 52.09443359 6.11113281 52.09121094 5.09179688 52.08789062 C4.05087891 52.07951172 3.00996094 52.07113281 1.9375 52.0625 C0.89271484 52.05798828 -0.15207031 52.05347656 -1.22851562 52.04882812 C-3.8190666 52.03699913 -6.40950559 52.02051689 -9 52 C-9.11611395 47.75022954 -9.18722349 43.50086663 -9.25 39.25 C-9.28351562 38.0434375 -9.31703125 36.836875 -9.3515625 35.59375 C-9.36445312 34.43359375 -9.37734375 33.2734375 -9.390625 32.078125 C-9.41157227 31.00981445 -9.43251953 29.94150391 -9.45410156 28.84082031 C-9 26 -9 26 -7.28808594 23.62011719 C-5 22 -5 22 0 22 C0 14.74 0 7.48 0 0 Z " fill="#C3C4C6" transform="translate(49,62)"/>
<path d="M0 0 C3.3 0 6.6 0 10 0 C21.02369883 26.53853423 21.02369883 26.53853423 18 34 C15.54157283 37.85177907 13.38830411 40.53723196 9 42 C3.76496164 42.39509723 0.40071276 41.93380851 -4 39 C-7.60288503 35.01786392 -8.40577346 32.00161046 -8.30712891 26.67480469 C-7.69815809 21.37124012 -5.78585424 16.44211518 -4 11.4375 C-3.6184375 10.33341797 -3.236875 9.22933594 -2.84375 8.09179688 C-1.90805963 5.38999094 -0.95998277 2.69324953 0 0 Z M5 18 C4.03671457 21.25205159 3.83531767 24.23885752 3.8125 27.625 C3.79832031 28.58664063 3.78414062 29.54828125 3.76953125 30.5390625 C3.75266176 33.17805749 3.75266176 33.17805749 6 35 C6.97040422 29.06975197 6.89316269 23.93609666 6 18 C5.67 18 5.34 18 5 18 Z M-1 19 C0 22 0 22 0 22 Z M11 20 C11 24.62 11 29.24 11 34 C14.17636926 31.47617655 14.17636926 31.47617655 14.14453125 29.0625 C14.03496094 28.381875 13.92539063 27.70125 13.8125 27 C13.71582031 26.319375 13.61914062 25.63875 13.51953125 24.9375 C13.02981275 22.69775391 13.02981275 22.69775391 11 20 Z M-2 22 C-3.17353189 25.52059568 -3.20146402 28.306493 -3 32 C-2.34 32.66 -1.68 33.32 -1 34 C-1 30.04 -1 26.08 -1 22 C-1.33 22 -1.66 22 -2 22 Z " fill="#A7A9AC" transform="translate(73,52)"/>
<path d="M0 0 C4.20819271 2.9546885 7.17485041 5.41539649 8.609375 10.39453125 C9.42776538 15.72225261 8.98992331 19.69213037 6.2421875 24.36328125 C4.14105175 27.09979039 2.04419663 28.60425465 -1.0625 30.0625 C-4.64666072 29.89579485 -6.03354282 29.08180479 -9.0625 27.0625 C-9.0625 25.7425 -9.0625 24.4225 -9.0625 23.0625 C-10.0525 23.0625 -11.0425 23.0625 -12.0625 23.0625 C-12.18625 22.423125 -12.31 21.78375 -12.4375 21.125 C-12.64375 20.444375 -12.85 19.76375 -13.0625 19.0625 C-13.7225 18.7325 -14.3825 18.4025 -15.0625 18.0625 C-15.0625 16.0825 -15.0625 14.1025 -15.0625 12.0625 C-14.4025 11.7325 -13.7425 11.4025 -13.0625 11.0625 C-13.0625 9.7425 -13.0625 8.4225 -13.0625 7.0625 C-12.0725 6.7325 -11.0825 6.4025 -10.0625 6.0625 C-9.9078125 5.134375 -9.9078125 5.134375 -9.75 4.1875 C-9.0625 2.0625 -9.0625 2.0625 -6.375 0.125 C-3.0625 -0.9375 -3.0625 -0.9375 0 0 Z " fill="#9A9C9F" transform="translate(27.0625,70.9375)"/>
<path d="M0 0 C3 0.25 3 0.25 5 2.25 C5.17539436 5.19096737 5.23132375 8.03653349 5.1953125 10.9765625 C5.1924826 11.83937836 5.18965271 12.70219421 5.18673706 13.59115601 C5.17552333 16.3525772 5.15041684 19.1136765 5.125 21.875 C5.11497173 23.74478699 5.10584562 25.61457905 5.09765625 27.484375 C5.07558012 32.07304109 5.04104234 36.66146593 5 41.25 C2.23749964 42.63125018 0.05268901 42.44079306 -3 42.25 C-5.60305892 39.64694108 -5.24824978 37.82721461 -5.27789307 34.28100586 C-5.2738446 33.46639893 -5.26979614 32.65179199 -5.265625 31.8125 C-5.26753845 30.97662354 -5.2694519 30.14074707 -5.27142334 29.27954102 C-5.27278536 27.51090189 -5.26908776 25.74225277 -5.26074219 23.97363281 C-5.25004275 21.26084006 -5.26063676 18.54870956 -5.2734375 15.8359375 C-5.27211591 14.1197902 -5.26955352 12.40364331 -5.265625 10.6875 C-5.26967346 9.87289307 -5.27372192 9.05828613 -5.27789307 8.21899414 C-5.21282049 0.43440171 -5.21282049 0.43440171 0 0 Z " fill="#9ACE19" transform="translate(108,19.75)"/>
<path d="M0 0 C3 0.25 3 0.25 5 2.25 C5.19990227 5.09540142 5.27976976 7.84137784 5.265625 10.6875 C5.26753845 11.52337646 5.2694519 12.35925293 5.27142334 13.22045898 C5.27278536 14.98909811 5.26908776 16.75774723 5.26074219 18.52636719 C5.25004275 21.23915994 5.26063676 23.95129044 5.2734375 26.6640625 C5.27211591 28.3802098 5.26955352 30.09635669 5.265625 31.8125 C5.26967346 32.62710693 5.27372192 33.44171387 5.27789307 34.28100586 C5.22991928 40.02008072 5.22991928 40.02008072 3 42.25 C0 42.5 0 42.5 -3 42.25 C-5.60305892 39.64694108 -5.24824978 37.82721461 -5.27789307 34.28100586 C-5.2738446 33.46639893 -5.26979614 32.65179199 -5.265625 31.8125 C-5.26753845 30.97662354 -5.2694519 30.14074707 -5.27142334 29.27954102 C-5.27278536 27.51090189 -5.26908776 25.74225277 -5.26074219 23.97363281 C-5.25004275 21.26084006 -5.26063676 18.54870956 -5.2734375 15.8359375 C-5.27211591 14.1197902 -5.26955352 12.40364331 -5.265625 10.6875 C-5.26967346 9.87289307 -5.27372192 9.05828613 -5.27789307 8.21899414 C-5.21282049 0.43440171 -5.21282049 0.43440171 0 0 Z " fill="#E52936" transform="translate(51,19.75)"/>
<path d="M0 0 C1.65 0 3.3 0 5 0 C5.14567407 3.56206722 5.23419196 7.12336551 5.3125 10.6875 C5.3753418 12.19860352 5.3753418 12.19860352 5.43945312 13.74023438 C5.48624629 16.57589994 5.47456887 19.20243766 5 22 C3.7625 23.19109375 3.7625 23.19109375 2.5 24.40625 C-1.10664284 28.14814194 -0.51246108 31.28862304 -0.43945312 36.32617188 C-0.39755859 37.47666016 -0.35566406 38.62714844 -0.3125 39.8125 C-0.28994141 40.98232422 -0.26738281 42.15214844 -0.24414062 43.35742188 C-0.18532091 46.23958769 -0.10317141 49.11913681 0 52 C-2.97 52 -5.94 52 -9 52 C-9.11611395 47.75022954 -9.18722349 43.50086663 -9.25 39.25 C-9.28351562 38.0434375 -9.31703125 36.836875 -9.3515625 35.59375 C-9.36445312 34.43359375 -9.37734375 33.2734375 -9.390625 32.078125 C-9.41157227 31.00981445 -9.43251953 29.94150391 -9.45410156 28.84082031 C-9 26 -9 26 -7.28808594 23.62011719 C-5 22 -5 22 0 22 C0 14.74 0 7.48 0 0 Z " fill="#A8A9AC" transform="translate(49,62)"/>
<path d="M0 0 C2.875 0.75 2.875 0.75 3.875 1.75 C3.96290975 4.04151417 3.98194038 6.33572524 3.97265625 8.62890625 C3.9712413 9.3155687 3.96982635 10.00223114 3.96836853 10.70970154 C3.96275479 12.91067801 3.95020007 15.11155409 3.9375 17.3125 C3.93248676 18.80143083 3.92792355 20.29036324 3.92382812 21.77929688 C3.91278093 25.43623075 3.89550713 29.09310558 3.875 32.75 C1.11249964 34.13125018 -1.07231099 33.94079306 -4.125 33.75 C-7.48356966 30.39143034 -6.42215521 25.97535573 -6.44726562 21.41210938 C-6.44509033 20.73946045 -6.44291504 20.06681152 -6.44067383 19.3737793 C-6.43751696 17.32351386 -6.4609576 15.27469595 -6.48632812 13.22460938 C-6.48697266 11.93490234 -6.48761719 10.64519531 -6.48828125 9.31640625 C-6.49126221 8.12990479 -6.49424316 6.94340332 -6.49731445 5.72094727 C-6.125 2.75 -6.125 2.75 -4.79760742 0.82397461 C-3.125 -0.25 -3.125 -0.25 0 0 Z " fill="#FE6C09" transform="translate(79.125,19.25)"/>
<path d="M0 0 C2.5 0.25 2.5 0.25 4.5 2.25 C5.73360987 9.52364309 5.59209294 17.07180347 5.625 24.4375 C5.63200928 25.55137085 5.63200928 25.55137085 5.63916016 26.68774414 C5.62313142 32.00373717 5.62313142 32.00373717 4.5 34.25 C-1.65234375 34.34765625 -1.65234375 34.34765625 -3.5 34.25 C-5.97487711 31.77512289 -4.67337232 25.7091888 -4.68554688 22.24023438 C-4.68546631 21.51408936 -4.68538574 20.78794434 -4.68530273 20.03979492 C-4.68748751 17.82516218 -4.70563531 15.61102877 -4.72460938 13.39648438 C-4.72754356 11.99479338 -4.72952819 10.5931 -4.73046875 9.19140625 C-4.73457764 7.90951416 -4.73868652 6.62762207 -4.74291992 5.30688477 C-4.44098792 1.50739668 -3.87475263 0.38747526 0 0 Z " fill="#5783CB" transform="translate(19.5,18.75)"/>
<path d="M0 0 C1.65322266 0.01740234 1.65322266 0.01740234 3.33984375 0.03515625 C4.99693359 0.04869141 4.99693359 0.04869141 6.6875 0.0625 C7.54214844 0.07410156 8.39679687 0.08570313 9.27734375 0.09765625 C9.19355469 0.87109375 9.10976562 1.64453125 9.0234375 2.44140625 C8.42504519 8.56167189 8.22799797 14.03476955 9.27734375 20.09765625 C7.29824977 20.12452178 5.31905404 20.14399 3.33984375 20.16015625 C2.23769531 20.17175781 1.13554687 20.18335937 0 20.1953125 C-2.72265625 20.09765625 -2.72265625 20.09765625 -3.72265625 19.09765625 C-3.82102835 17.76722 -3.85344217 16.43172281 -3.85546875 15.09765625 C-3.85675781 14.29328125 -3.85804687 13.48890625 -3.859375 12.66015625 C-3.85550781 11.81453125 -3.85164062 10.96890625 -3.84765625 10.09765625 C-3.85152344 9.25203125 -3.85539063 8.40640625 -3.859375 7.53515625 C-3.85808594 6.73078125 -3.85679688 5.92640625 -3.85546875 5.09765625 C-3.85434082 4.35515625 -3.85321289 3.61265625 -3.85205078 2.84765625 C-3.63373968 -0.10489842 -2.97526092 0.10671668 0 0 Z " fill="#B87D50" transform="translate(3.72265625,13.90234375)"/>
<path d="M0 0 C2.125 0.375 2.125 0.375 4 1 C3.34 1.66 2.68 2.32 2 3 C1.7499227 5.54190002 1.7499227 5.54190002 2 8 C2.33 8.33 2.66 8.66 3 9 C3.13442243 11.2670315 3.20367233 13.53797673 3.24609375 15.80859375 C3.27902906 17.2089907 3.31224076 18.60938117 3.34570312 20.00976562 C3.39316634 22.22627336 3.43759295 24.4427542 3.47680664 26.65942383 C3.51644917 28.79276144 3.56800959 30.92555431 3.62109375 33.05859375 C3.6461499 34.34048584 3.67120605 35.62237793 3.69702148 36.94311523 C3.68447224 40.10708353 3.68447224 40.10708353 6 42 C3.125 42.125 3.125 42.125 0 42 C-2.60305892 39.39694108 -2.24824978 37.57721461 -2.27789307 34.03100586 C-2.2738446 33.21639893 -2.26979614 32.40179199 -2.265625 31.5625 C-2.26753845 30.72662354 -2.2694519 29.89074707 -2.27142334 29.02954102 C-2.27278536 27.26090189 -2.26908776 25.49225277 -2.26074219 23.72363281 C-2.25004275 21.01084006 -2.26063676 18.29870956 -2.2734375 15.5859375 C-2.27211591 13.8697902 -2.26955352 12.15364331 -2.265625 10.4375 C-2.26967346 9.62289307 -2.27372192 8.80828613 -2.27789307 7.96899414 C-2.22991928 2.22991928 -2.22991928 2.22991928 0 0 Z " fill="#87AF08" transform="translate(105,20)"/>
<path d="M0 0 C2.125 0.375 2.125 0.375 4 1 C3.34 1.66 2.68 2.32 2 3 C1.7499227 5.54190002 1.7499227 5.54190002 2 8 C2.33 8.33 2.66 8.66 3 9 C3.13442243 11.2670315 3.20367233 13.53797673 3.24609375 15.80859375 C3.27902906 17.2089907 3.31224076 18.60938117 3.34570312 20.00976562 C3.39316634 22.22627336 3.43759295 24.4427542 3.47680664 26.65942383 C3.51644917 28.79276144 3.56800959 30.92555431 3.62109375 33.05859375 C3.6461499 34.34048584 3.67120605 35.62237793 3.69702148 36.94311523 C3.68447224 40.10708353 3.68447224 40.10708353 6 42 C3.125 42.125 3.125 42.125 0 42 C-2.60305892 39.39694108 -2.24824978 37.57721461 -2.27789307 34.03100586 C-2.2738446 33.21639893 -2.26979614 32.40179199 -2.265625 31.5625 C-2.26753845 30.72662354 -2.2694519 29.89074707 -2.27142334 29.02954102 C-2.27278536 27.26090189 -2.26908776 25.49225277 -2.26074219 23.72363281 C-2.25004275 21.01084006 -2.26063676 18.29870956 -2.2734375 15.5859375 C-2.27211591 13.8697902 -2.26955352 12.15364331 -2.265625 10.4375 C-2.26967346 9.62289307 -2.27372192 8.80828613 -2.27789307 7.96899414 C-2.22991928 2.22991928 -2.22991928 2.22991928 0 0 Z " fill="#B71727" transform="translate(48,20)"/>
<path d="M0 0 C1.32 0.66 2.64 1.32 4 2 C4 12.23 4 22.46 4 33 C2.02 33.495 2.02 33.495 0 34 C-1.68516954 32.31483046 -1.13008019 30.21232212 -1.1328125 27.90625 C-1.13474609 26.36130859 -1.13474609 26.36130859 -1.13671875 24.78515625 C-1.13285156 23.70105469 -1.12898438 22.61695312 -1.125 21.5 C-1.12886719 20.41589844 -1.13273437 19.33179687 -1.13671875 18.21484375 C-1.13542969 17.18488281 -1.13414063 16.15492187 -1.1328125 15.09375 C-1.13168457 14.14177734 -1.13055664 13.18980469 -1.12939453 12.20898438 C-1 10 -1 10 0 9 C0.19149081 5.36805359 0.19149081 5.36805359 -1 2 C-0.67 1.34 -0.34 0.68 0 0 Z " fill="#FE812C" transform="translate(79,19)"/>
<path d="M0 0 C2.125 0.375 2.125 0.375 4 1 C3.01 2.485 3.01 2.485 2 4 C1.79925409 6.97677475 1.79925409 6.97677475 1.98828125 10.34765625 C2.03533203 11.59224609 2.08238281 12.83683594 2.13085938 14.11914062 C2.19080078 15.42044922 2.25074219 16.72175781 2.3125 18.0625 C2.36083984 19.36767578 2.40917969 20.67285156 2.45898438 22.01757812 C2.39806756 28.19529923 2.39806756 28.19529923 4 34 C2.33388095 34.042721 0.66617115 34.04063832 -1 34 C-3.47487711 31.52512289 -2.17337232 25.4591888 -2.18554688 21.99023438 C-2.18546631 21.26408936 -2.18538574 20.53794434 -2.18530273 19.78979492 C-2.18748751 17.57516218 -2.20563531 15.36102877 -2.22460938 13.14648438 C-2.22754356 11.74479338 -2.22952819 10.3431 -2.23046875 8.94140625 C-2.23457764 7.65951416 -2.23868652 6.37762207 -2.24291992 5.05688477 C-2 2 -2 2 0 0 Z " fill="#2F6BAD" transform="translate(17,19)"/>
<path d="M0 0 C1.65 0 3.3 0 5 0 C5 7.92 5 15.84 5 24 C3.35 24 1.7 24 0 24 C0 16.08 0 8.16 0 0 Z " fill="#6D6E71" transform="translate(106,62)"/>
<path d="M0 0 C1.65 0 3.3 0 5 0 C6.5220959 1.5220959 6.12959521 2.88210082 6.1328125 5 C6.13410156 5.804375 6.13539063 6.60875 6.13671875 7.4375 C6.13285156 8.283125 6.12898437 9.12875 6.125 10 C6.12886719 10.845625 6.13273438 11.69125 6.13671875 12.5625 C6.13542969 13.366875 6.13414062 14.17125 6.1328125 15 C6.13168457 15.7425 6.13055664 16.485 6.12939453 17.25 C6 19 6 19 5 20 C3.35 20 1.7 20 0 20 C0 13.4 0 6.8 0 0 Z " fill="#83481F" transform="translate(122,14)"/>
<path d="M0 0 C1.65 0 3.3 0 5 0 C5 6.6 5 13.2 5 20 C3.35 20 1.7 20 0 20 C-1.5220959 18.4779041 -1.12959521 17.11789918 -1.1328125 15 C-1.13410156 14.195625 -1.13539062 13.39125 -1.13671875 12.5625 C-1.13285156 11.716875 -1.12898437 10.87125 -1.125 10 C-1.12886719 9.154375 -1.13273438 8.30875 -1.13671875 7.4375 C-1.13542969 6.633125 -1.13414063 5.82875 -1.1328125 5 C-1.13168457 4.2575 -1.13055664 3.515 -1.12939453 2.75 C-1 1 -1 1 0 0 Z " fill="#83481F" transform="translate(1,14)"/>
<path d="M0 0 C1.65 0 3.3 0 5 0 C5 7.26 5 14.52 5 22 C3.35 22 1.7 22 0 22 C0 14.74 0 7.48 0 0 Z " fill="#6C6D72" transform="translate(49,62)"/>
<path d="M0 0 C1.65 0 3.3 0 5 0 C5 5.61 5 11.22 5 17 C3.35 17 1.7 17 0 17 C0 11.39 0 5.78 0 0 Z " fill="#6C6D71" transform="translate(17,53)"/>
<path d="M0 0 C0.99 0.33 1.98 0.66 3 1 C3 5.95 3 10.9 3 16 C1.68 16 0.36 16 -1 16 C-1.02685095 13.52076199 -1.04676547 11.0418116 -1.0625 8.5625 C-1.07506836 7.50192383 -1.07506836 7.50192383 -1.08789062 6.41992188 C-1.09653588 4.61306441 -1.05220011 2.80612397 -1 1 C-0.67 0.67 -0.34 0.34 0 0 Z " fill="#8E9092" transform="translate(50,92)"/>
<path d="M0 0 C0.99 0.33 1.98 0.66 3 1 C3 5.95 3 10.9 3 16 C1.68 16 0.36 16 -1 16 C-1.02685095 13.52076199 -1.04676547 11.0418116 -1.0625 8.5625 C-1.07506836 7.50192383 -1.07506836 7.50192383 -1.08789062 6.41992188 C-1.09653588 4.61306441 -1.05220011 2.80612397 -1 1 C-0.67 0.67 -0.34 0.34 0 0 Z " fill="#8C8E90" transform="translate(45,92)"/>
<path d="M0 0 C0.99 0 1.98 0 3 0 C3 5.61 3 11.22 3 17 C2.01 17 1.02 17 0 17 C0 11.39 0 5.78 0 0 Z " fill="#8C8D8F" transform="translate(55,92)"/>
<path d="M0 0 C1.32 0.66 2.64 1.32 4 2 C4 5.96 4 9.92 4 14 C3.67 14 3.34 14 3 14 C2.67 11.69 2.34 9.38 2 7 C0.02 7.99 0.02 7.99 -2 9 C-3 8 -3 8 -3.25 5.625 C-3 3 -3 3 -1.5 1.1875 C-1.005 0.795625 -0.51 0.40375 0 0 Z " fill="#E53238" transform="translate(52,20)"/>
<path d="M0 0 C0.99 0.33 1.98 0.66 3 1 C3 2.65 3 4.3 3 6 C1.68 6 0.36 6 -1 6 C-1.042721 4.33388095 -1.04063832 2.66617115 -1 1 C-0.67 0.67 -0.34 0.34 0 0 Z " fill="#F49001" transform="translate(77,22)"/>
<path d="M0 0 C0.99 0.33 1.98 0.66 3 1 C3 2.65 3 4.3 3 6 C1.68 6 0.36 6 -1 6 C-1.042721 4.33388095 -1.04063832 2.66617115 -1 1 C-0.67 0.67 -0.34 0.34 0 0 Z " fill="#0CA3F7" transform="translate(19,22)"/>
<path d="M0 0 C1.32 0 2.64 0 4 0 C4 1.98 4 3.96 4 6 C2.68 5.67 1.36 5.34 0 5 C0 3.35 0 1.7 0 0 Z " fill="#D9D646" transform="translate(106,23)"/>
<path d="M0 0 C1.32 0 2.64 0 4 0 C4 1.65 4 3.3 4 5 C2.68 5 1.36 5 0 5 C0 3.35 0 1.7 0 0 Z " fill="#F8762B" transform="translate(49,23)"/>
</svg>
