<?xml version="1.0" encoding="UTF-8"?>
<svg version="1.1" xmlns="http://www.w3.org/2000/svg" width="128" height="128">
<path d="M0 0 C2.23046875 2.421875 2.23046875 2.421875 4 5 C5.2684375 5.99 5.2684375 5.99 6.5625 7 C9.22324725 9.18317723 10.43884519 10.94865197 12 14 C12.598125 15.093125 13.19625 16.18625 13.8125 17.3125 C15.26799603 21.83219821 14.99461141 24.72170307 13 29 C11 31 11 31 9 32 C8.34 32 7.68 32 7 32 C6.34 34.31 5.68 36.62 5 39 C6.65 39.66 8.3 40.32 10 41 C12.88474051 37.42103996 12.88474051 37.42103996 15.5625 33.6875 C16.036875 33.130625 16.51125 32.57375 17 32 C17.99 32 18.98 32 20 32 C21.45397676 35.63494189 22.00636895 37.92102506 21.6875 41.875 C21.53763672 45.78643155 22.83133027 47.400164 25.4375 50.25 C26.07558594 50.87390625 26.71367188 51.4978125 27.37109375 52.140625 C29.11901153 54.1358501 29.69260092 55.38431325 30 58 C29.67 58.33 29.34 58.66 29 59 C27.37146465 58.93579251 25.74550788 58.7987936 24.125 58.625 C22.79855469 58.48964844 22.79855469 58.48964844 21.4453125 58.3515625 C19 58 19 58 16 57 C15.505 61.95 15.505 61.95 15 67 C16.32 67 17.64 67 19 67 C19.495 71.455 19.495 71.455 20 76 C18.515 76.495 18.515 76.495 17 77 C17 78.32 17 79.64 17 81 C15.02 80.67 13.04 80.34 11 80 C10.814375 80.61875 10.62875 81.2375 10.4375 81.875 C8.74801913 84.37249346 7.20003357 85.36356626 4.26171875 86.078125 C-2.01899761 85.86117452 -8.37285064 81.36849377 -13.1875 77.5625 C-17.34534503 75.2525861 -20.56436802 75.93160691 -25 77 C-27.84340543 77.82147636 -30.67101923 78.69284582 -33.5 79.5625 C-39.50411164 81.4009986 -44.67132664 82.96539085 -51 82 C-53.5625 80.4375 -53.5625 80.4375 -55 78 C-55.33094958 74.22717474 -55.19754817 71.59264452 -54 68 C-55.18801734 66.60832255 -56.37910067 65.21913946 -57.5859375 63.84375 C-63.22449977 56.49181246 -63.98246457 47.97397512 -63 39 C-61.39826981 34.19480944 -59.19350109 31.79566739 -55 29 C-52.1875 27.75 -52.1875 27.75 -50 27 C-50.66 26.113125 -51.32 25.22625 -52 24.3125 C-53.98420124 21.0261667 -54.53055241 19.71386688 -54 16 C-52.34346314 14.34346314 -50.39349204 14.82893835 -48.125 14.8125 C-47.24070312 14.79832031 -46.35640625 14.78414062 -45.4453125 14.76953125 C-43 15 -43 15 -40 17 C-40 17.66 -40 18.32 -40 19 C-39.4225 18.484375 -38.845 17.96875 -38.25 17.4375 C-36 16 -36 16 -33.75 16.3125 C-33.1725 16.539375 -32.595 16.76625 -32 17 C-32.3125 18.9375 -32.3125 18.9375 -33 21 C-33.99 21.33 -34.98 21.66 -36 22 C-37.22969878 25.51190809 -37.22969878 25.51190809 -38 29 C-34.535 28.505 -34.535 28.505 -31 28 C-30.96261719 27.33613281 -30.92523438 26.67226563 -30.88671875 25.98828125 C-30.19124687 16.64713928 -30.19124687 16.64713928 -27 13 C-25.33607955 12.32650839 -23.66967972 11.6590841 -22 11 C-21.85304687 10.39800781 -21.70609375 9.79601562 -21.5546875 9.17578125 C-20.63701067 5.57616158 -18.3742899 3.77476543 -15.59375 1.4375 C-10.77581509 -1.23268079 -5.28447703 -1.31412921 0 0 Z M-5 40 C-5.99 40.495 -5.99 40.495 -7 41 C-7 41.66 -7 42.32 -7 43 C-5.35 42.34 -3.7 41.68 -2 41 C-2.99 40.67 -3.98 40.34 -5 40 Z " fill="#050501" transform="translate(90,0)"/>
<path d="M0 0 C0.74886475 0.00523682 1.49772949 0.01047363 2.26928711 0.01586914 C3.07817383 0.0190918 3.88706055 0.02231445 4.72045898 0.02563477 C5.5705957 0.03401367 6.42073242 0.04239258 7.29663086 0.05102539 C8.15063477 0.05553711 9.00463867 0.06004883 9.88452148 0.06469727 C12.00108749 0.07652166 14.11761771 0.0944577 16.23413086 0.11352539 C16.23413086 2.09352539 16.23413086 4.07352539 16.23413086 6.11352539 C16.81678711 6.09032227 17.39944336 6.06711914 17.99975586 6.04321289 C26.64102209 5.85299634 35.06159402 6.52049245 42.98413086 10.17602539 C48.15677596 12.45906582 53.1248844 12.660077 58.7019043 12.78564453 C65.62558515 12.97476516 65.62558515 12.97476516 68.23413086 15.11352539 C69.48413086 18.23852539 69.48413086 18.23852539 70.23413086 21.11352539 C71.38010742 20.66879883 72.52608398 20.22407227 73.70678711 19.76586914 C75.23642583 19.19342766 76.76639143 18.62185912 78.29663086 18.05102539 C79.04879883 17.75647461 79.8009668 17.46192383 80.57592773 17.15844727 C85.50225248 15.34573037 88.99801678 14.72516181 94.23413086 16.11352539 C97.12770213 18.71032012 98.09502994 20.27891986 98.73413086 24.11352539 C98.08731033 27.99444854 97.0113065 29.31059541 94.23413086 32.11352539 C91.36515017 33.68586804 88.36369597 34.79948068 85.29663086 35.92602539 C83.49192092 36.6095599 81.68723417 37.29315564 79.88256836 37.97680664 C78.95154297 38.32437012 78.02051758 38.67193359 77.0612793 39.0300293 C74.27164482 40.09914828 71.52313554 41.23947691 68.77319336 42.40649414 C47.34387335 51.36604086 47.34387335 51.36604086 36.2565918 47.4074707 C32.95530715 46.02756866 29.81207624 44.45224919 26.67163086 42.74243164 C22.95334475 40.98047107 20.2845738 40.48033846 16.23413086 40.11352539 C16.25475586 41.08290039 16.27538086 42.05227539 16.29663086 43.05102539 C16.23413086 46.11352539 16.23413086 46.11352539 15.23413086 47.11352539 C12.39078038 47.21339514 9.57715923 47.2523042 6.73413086 47.23852539 C5.93620117 47.24239258 5.13827148 47.24625977 4.31616211 47.25024414 C-1.63926147 47.24013306 -1.63926147 47.24013306 -2.76586914 46.11352539 C-2.86391765 44.70677319 -2.893851 43.29517403 -2.89526367 41.88500977 C-2.89841583 40.98737915 -2.90156799 40.08974854 -2.90481567 39.16491699 C-2.90279144 38.18889526 -2.90076721 37.21287354 -2.89868164 36.20727539 C-2.89963837 35.21223999 -2.90059509 34.21720459 -2.90158081 33.1920166 C-2.90226274 31.08365821 -2.90040758 28.97529774 -2.89624023 26.86694336 C-2.89089217 23.62747512 -2.89618481 20.38814554 -2.90258789 17.14868164 C-2.90192711 15.10571258 -2.90064595 13.06274361 -2.89868164 11.01977539 C-2.90070587 10.04375366 -2.9027301 9.06773193 -2.90481567 8.06213379 C-2.90166351 7.16450317 -2.89851135 6.26687256 -2.89526367 5.34204102 C-2.89446808 4.54785767 -2.89367249 3.75367432 -2.89285278 2.9354248 C-2.72266307 0.4936258 -2.44741325 0.15734096 0 0 Z " fill="#070605" transform="translate(10.765869140625,79.886474609375)"/>
<path d="M0 0 C17.83626761 -0.6756162 17.83626761 -0.6756162 26.84375 3.828125 C31.59209636 5.59112489 36.27457696 5.64405737 41.30297852 5.72241211 C45.07475306 5.79276962 46.77674061 5.8511604 50 8 C49.625 10.9375 49.625 10.9375 49 14 C46.49502996 15.25248502 44.79146726 15.11374406 41.9921875 15.09765625 C41.00605469 15.09443359 40.01992187 15.09121094 39.00390625 15.08789062 C37.97136719 15.07951172 36.93882813 15.07113281 35.875 15.0625 C34.31458984 15.05573242 34.31458984 15.05573242 32.72265625 15.04882812 C30.14838038 15.03701952 27.57421854 15.02055075 25 15 C25 15.99 25 16.98 25 18 C28.83440637 17.94769624 32.6666335 17.85252027 36.5 17.75 C37.57765625 17.73582031 38.6553125 17.72164062 39.765625 17.70703125 C46.61477973 17.49821556 51.12768769 16.4152511 57 13 C59.37684186 12.01534453 61.77257678 11.07466935 64.1875 10.1875 C65.35667969 9.74792969 66.52585937 9.30835937 67.73046875 8.85546875 C71.06982551 7.98173024 72.77050984 7.88143769 76 9 C76.99 9.99 76.99 9.99 78 11 C77.9375 13.4375 77.9375 13.4375 77 16 C73.12239173 18.72608162 68.82615377 20.39372766 64.43359375 22.1015625 C63.35973167 22.5244606 63.35973167 22.5244606 62.26417542 22.9559021 C60.75808765 23.54792441 59.25114742 24.13778218 57.7434082 24.72558594 C55.43944546 25.62424118 53.13850518 26.53031218 50.83789062 27.4375 C49.36996396 28.01346015 47.90187058 28.5889956 46.43359375 29.1640625 C45.4053373 29.56874252 45.4053373 29.56874252 44.35630798 29.9815979 C35.81563382 33.30259662 26.83368495 35.24143157 18.05859375 31.47265625 C16.10391725 30.5581203 14.19146612 29.59815138 12.28979492 28.578125 C7.81749371 26.19583878 5.37724338 25.76817763 0 25 C0 16.75 0 8.5 0 0 Z " fill="#F4B576" transform="translate(27,91)"/>
<path d="M0 0 C1.11503906 -0.0103125 2.23007812 -0.020625 3.37890625 -0.03125 C12.42294409 0.09810453 12.42294409 0.09810453 16.21875 3.046875 C19.26642139 6.65815686 19.26642139 6.65815686 19.5 9.75 C19.59023437 10.47058594 19.68046875 11.19117188 19.7734375 11.93359375 C19.82371094 13.04927734 19.82371094 13.04927734 19.875 14.1875 C19.92398438 14.92871094 19.97296875 15.66992188 20.0234375 16.43359375 C19.23520202 19.92182985 17.25843742 21.6721612 14.5 23.75 C11.08941775 25.8891282 7.57066503 27.76845064 4 29.625 C3.06285156 30.13546875 2.12570313 30.6459375 1.16015625 31.171875 C0.25136719 31.64882813 -0.65742187 32.12578125 -1.59375 32.6171875 C-2.41552734 33.05144043 -3.23730469 33.48569336 -4.08398438 33.93310547 C-6.99733987 34.91815877 -8.59713397 34.68334066 -11.5 33.75 C-17.4853751 27.26971017 -18.71004207 19.31445165 -19.15625 10.84765625 C-16.92103564 0.29691228 -9.5148048 -0.30799368 0 0 Z " fill="#F74253" transform="translate(49.5,31.25)"/>
<path d="M0 0 C3.3 0 6.6 0 10 0 C10.66 1.32 11.32 2.64 12 4 C12.845625 4.495 13.69125 4.99 14.5625 5.5 C17 7 17 7 17.5625 9 C17.706875 9.66 17.85125 10.32 18 11 C18.680625 11.4125 19.36125 11.825 20.0625 12.25 C22 14 22 14 22.40234375 15.859375 C22.56410189 19.40511342 22.629491 21.30538924 20.1875 24 C18 25 18 25 15 25 C15 26.65 15 28.3 15 30 C13.96875 30.268125 12.9375 30.53625 11.875 30.8125 C6.69287432 32.34627981 6.69287432 32.34627981 2 35 C1.0661778 37.29863927 0.4475948 39.51484313 -0.06640625 41.94140625 C-1 44 -1 44 -3.58984375 45.27734375 C-4.38519531 45.51582031 -5.18054688 45.75429688 -6 46 C-6.03867188 44.80503906 -6.03867188 44.80503906 -6.078125 43.5859375 C-6.53181449 35.09142717 -6.53181449 35.09142717 -11 28 C-13.10575643 26.16699091 -13.10575643 26.16699091 -15 25 C-13.40909091 13.40909091 -13.40909091 13.40909091 -11 11 C-8.375 10.875 -8.375 10.875 -6 11 C-6.103125 10.236875 -6.20625 9.47375 -6.3125 8.6875 C-6.209375 7.800625 -6.10625 6.91375 -6 6 C-3.5625 4.375 -3.5625 4.375 -1 3 C-0.67 2.01 -0.34 1.02 0 0 Z " fill="#2CB44E" transform="translate(78,4)"/>
<path d="M0 0 C3.57932972 2.91320136 4.785646 6.66543088 6 11 C6.1875 14 6.1875 14 6 16 C4.70578125 15.81953125 3.4115625 15.6390625 2.078125 15.453125 C-2.81703858 14.91262534 -7.37355396 15.17143861 -12.25 15.75 C-13.02601562 15.82476562 -13.80203125 15.89953125 -14.6015625 15.9765625 C-19.01838075 16.47401985 -22.46400361 17.08435385 -26 20 C-26.89592083 23.59919423 -26.89592083 23.59919423 -27 27 C-28.98 27.33 -30.96 27.66 -33 28 C-33.33 27.34 -33.66 26.68 -34 26 C-34.99 25.67 -35.98 25.34 -37 25 C-36.67 26.65 -36.34 28.3 -36 30 C-38.20528272 30.67668949 -40.41438609 31.34093498 -42.625 32 C-43.85476562 32.37125 -45.08453125 32.7425 -46.3515625 33.125 C-49.75241437 33.94062186 -52.52412999 34.25051315 -56 34 C-57 33 -57 33 -57.5625 30.75 C-57 28 -57 28 -53.9375 25.6875 C-52.30211016 24.77274058 -50.65397186 23.88071665 -49 23 C-47.74387702 22.29198485 -46.48874265 21.58221412 -45.234375 20.87109375 C-43.88634033 20.12073405 -42.53737389 19.37204594 -41.1875 18.625 C-40.52935303 18.25463623 -39.87120605 17.88427246 -39.19311523 17.50268555 C-37.50233178 16.58962338 -35.7533702 15.7862087 -34 15 C-31.00667261 15.9977758 -30.05233685 16.7522025 -28 19 C-28.33 16.69 -28.66 14.38 -29 12 C-26.9021477 10.79994469 -24.7979751 9.61497017 -22.6875 8.4375 C-22.09259766 8.09525391 -21.49769531 7.75300781 -20.88476562 7.40039062 C-19.29717441 6.52233738 -17.65006069 5.75413732 -16 5 C-13 6 -13 6 -11.9375 8 C-11.628125 8.66 -11.31875 9.32 -11 10 C-10.34 10.33 -9.68 10.66 -9 11 C-9.66 8.36 -10.32 5.72 -11 3 C-7.20734952 0.32283496 -4.64933486 -0.60643498 0 0 Z " fill="#F6A501" transform="translate(96,44)"/>
<path d="M0 0 C3.63 0 7.26 0 11 0 C11 12.87 11 25.74 11 39 C7.37 39 3.74 39 0 39 C0 26.13 0 13.26 0 0 Z " fill="#69A7FF" transform="translate(12,84)"/>
<path d="M0 0 C2 2 2 2 2.3125 5.0625 C1.9698432 9.3799757 1.24401551 15.75598449 -2 19 C-7.98234351 19.86248511 -11.47827006 17.29741386 -16.25 14.125 C-17.32894531 13.43470703 -17.32894531 13.43470703 -18.4296875 12.73046875 C-21.18674829 10.94922161 -23.67255013 9.32744987 -26 7 C-25.9375 5 -25.9375 5 -25 3 C-18.31045098 -0.97191973 -7.50837744 -0.75725516 0 0 Z " fill="#DF3C4B" transform="translate(98,62)"/>
<path d="M0 0 C0.33 0 0.66 0 1 0 C1 11.88 1 23.76 1 36 C3.31 36 5.62 36 8 36 C8 24.12 8 12.24 8 0 C8.99 0 9.98 0 11 0 C11 12.87 11 25.74 11 39 C7.37 39 3.74 39 0 39 C0 26.13 0 13.26 0 0 Z " fill="#4E8BE2" transform="translate(12,84)"/>
<path d="M0 0 C1.79133978 -0.05391993 3.58313899 -0.09275571 5.375 -0.125 C6.37273437 -0.14820313 7.37046875 -0.17140625 8.3984375 -0.1953125 C11 0 11 0 13 2 C13.55750309 7.46353028 12.77046883 13.18269226 10 18 C8.015625 18.8828125 8.015625 18.8828125 6 19 C5.34 18.34 4.68 17.68 4 17 C4.31229724 15.66158328 4.64830932 14.32860925 5 13 C4.62092718 10.81296615 4.62092718 10.81296615 4 9 C5.32 8.34 6.64 7.68 8 7 C8 6.01 8 5.02 8 4 C6.68 4 5.36 4 4 4 C4 3.01 4 2.02 4 1 C2.68 0.67 1.36 0.34 0 0 Z " fill="#B3303C" transform="translate(87,62)"/>
<path d="M0 0 C2 4.75 2 4.75 2 7 C2.99 8.485 2.99 8.485 4 10 C4.99 10 5.98 10 7 10 C7 10.99 7 11.98 7 13 C6.01 13 5.02 13 4 13 C3.67 13.66 3.34 14.32 3 15 C1.2063257 13.8782037 -0.5848773 12.75245517 -2.375 11.625 C-3.37273437 10.99851562 -4.37046875 10.37203125 -5.3984375 9.7265625 C-8 8 -8 8 -10 6 C-9.9375 4 -9.9375 4 -9 2 C-5.70173093 0.21715186 -3.8225249 0 0 0 Z " fill="#A32C37" transform="translate(82,63)"/>
<path d="M0 0 C0.33 0 0.66 0 1 0 C1.08004482 3.5219721 1.04005702 6.61981469 0 10 C0.804375 10.45375 1.60875 10.9075 2.4375 11.375 C5 13 5 13 6 15 C3.03 14.67 0.06 14.34 -3 14 C-5.04220779 9.67532468 -5.04220779 9.67532468 -4.875 7 C-3.67616359 4.2598025 -1.97832562 2.22561633 0 0 Z " fill="#29A849" transform="translate(107,39)"/>
<path d="M0 0 C1.79133978 -0.05391993 3.58313899 -0.09275571 5.375 -0.125 C6.37273437 -0.14820313 7.37046875 -0.17140625 8.3984375 -0.1953125 C11 0 11 0 13 2 C13.125 5.625 13.125 5.625 13 9 C10.525 8.01 10.525 8.01 8 7 C8 6.01 8 5.02 8 4 C6.68 4 5.36 4 4 4 C4 3.01 4 2.02 4 1 C2.68 0.67 1.36 0.34 0 0 Z " fill="#9D2A35" transform="translate(87,62)"/>
<path d="M0 0 C1.98 0 3.96 0 6 0 C6.66 1.65 7.32 3.3 8 5 C5.6875 5.3125 5.6875 5.3125 3 5 C1.1875 2.5 1.1875 2.5 0 0 Z " fill="#28A147" transform="translate(40,19)"/>
<path d="M0 0 C1.79453113 3.58906225 2.29343623 4.80693713 2.3125 8.5625 C2.33763672 9.70912109 2.33763672 9.70912109 2.36328125 10.87890625 C2 13 2 13 -1 16 C-0.67 10.72 -0.34 5.44 0 0 Z " fill="#DA2C3E" transform="translate(67,37)"/>
<path d="M0 0 C8.57142857 -0.28571429 8.57142857 -0.28571429 12 2 C12 2.66 12 3.32 12 4 C6.06 3.01 6.06 3.01 0 2 C0 1.34 0 0.68 0 0 Z " fill="#DA9A5A" transform="translate(27,114)"/>
<path d="M0 0 C0.66 0.66 1.32 1.32 2 2 C2.99 2 3.98 2 5 2 C5 2.99 5 3.98 5 5 C4.01 5 3.02 5 2 5 C1.67 5.66 1.34 6.32 1 7 C-0.5 5.625 -0.5 5.625 -2 4 C-2 3.34 -2 2.68 -2 2 C-1.34 2 -0.68 2 0 2 C0 1.34 0 0.68 0 0 Z " fill="#8E2630" transform="translate(84,71)"/>
<path d="M0 0 C0.66 0.33 1.32 0.66 2 1 C1.67 2.32 1.34 3.64 1 5 C1.66 5.33 2.32 5.66 3 6 C2.01 6.33 1.02 6.66 0 7 C-0.66 6.34 -1.32 5.68 -2 5 C-1.46428571 1.46428571 -1.46428571 1.46428571 0 0 Z " fill="#CB3744" transform="translate(74,64)"/>
</svg>
