<?xml version="1.0" encoding="UTF-8"?>
<svg version="1.1" xmlns="http://www.w3.org/2000/svg" width="512" height="512">
<path d="M0 0 C1.1334938 -0.00101212 1.1334938 -0.00101212 2.28988647 -0.00204468 C14.66803564 0.01546424 26.59812314 0.73674863 38.75 3.25 C40.02907227 3.50740967 40.02907227 3.50740967 41.33398438 3.77001953 C59.43648725 7.50190986 76.25603902 13.3747211 92.9375 21.3125 C93.97680664 21.80693604 95.01611328 22.30137207 96.08691406 22.81079102 C103.02324611 26.19873256 110.23788147 29.73788147 115.75 35.25 C115.9453125 37.4140625 115.9453125 37.4140625 115.875 39.875 C115.85695313 40.69226562 115.83890625 41.50953125 115.8203125 42.3515625 C115.78550781 43.29128906 115.78550781 43.29128906 115.75 44.25 C116.30171875 44.49363281 116.8534375 44.73726562 117.421875 44.98828125 C120.23186346 46.51114412 122.51388632 48.4308511 125 50.4375 C128.68550251 53.31675116 128.68550251 53.31675116 133.0703125 54.4453125 C134.97228469 54.09095266 136.86213864 53.67314134 138.75 53.25 C163.86294139 64.60653493 182.47831656 102.81465921 191.85302734 127.10839844 C207.9508515 170.83424776 208.07487006 216.26849669 196.75 261.25 C196.54036621 262.10158691 196.33073242 262.95317383 196.11474609 263.83056641 C181.65901936 321.5533182 147.69406921 374.6168379 109.2421875 419.32421875 C106.95631011 422.00779581 104.75529732 424.74038526 102.5625 427.5 C94.88617053 436.93606565 86.34425874 445.72918876 77.69140625 454.26953125 C75.08821536 456.85212226 72.62997751 459.49532637 70.24609375 462.28125 C66.69462937 466.4033237 62.81985092 470.07659499 58.8125 473.75 C57.39617322 475.06146163 55.98079672 476.37395033 54.56640625 477.6875 C53.90141113 478.30496094 53.23641602 478.92242187 52.55126953 479.55859375 C50.40255048 481.57625783 48.31557522 483.64746617 46.25 485.75 C33.88100858 498.25314534 18.68862456 512.39618817 0.1875 512.5625 C-14.00892145 512.53397085 -23.48256023 505.54747703 -33.57421875 496.06640625 C-34.87130552 494.75912626 -36.15710877 493.4405243 -37.4296875 492.109375 C-39.27001644 490.22955402 -41.1884299 488.52150895 -43.1875 486.8125 C-46.17801716 484.24334729 -48.98116684 481.55682744 -51.75 478.75 C-54.47829407 475.98439592 -57.23516834 473.33712969 -60.1875 470.8125 C-67.17797508 464.79679236 -73.54866842 458.18254256 -79.5390625 451.1796875 C-81.36799863 449.11691479 -83.28580458 447.1840928 -85.25 445.25 C-88.3633812 442.1722003 -91.30009058 439.01145493 -94.15234375 435.69140625 C-95.82012632 433.75031852 -97.50086122 431.82349044 -99.19140625 429.90234375 C-105.98589624 422.16011789 -112.5355267 414.28438572 -118.8125 406.1171875 C-120.34673271 404.12435262 -121.89189351 402.14027371 -123.4375 400.15625 C-139.07464331 380.00140099 -153.02105684 358.76480987 -165.13134766 336.30664062 C-166.15418872 334.42614889 -167.20178587 332.56287806 -168.26171875 330.703125 C-186.58265988 297.85178229 -198.04121452 260.55895499 -202.25 223.25 C-202.38148438 222.13367188 -202.51296875 221.01734375 -202.6484375 219.8671875 C-207.51614297 169.47985791 -194.27654138 118.00226123 -162.66796875 78.15234375 C-159.60561874 74.47653429 -156.44707711 70.90679687 -153.203125 67.390625 C-151.62097392 65.65658742 -150.14053119 63.90300618 -148.6875 62.0625 C-145.50591391 58.39143912 -141.95900044 55.37500372 -138.25 52.25 C-137.40824219 51.50878906 -136.56648438 50.76757812 -135.69921875 50.00390625 C-114.85087908 31.98148261 -90.27992808 19.05026675 -64.25 10.25 C-63.15727783 9.8775415 -63.15727783 9.8775415 -62.04248047 9.49755859 C-50.0559615 5.49280127 -37.72853865 3.1511624 -25.25 1.25 C-24.56196289 1.14397461 -23.87392578 1.03794922 -23.16503906 0.92871094 C-15.49047165 -0.08848826 -7.72825336 0.0062098 0 0 Z " fill="#030203" transform="translate(255.25,-0.25)"/>
<path d="M0 0 C0.94746094 0.71929687 1.89492188 1.43859375 2.87109375 2.1796875 C4.29615234 3.26636719 4.29615234 3.26636719 5.75 4.375 C7.5192479 5.62724301 9.29007658 6.87725568 11.0625 8.125 C30.57305657 22.32466008 49.51455047 40.74484886 60.75 62.375 C60.42 63.035 60.09 63.695 59.75 64.375 C58.58597656 63.24964844 58.58597656 63.24964844 57.3984375 62.1015625 C36.46329914 42.14411905 11.69404499 28.80210455 -16.25 21.375 C-17.44496094 21.05402344 -18.63992188 20.73304687 -19.87109375 20.40234375 C-29.83294844 18.21012394 -39.77998756 18.08806362 -49.9375 18.0625 C-50.6383371 18.05882416 -51.33917419 18.05514832 -52.06124878 18.05136108 C-61.59868815 18.02528079 -70.8362258 18.72926691 -80.25 20.375 C-81.02980225 20.510271 -81.80960449 20.64554199 -82.61303711 20.78491211 C-117.08036434 27.25508728 -149.69307956 47.73458463 -171.6875 74.875 C-172.13762451 75.40915527 -172.58774902 75.94331055 -173.05151367 76.49365234 C-176.21564621 80.52117704 -176.80853811 83.32360587 -176.25 88.375 C-175.26951062 90.43902685 -175.26951062 90.43902685 -173.25 91.375 C-170.33559301 92.04221536 -170.33559301 92.04221536 -167.25 91.375 C-164.00319579 88.44326396 -161.22112027 85.20849734 -158.4597168 81.8215332 C-139.23005648 58.27953274 -113.36859189 43.32994221 -84.25 35.5 C-83.1213855 35.19509644 -83.1213855 35.19509644 -81.9699707 34.8840332 C-60.95635007 29.54801098 -36.01783186 30.54805437 -15.25 36.375 C-14.50959473 36.57335449 -13.76918945 36.77170898 -13.00634766 36.97607422 C7.87116046 42.70474213 26.66210886 53.60766309 42.4609375 68.296875 C44.73553979 70.41656827 44.73553979 70.41656827 47.26953125 72.32421875 C51.7808768 76.05407137 55.16120236 80.77892639 58.75 85.375 C59.76126953 86.66277344 59.76126953 86.66277344 60.79296875 87.9765625 C79.25544231 112.37208644 88.21254238 140.51918201 88.125 171 C88.12412384 171.74856262 88.12324768 172.49712524 88.12234497 173.26837158 C88.07692738 185.05462898 87.28231108 196.0776513 83.75 207.375 C83.50862305 208.18001953 83.26724609 208.98503906 83.01855469 209.81445312 C76.01334031 232.77745773 64.31979693 252.10010533 47.75 269.375 C44.76250762 266.80664834 43.40489959 263.88575296 41.6875 260.375 C34.03819776 246.0325583 21.938735 236.07478956 6.75 230.375 C3.46046873 229.51895742 0.14779339 228.83934061 -3.1875 228.1875 C-4.49944336 227.92163086 -4.49944336 227.92163086 -5.83789062 227.65039062 C-7.9739083 227.2185182 -10.11177533 226.79580945 -12.25 226.375 C-12.35826289 223.9571288 -12.43739789 221.54412444 -12.5 219.125 C-12.53351563 218.44308594 -12.56703125 217.76117188 -12.6015625 217.05859375 C-12.66984243 213.54217747 -12.51749128 211.72649681 -10.359375 208.890625 C-8.25 207.375 -8.25 207.375 -6.25 207.375 C-5.98703125 206.78976563 -5.7240625 206.20453125 -5.453125 205.6015625 C-4.19609632 203.27524319 -2.81160982 201.66769508 -1 199.75 C7.41049382 190.30786557 13.74520193 178.27263607 13.94287109 165.43969727 C13.95893402 164.48422501 13.97499695 163.52875275 13.99154663 162.54432678 C14.03656208 158.16440929 14.07710177 153.78463672 14.10009766 149.40454102 C14.11658423 147.10918996 14.14377634 144.81388867 14.18212891 142.51879883 C14.51163273 122.6611791 12.64686401 108.80261175 -0.98046875 93.421875 C-15.36014893 79.32788383 -36.16703804 75.73882299 -55.40283203 75.90625 C-63.99076541 76.13657312 -71.29867883 76.92001957 -79.25 80.375 C-79.89469238 80.64876465 -80.53938477 80.9225293 -81.20361328 81.20458984 C-94.66889953 87.03228235 -105.70102026 94.77201969 -112.25 108.375 C-112.60231689 109.08301758 -112.95463379 109.79103516 -113.31762695 110.52050781 C-117.52531396 120.6144754 -116.81675799 131.34411176 -116.71655273 142.09326172 C-116.68750967 145.49886614 -116.69598935 148.90291752 -116.70898438 152.30859375 C-116.70274779 154.50000747 -116.69435748 156.69141634 -116.68359375 158.8828125 C-116.68652939 159.88724396 -116.68946503 160.89167542 -116.69248962 161.92654419 C-116.49221629 177.10867783 -109.8750741 189.9053171 -100.25 201.375 C-99.569375 202.2825 -98.88875 203.19 -98.1875 204.125 C-96.27059917 206.60156894 -96.27059917 206.60156894 -93 208.25 C-91.4453125 209.44140625 -91.4453125 209.44140625 -90.25 211.375 C-89.72075813 216.42439949 -89.90648668 221.31772056 -90.25 226.375 C-91.45914063 226.58253906 -92.66828125 226.79007813 -93.9140625 227.00390625 C-112.45086973 230.40222588 -128.80191653 237.68091374 -140.25 253.375 C-143.52465925 258.56099098 -146.55923675 263.86221676 -149.25 269.375 C-167.80895484 254.68249409 -180.45984903 229.99698519 -186.25 207.375 C-186.61996094 206.2096875 -186.98992187 205.044375 -187.37109375 203.84375 C-194.83039614 178.45288218 -192.19958609 146.65637592 -182.203125 122.41796875 C-181.1013482 118.90041086 -180.98024199 116.04105556 -181.25 112.375 C-182.69148975 110.18952316 -182.69148975 110.18952316 -185.25 109.375 C-188.81709633 108.88417209 -188.81709633 108.88417209 -192.25 110.375 C-194.32284562 113.08082867 -195.20345532 116.15909953 -196.25 119.375 C-196.66121094 120.54933594 -197.07242188 121.72367188 -197.49609375 122.93359375 C-202.76604692 138.5820488 -204.85367549 153.92200102 -204.75 170.375 C-204.7472406 171.17659546 -204.7444812 171.97819092 -204.74163818 172.80407715 C-204.48575766 213.32150326 -188.89968177 249.10464416 -161.25 278.375 C-160.55519531 279.12265625 -159.86039062 279.8703125 -159.14453125 280.640625 C-132.07033063 308.84908175 -92.49297417 323.78167105 -53.85473633 324.71875 C-18.33199962 325.08364128 15.55347788 313.99682071 43.4296875 291.94140625 C46.08329856 289.84346588 48.7936579 288.03302456 51.75 286.375 C50.44824649 290.67712203 48.7925774 294.33070671 46.51171875 298.19921875 C45.86315918 299.30072266 45.21459961 300.40222656 44.54638672 301.53710938 C43.84418815 302.71269607 43.14120811 303.88781629 42.4375 305.0625 C41.90119965 305.96246704 41.90119965 305.96246704 41.35406494 306.88061523 C34.90826359 317.68190126 28.08870394 328.15789575 20.75 338.375 C19.91154541 339.5491748 19.91154541 339.5491748 19.05615234 340.74707031 C10.74359281 352.34762562 1.96236446 363.47856774 -7.25 374.375 C-7.77335938 374.99745605 -8.29671875 375.61991211 -8.8359375 376.26123047 C-15.57391509 384.26685423 -22.52318555 392.04526326 -29.67285156 399.68457031 C-31.30752183 401.43665343 -32.93185151 403.19789151 -34.5546875 404.9609375 C-40.79195252 411.71945966 -47.1341889 418.35910731 -53.625 424.875 C-54.26663086 425.52122314 -54.90826172 426.16744629 -55.56933594 426.83325195 C-59.3528279 430.60453596 -63.25293411 434.18277407 -67.29541016 437.67431641 C-70.33958066 440.32304133 -73.29378812 443.06646169 -76.25 445.8125 C-77.12591797 446.62364258 -77.12591797 446.62364258 -78.01953125 447.45117188 C-79.43059237 448.75813832 -80.84043248 450.06642284 -82.25 451.375 C-85.63758344 449.9073992 -87.84883382 448.02425912 -90.44848633 445.41943359 C-91.26646194 444.60453461 -92.08443756 443.78963562 -92.92720032 442.95004272 C-93.80329453 442.066763 -94.67938873 441.18348328 -95.58203125 440.2734375 C-96.49200363 439.3630069 -97.40197601 438.45257629 -98.33952332 437.51455688 C-100.2666559 435.58586144 -102.19038939 433.65386 -104.11157227 431.71923828 C-106.55395241 429.25997649 -109.00275406 426.80723938 -111.453969 424.35678673 C-113.81195736 421.99845789 -116.16566774 419.63588365 -118.51953125 417.2734375 C-119.38955276 416.40230316 -120.25957428 415.53116882 -121.15596008 414.63363647 C-126.05120075 409.70065143 -130.72900424 404.65161237 -135.25 399.375 C-136.70445517 397.76731627 -138.16220895 396.16260285 -139.625 394.5625 C-144.35513275 389.31301145 -148.83548951 383.89131394 -153.25 378.375 C-153.65943848 377.86517578 -154.06887695 377.35535156 -154.49072266 376.83007812 C-166.95015014 361.28314838 -178.73333018 345.30457946 -189.25 328.375 C-189.62930664 327.7680127 -190.00861328 327.16102539 -190.39941406 326.53564453 C-206.83053667 300.1227959 -219.37291004 272.85487928 -229.25 243.375 C-229.52859863 242.55354492 -229.80719727 241.73208984 -230.09423828 240.88574219 C-245.8857009 193.32984327 -243.93018678 137.34524408 -221.41015625 92.43359375 C-212.64433579 75.63412335 -201.27530916 61.04652605 -188.25 47.375 C-187.63511719 46.71886719 -187.02023438 46.06273437 -186.38671875 45.38671875 C-149.62965609 7.22604511 -48.9667435 -37.7013884 0 0 Z " fill="#E95468" transform="translate(307.25,24.625)"/>
<path d="M0 0 C1.1334938 -0.00101212 1.1334938 -0.00101212 2.28988647 -0.00204468 C14.66803564 0.01546424 26.59812314 0.73674863 38.75 3.25 C40.02907227 3.50740967 40.02907227 3.50740967 41.33398438 3.77001953 C59.43648725 7.50190986 76.25603902 13.3747211 92.9375 21.3125 C93.97680664 21.80693604 95.01611328 22.30137207 96.08691406 22.81079102 C103.02324611 26.19873256 110.23788147 29.73788147 115.75 35.25 C115.9453125 37.4140625 115.9453125 37.4140625 115.875 39.875 C115.85695313 40.69226562 115.83890625 41.50953125 115.8203125 42.3515625 C115.78550781 43.29128906 115.78550781 43.29128906 115.75 44.25 C116.30171875 44.49363281 116.8534375 44.73726562 117.421875 44.98828125 C120.23186346 46.51114412 122.51388632 48.4308511 125 50.4375 C128.68550251 53.31675116 128.68550251 53.31675116 133.0703125 54.4453125 C134.97228469 54.09095266 136.86213864 53.67314134 138.75 53.25 C163.86294139 64.60653493 182.47831656 102.81465921 191.85302734 127.10839844 C207.9508515 170.83424776 208.07487006 216.26849669 196.75 261.25 C196.54036621 262.10158691 196.33073242 262.95317383 196.11474609 263.83056641 C181.65901936 321.5533182 147.69406921 374.6168379 109.2421875 419.32421875 C106.95631011 422.00779581 104.75529732 424.74038526 102.5625 427.5 C94.88617053 436.93606565 86.34425874 445.72918876 77.69140625 454.26953125 C75.08821536 456.85212226 72.62997751 459.49532637 70.24609375 462.28125 C66.69462937 466.4033237 62.81985092 470.07659499 58.8125 473.75 C57.39617322 475.06146163 55.98079672 476.37395033 54.56640625 477.6875 C53.90141113 478.30496094 53.23641602 478.92242187 52.55126953 479.55859375 C50.40255048 481.57625783 48.31557522 483.64746617 46.25 485.75 C33.88100858 498.25314534 18.68862456 512.39618817 0.1875 512.5625 C-14.00892145 512.53397085 -23.48256023 505.54747703 -33.57421875 496.06640625 C-34.87130552 494.75912626 -36.15710877 493.4405243 -37.4296875 492.109375 C-39.27001644 490.22955402 -41.1884299 488.52150895 -43.1875 486.8125 C-46.17801716 484.24334729 -48.98116684 481.55682744 -51.75 478.75 C-54.47829407 475.98439592 -57.23516834 473.33712969 -60.1875 470.8125 C-67.17797508 464.79679236 -73.54866842 458.18254256 -79.5390625 451.1796875 C-81.36799863 449.11691479 -83.28580458 447.1840928 -85.25 445.25 C-88.3633812 442.1722003 -91.30009058 439.01145493 -94.15234375 435.69140625 C-95.82012632 433.75031852 -97.50086122 431.82349044 -99.19140625 429.90234375 C-105.98589624 422.16011789 -112.5355267 414.28438572 -118.8125 406.1171875 C-120.34673271 404.12435262 -121.89189351 402.14027371 -123.4375 400.15625 C-139.07464331 380.00140099 -153.02105684 358.76480987 -165.13134766 336.30664062 C-166.15418872 334.42614889 -167.20178587 332.56287806 -168.26171875 330.703125 C-186.58265988 297.85178229 -198.04121452 260.55895499 -202.25 223.25 C-202.38148438 222.13367188 -202.51296875 221.01734375 -202.6484375 219.8671875 C-207.51614297 169.47985791 -194.27654138 118.00226123 -162.66796875 78.15234375 C-159.60561874 74.47653429 -156.44707711 70.90679687 -153.203125 67.390625 C-151.62097392 65.65658742 -150.14053119 63.90300618 -148.6875 62.0625 C-145.50591391 58.39143912 -141.95900044 55.37500372 -138.25 52.25 C-137.40824219 51.50878906 -136.56648438 50.76757812 -135.69921875 50.00390625 C-114.85087908 31.98148261 -90.27992808 19.05026675 -64.25 10.25 C-63.15727783 9.8775415 -63.15727783 9.8775415 -62.04248047 9.49755859 C-50.0559615 5.49280127 -37.72853865 3.1511624 -25.25 1.25 C-24.56196289 1.14397461 -23.87392578 1.03794922 -23.16503906 0.92871094 C-15.49047165 -0.08848826 -7.72825336 0.0062098 0 0 Z M-111.25 51.25 C-112.29027344 52.00667969 -113.33054687 52.76335938 -114.40234375 53.54296875 C-122.52292743 59.5649474 -129.98555081 66.22743414 -137.25 73.25 C-137.81501221 73.78947266 -138.38002441 74.32894531 -138.9621582 74.88476562 C-143.2875744 79.0937306 -147.05245944 83.56198308 -150.6875 88.375 C-151.25170654 89.11999756 -151.81591309 89.86499512 -152.3972168 90.63256836 C-166.69376917 109.73764458 -177.70480313 131.71552584 -182.76464844 155.10253906 C-183.25211055 157.25933822 -183.81328967 159.38700415 -184.3828125 161.5234375 C-193.04166098 196.51232975 -187.61914935 237.53285496 -176.25 271.25 C-175.77868652 272.67989258 -175.77868652 272.67989258 -175.29785156 274.13867188 C-161.19432399 316.54482545 -138.67342182 355.12392458 -111.25 390.25 C-110.33154328 391.4436351 -109.41357593 392.63764691 -108.49609375 393.83203125 C-99.50718053 405.46990523 -89.92697409 416.56655811 -79.91796875 427.3359375 C-77.95021112 429.48520133 -76.0416076 431.65347658 -74.14550781 433.86376953 C-70.04323439 438.55726386 -65.67453006 442.95182299 -61.25390625 447.34375 C-60.00358864 448.59194519 -60.00358864 448.59194519 -58.72801208 449.86535645 C-56.09186738 452.49594935 -53.45224895 455.12302441 -50.8125 457.75 C-49.01344021 459.54403855 -47.2146098 461.33830715 -45.41601562 463.1328125 C-41.02999188 467.50787125 -36.64111858 471.88005512 -32.25 476.25 C-28.35976099 474.43431304 -25.52789794 471.9326525 -22.4375 469 C-21.87200439 468.46987305 -21.30650879 467.93974609 -20.72387695 467.39355469 C-19.51490773 466.26009441 -18.30751252 465.12495329 -17.1015625 463.98828125 C-15.28569077 462.28350716 -13.45774828 460.5928524 -11.625 458.90625 C-4.87757474 452.68407341 1.7471569 446.35281174 8.25 439.875 C8.89622314 439.23336914 9.54244629 438.59173828 10.20825195 437.93066406 C13.97409228 434.15263339 17.54026212 430.25549898 21.02636719 426.21875 C23.80622015 423.04357517 26.72266825 420.00025806 29.625 416.9375 C34.40510367 411.84952951 39.00375672 406.69112352 43.359375 401.23046875 C45.19896099 398.93699799 47.06139985 396.6756539 48.953125 394.42578125 C69.4643786 369.97579322 88.57542761 343.09397885 102.625 314.375 C105.42575357 309.13565927 109.34288044 305.49036646 113.58276367 301.42504883 C139.7393968 276.03805493 154.51362744 237.91648835 155.07762146 201.80050659 C155.10085228 199.55449383 155.11387006 197.30860233 155.125 195.0625 C155.13276459 194.35037354 155.14052917 193.63824707 155.14852905 192.90454102 C155.45941188 156.70674011 140.86547837 122.8128168 117.875 95.375 C115.46467035 92.4867963 113.3698807 89.86373753 111.8125 86.4375 C100.18140454 60.8906296 75.12003726 40.9732139 52.6328125 25.55371094 C50.96590713 24.39950001 49.32995019 23.20087229 47.69921875 21.99609375 C42.00452234 18.62453177 35.21123157 18.23480839 28.75 17.25 C26.87248047 16.93869141 26.87248047 16.93869141 24.95703125 16.62109375 C-21.98766382 9.66452236 -73.06379507 23.27575314 -111.25 51.25 Z " fill="#E3384F" transform="translate(255.25,-0.25)"/>
<path d="M0 0 C0.74040527 0.19835449 1.48081055 0.39670898 2.24365234 0.60107422 C23.12116046 6.32974213 41.91210886 17.23266309 57.7109375 31.921875 C59.98553979 34.04156827 59.98553979 34.04156827 62.51953125 35.94921875 C67.0308768 39.67907137 70.41120236 44.40392639 74 49 C74.67417969 49.85851562 75.34835937 50.71703125 76.04296875 51.6015625 C94.50544231 75.99708644 103.46254238 104.14418201 103.375 134.625 C103.37412384 135.37356262 103.37324768 136.12212524 103.37234497 136.89337158 C103.32692738 148.67962898 102.53231108 159.7026513 99 171 C98.75862305 171.80501953 98.51724609 172.61003906 98.26855469 173.43945312 C91.26334031 196.40245773 79.56979693 215.72510533 63 233 C60.01250762 230.43164834 58.65489959 227.51075296 56.9375 224 C49.28819776 209.6575583 37.188735 199.69978956 22 194 C18.71046873 193.14395742 15.39779339 192.46434061 12.0625 191.8125 C10.75055664 191.54663086 10.75055664 191.54663086 9.41210938 191.27539062 C7.2760917 190.8435182 5.13822467 190.42080945 3 190 C2.89173711 187.5821288 2.81260211 185.16912444 2.75 182.75 C2.71648437 182.06808594 2.68296875 181.38617188 2.6484375 180.68359375 C2.58015757 177.16717747 2.73250872 175.35149681 4.890625 172.515625 C7 171 7 171 9 171 C9.26296875 170.41476563 9.5259375 169.82953125 9.796875 169.2265625 C11.05390368 166.90024319 12.43839018 165.29269508 14.25 163.375 C22.66049382 153.93286557 28.99520193 141.89763607 29.19287109 129.06469727 C29.20893402 128.10922501 29.22499695 127.15375275 29.24154663 126.16932678 C29.28656208 121.78940929 29.32710177 117.40963672 29.35009766 113.02954102 C29.36658423 110.73418996 29.39377634 108.43888867 29.43212891 106.14379883 C29.76163273 86.2861791 27.89686401 72.42761175 14.26953125 57.046875 C-0.11014893 42.95288383 -20.91703804 39.36382299 -40.15283203 39.53125 C-48.74076541 39.76157312 -56.04867883 40.54501957 -64 44 C-64.64469238 44.27376465 -65.28938477 44.5475293 -65.95361328 44.82958984 C-79.41889953 50.65728235 -90.45102026 58.39701969 -97 72 C-97.35231689 72.70801758 -97.70463379 73.41603516 -98.06762695 74.14550781 C-102.27531396 84.2394754 -101.56675799 94.96911176 -101.46655273 105.71826172 C-101.43750967 109.12386614 -101.44598935 112.52791752 -101.45898438 115.93359375 C-101.45274779 118.12500747 -101.44435748 120.31641634 -101.43359375 122.5078125 C-101.43652939 123.51224396 -101.43946503 124.51667542 -101.44248962 125.55154419 C-101.24221629 140.73367783 -94.6250741 153.5303171 -85 165 C-84.319375 165.9075 -83.63875 166.815 -82.9375 167.75 C-81.02059917 170.22656894 -81.02059917 170.22656894 -77.75 171.875 C-76.1953125 173.06640625 -76.1953125 173.06640625 -75 175 C-74.47075813 180.04939949 -74.65648668 184.94272056 -75 190 C-76.20914063 190.20753906 -77.41828125 190.41507813 -78.6640625 190.62890625 C-97.20086973 194.02722588 -113.55191653 201.30591374 -125 217 C-128.27465925 222.18599098 -131.30923675 227.48721676 -134 233 C-152.55895484 218.30749409 -165.20984903 193.62198519 -171 171 C-171.36996094 169.8346875 -171.73992187 168.669375 -172.12109375 167.46875 C-179.58039614 142.07788218 -176.94958609 110.28137592 -166.953125 86.04296875 C-165.85189268 82.52714918 -165.73447601 79.66423112 -166 76 C-167.35429841 74.05630262 -167.35429841 74.05630262 -169 73 C-166.97967868 66.46828155 -164.36201789 60.32472887 -160 55 C-157.10306878 54.16054834 -155.07276899 54.65307447 -152 55 C-148.6818774 52.14213311 -145.97275947 48.83550788 -143.2097168 45.4465332 C-123.98005648 21.90453274 -98.11859189 6.95494221 -69 -0.875 C-68.24759033 -1.07826904 -67.49518066 -1.28153809 -66.7199707 -1.4909668 C-45.70635007 -6.82698902 -20.76783186 -5.82694563 0 0 Z " fill="#DDF4FB" transform="translate(292,61)"/>
<path d="M0 0 C1.1334938 -0.00101212 1.1334938 -0.00101212 2.28988647 -0.00204468 C14.66803564 0.01546424 26.59812314 0.73674863 38.75 3.25 C40.02907227 3.50740967 40.02907227 3.50740967 41.33398438 3.77001953 C59.43648725 7.50190986 76.25603902 13.3747211 92.9375 21.3125 C93.97680664 21.80693604 95.01611328 22.30137207 96.08691406 22.81079102 C103.02324611 26.19873256 110.23788147 29.73788147 115.75 35.25 C116.42605634 42.34859155 116.42605634 42.34859155 114.25 45.25 C110.7520069 46.64919724 107.44398746 46.69158804 103.75 46.25 C100.50390625 44.78125 100.50390625 44.78125 97.3125 42.75 C96.08501929 42.00546797 94.8544109 41.26607356 93.62109375 40.53125 C92.66759033 39.96083984 92.66759033 39.96083984 91.69482422 39.37890625 C72.46753378 28.21809894 50.58687836 21.75497894 28.75 18.25 C28.07630371 18.13430664 27.40260742 18.01861328 26.70849609 17.89941406 C-19.46226492 10.09427413 -70.3753779 23.57535291 -108.50390625 50.23828125 C-109.41011719 50.90214844 -110.31632812 51.56601562 -111.25 52.25 C-112.29027344 53.00667969 -113.33054687 53.76335938 -114.40234375 54.54296875 C-147.52568049 79.09617372 -173.31622233 114.36014892 -181.796875 155.18310547 C-182.26299836 157.30929103 -182.81407324 159.40090464 -183.375 161.50390625 C-192.05288842 196.48977165 -186.61889403 237.53361217 -175.25 271.25 C-174.77868652 272.67989258 -174.77868652 272.67989258 -174.29785156 274.13867188 C-160.19432399 316.54482545 -137.67342182 355.12392458 -110.25 390.25 C-109.33154328 391.4436351 -108.41357593 392.63764691 -107.49609375 393.83203125 C-98.50718053 405.46990523 -88.92697409 416.56655811 -78.91796875 427.3359375 C-76.9410959 429.49515733 -75.02110757 431.67374384 -73.11425781 433.89282227 C-69.17106065 438.40424999 -64.99521184 442.64907684 -60.75390625 446.87890625 C-59.96153061 447.67223862 -59.16915497 448.46557098 -58.35276794 449.28294373 C-56.68749717 450.94889081 -55.02097971 452.61359256 -53.35327148 454.27709961 C-50.81965378 456.80536134 -48.29141833 459.33891661 -45.76367188 461.87304688 C-44.13573717 463.5003207 -42.50749225 465.12728425 -40.87890625 466.75390625 C-40.13282608 467.50201065 -39.38674591 468.25011505 -38.61805725 469.02088928 C-34.52288787 473.09806928 -30.34026998 477.0105879 -25.95565796 480.77558899 C-23.67930987 482.74331802 -21.50446337 484.81417974 -19.3125 486.875 C-13.77621323 491.83476686 -8.79356153 495.74377692 -1.3125 496.8125 C11.17359871 495.82740345 21.75428066 486.79129539 30.00318909 478.02809143 C31.73428892 476.26599242 33.53365571 474.67113245 35.41381836 473.07006836 C39.92700719 469.1492279 44.15859219 464.98567068 48.37890625 460.75390625 C49.17223862 459.96153061 49.96557098 459.16915497 50.78294373 458.35276794 C52.44889081 456.68749717 54.11359256 455.02097971 55.77709961 453.35327148 C58.30536134 450.81965378 60.83891661 448.29141833 63.37304688 445.76367188 C65.0003207 444.13573717 66.62728425 442.50749225 68.25390625 440.87890625 C69.37606285 439.759786 69.37606285 439.759786 70.52088928 438.61805725 C75.13123132 433.98737341 79.49067141 429.20366584 83.75 424.25 C85.20445517 422.64231627 86.66220895 421.03760285 88.125 419.4375 C92.85518353 414.1879551 97.33457528 408.76563781 101.75 403.25 C102.16475586 402.7348584 102.57951172 402.2197168 103.00683594 401.68896484 C119.08867496 381.68044654 134.0255167 360.56108432 146.75 338.25 C147.23581543 337.40260254 147.72163086 336.55520508 148.22216797 335.68212891 C166.2461621 304.01115861 180.26002081 269.42646228 185.75 233.25 C185.93401367 232.05221924 186.11802734 230.85443848 186.30761719 229.62036133 C187.64594585 220.07144551 188.0624755 210.69615655 188.01074219 201.05883789 C187.99999072 198.68545097 188.01073134 196.31281787 188.0234375 193.93945312 C188.0380137 180.21373979 186.60618627 167.10663148 183 153.8125 C182.73396973 152.82443359 182.46793945 151.83636719 182.19384766 150.81835938 C173.44219213 119.03739175 156.84557047 92.20302106 133.5625 69.0625 C129.8452381 65.3452381 129.8452381 65.3452381 129.5 61.375 C129.78166305 57.8542119 130.13707987 56.60162812 132.75 54.25 C136.04665518 53.17500375 137.84237934 52.81503301 141.0078125 54.33203125 C173.76684375 77.24468701 194.45195647 122.91278954 201.58618164 160.95947266 C207.39727958 194.62817326 205.07337484 228.1902023 196.75 261.25 C196.54036621 262.10158691 196.33073242 262.95317383 196.11474609 263.83056641 C181.65901936 321.5533182 147.69406921 374.6168379 109.2421875 419.32421875 C106.95631011 422.00779581 104.75529732 424.74038526 102.5625 427.5 C94.88617053 436.93606565 86.34425874 445.72918876 77.69140625 454.26953125 C75.08821536 456.85212226 72.62997751 459.49532637 70.24609375 462.28125 C66.69462937 466.4033237 62.81985092 470.07659499 58.8125 473.75 C57.39617322 475.06146163 55.98079672 476.37395033 54.56640625 477.6875 C53.90141113 478.30496094 53.23641602 478.92242187 52.55126953 479.55859375 C50.40255048 481.57625783 48.31557522 483.64746617 46.25 485.75 C33.88100858 498.25314534 18.68862456 512.39618817 0.1875 512.5625 C-14.00892145 512.53397085 -23.48256023 505.54747703 -33.57421875 496.06640625 C-34.87130552 494.75912626 -36.15710877 493.4405243 -37.4296875 492.109375 C-39.27001644 490.22955402 -41.1884299 488.52150895 -43.1875 486.8125 C-46.17801716 484.24334729 -48.98116684 481.55682744 -51.75 478.75 C-54.47829407 475.98439592 -57.23516834 473.33712969 -60.1875 470.8125 C-67.17797508 464.79679236 -73.54866842 458.18254256 -79.5390625 451.1796875 C-81.36799863 449.11691479 -83.28580458 447.1840928 -85.25 445.25 C-88.3633812 442.1722003 -91.30009058 439.01145493 -94.15234375 435.69140625 C-95.82012632 433.75031852 -97.50086122 431.82349044 -99.19140625 429.90234375 C-105.98589624 422.16011789 -112.5355267 414.28438572 -118.8125 406.1171875 C-120.34673271 404.12435262 -121.89189351 402.14027371 -123.4375 400.15625 C-139.07464331 380.00140099 -153.02105684 358.76480987 -165.13134766 336.30664062 C-166.15418872 334.42614889 -167.20178587 332.56287806 -168.26171875 330.703125 C-186.58265988 297.85178229 -198.04121452 260.55895499 -202.25 223.25 C-202.38148438 222.13367188 -202.51296875 221.01734375 -202.6484375 219.8671875 C-207.51614297 169.47985791 -194.27654138 118.00226123 -162.66796875 78.15234375 C-159.60561874 74.47653429 -156.44707711 70.90679687 -153.203125 67.390625 C-151.62097392 65.65658742 -150.14053119 63.90300618 -148.6875 62.0625 C-145.50591391 58.39143912 -141.95900044 55.37500372 -138.25 52.25 C-137.40824219 51.50878906 -136.56648438 50.76757812 -135.69921875 50.00390625 C-114.85087908 31.98148261 -90.27992808 19.05026675 -64.25 10.25 C-63.15727783 9.8775415 -63.15727783 9.8775415 -62.04248047 9.49755859 C-50.0559615 5.49280127 -37.72853865 3.1511624 -25.25 1.25 C-24.56196289 1.14397461 -23.87392578 1.03794922 -23.16503906 0.92871094 C-15.49047165 -0.08848826 -7.72825336 0.0062098 0 0 Z " fill="#010000" transform="translate(255.25,-0.25)"/>
<path d="M0 0 C1.37397727 1.63332238 2.7036568 3.3044028 4 5 C6.46161213 6.96114096 6.46161213 6.96114096 9.1875 8.625 C10.06792969 9.19476563 10.94835937 9.76453125 11.85546875 10.3515625 C19.06158125 14.12917676 25.64243159 15.53698906 33.75 15.4375 C34.62108398 15.42992676 35.49216797 15.42235352 36.38964844 15.41455078 C47.26763978 15.13908224 56.97074954 12.67674678 65 5 C66.051875 3.5459375 66.051875 3.5459375 67.125 2.0625 C71.4120616 -1.01300071 74.9082204 -0.40914186 80.03515625 0.171875 C92.89246154 2.51947976 104.19440546 9.22926224 112.01953125 19.703125 C121 33.24 121 33.24 121 40 C118.97084428 41.69875556 117.02032866 43.12612188 114.8125 44.5625 C113.81621582 45.21460449 113.81621582 45.21460449 112.79980469 45.87988281 C80.46172444 66.41035731 42.67389453 74.40643282 5.01367188 66.33300781 C-15.52788376 61.48237278 -34.11576732 52.62258741 -51 40 C-49.51688945 27.6160269 -41.12857864 17.1762876 -31.953125 9.2265625 C-24.37470049 3.61396991 -9.54349061 -3.09027315 0 0 Z " fill="#6ED5A2" transform="translate(221,266)"/>
<path d="M0 0 C18.38822002 6.3639231 34.43156885 15.64540515 48.7109375 28.921875 C50.98553979 31.04156827 50.98553979 31.04156827 53.51953125 32.94921875 C58.0308768 36.67907137 61.41120236 41.40392639 65 46 C65.67417969 46.85851562 66.34835937 47.71703125 67.04296875 48.6015625 C85.50544231 72.99708644 94.46254238 101.14418201 94.375 131.625 C94.37412384 132.37356262 94.37324768 133.12212524 94.37234497 133.89337158 C94.32692738 145.67962898 93.53231108 156.7026513 90 168 C89.75862305 168.80501953 89.51724609 169.61003906 89.26855469 170.43945312 C82.26334031 193.40245773 70.56979693 212.72510533 54 230 C50.9657318 227.39528182 49.52865892 224.35735061 47.75 220.8125 C44.7785625 215.14839526 41.50085829 210.52821913 37 206 C37.60134766 205.13955078 37.60134766 205.13955078 38.21484375 204.26171875 C50.75663545 185.52012979 58.68751351 164.24804362 62 142 C62.13148438 141.16984375 62.26296875 140.3396875 62.3984375 139.484375 C65.07941623 118.76113401 62.71905462 96.72441118 56 77 C55.79004395 76.37319336 55.58008789 75.74638672 55.36376953 75.10058594 C45.81317873 46.92738345 27.64506751 19.83926651 2.3125 3.5625 C1.549375 3.046875 0.78625 2.53125 0 2 C0 1.34 0 0.68 0 0 Z " fill="#C6EDFC" transform="translate(301,64)"/>
<path d="M0 0 C11.42279119 4.96079403 21.28867428 7.41027072 33.76171875 7.66601562 C35.47584961 7.71725586 35.47584961 7.71725586 37.22460938 7.76953125 C40.00771413 7.85104478 42.79054211 7.92050233 45.57421875 7.97851562 C45.90496322 20.50711602 40.20414077 30.49053395 32.0625 39.87304688 C22.49457809 49.85043762 9.3321111 59.89254733 -5.11328125 60.47851562 C-21.58055114 59.33870459 -34.03474159 49.03639287 -44.78515625 37.43164062 C-51.1632749 29.90258327 -56.57909011 20.72742009 -56.5234375 10.65429688 C-56.52021484 9.62626953 -56.51699219 8.59824219 -56.51367188 7.5390625 C-56.50529297 6.46720703 -56.49691406 5.39535156 -56.48828125 4.29101562 C-56.48376953 3.20755859 -56.47925781 2.12410156 -56.47460938 1.0078125 C-56.46281868 -1.66867522 -56.44636188 -4.34505214 -56.42578125 -7.02148438 C-35.2900385 -14.8859468 -19.71195299 -8.7129165 0 0 Z " fill="#FDDDCD" transform="translate(261.42578125,178.021484375)"/>
<path d="M0 0 C1.08692572 0.95198009 2.15341732 1.92836838 3.1875 2.9375 C4.05375 3.700625 4.92 4.46375 5.8125 5.25 C14.30085066 14.85523891 16.50651116 22.64207872 16.3125 35.3125 C16.30347656 36.43011719 16.29445313 37.54773438 16.28515625 38.69921875 C16.26168346 41.44553462 16.22884728 44.19140472 16.1875 46.9375 C-3.13757081 47.61999367 -16.99890889 44.46021267 -34.55639648 36.55517578 C-45.08792219 31.81349788 -54.33327846 28.73950716 -66 28.75 C-66.74306396 28.74935547 -67.48612793 28.74871094 -68.25170898 28.74804688 C-74.25687135 28.80523271 -79.96631219 29.52330338 -85.8125 30.9375 C-86.50335989 21.61089152 -83.33339191 13.9940832 -77.5 6.74609375 C-58.94456233 -13.14086838 -21.95151521 -15.70879806 0 0 Z " fill="#015E7F" transform="translate(290.8125,124.0625)"/>
<path d="M0 0 C6.62922619 5.84931723 10.97152928 13.75582971 14 22 C14 22.99 14 23.98 14 25 C11.97084428 26.69875556 10.02032866 28.12612188 7.8125 29.5625 C7.14831055 29.99723633 6.48412109 30.43197266 5.79980469 30.87988281 C-18.24155359 46.14301808 -44.55264412 54.17751767 -72.9375 54.3125 C-74.06285156 54.31813965 -75.18820313 54.3237793 -76.34765625 54.32958984 C-83.42696977 54.26787597 -90.08459332 53.51488595 -97 52 C-94.20468429 50.46925068 -91.78996821 49.64256258 -88.6484375 49.140625 C-87.80627686 48.99786133 -86.96411621 48.85509766 -86.09643555 48.70800781 C-85.19836182 48.55686523 -84.30028809 48.40572266 -83.375 48.25 C-67.06388706 45.29381314 -52.51606424 39.96216957 -38 32 C-37.07703125 31.49597656 -36.1540625 30.99195313 -35.203125 30.47265625 C-25.64152877 24.97626097 -17.07080477 18.15762702 -8.9375 10.75 C-8.38924561 10.25483887 -7.84099121 9.75967773 -7.27612305 9.24951172 C-4.23245378 6.41763805 -1.94071945 3.67998013 0 0 Z " fill="#3DC0A1" transform="translate(328,281)"/>
<path d="M0 0 C10.92658434 1.30781511 21.81692202 4.36927978 30 12 C30.86625 12.763125 31.7325 13.52625 32.625 14.3125 C41.11335066 23.91773891 43.31901116 31.70457872 43.125 44.375 C43.11597656 45.49261719 43.10695313 46.61023438 43.09765625 47.76171875 C43.07418457 50.50790512 43.03831655 53.25398063 43 56 C38.38 56 33.76 56 29 56 C28.92652344 53.99099609 28.92652344 53.99099609 28.8515625 51.94140625 C28.77646359 50.14841978 28.70091892 48.35545194 28.625 46.5625 C28.5940625 45.68400391 28.563125 44.80550781 28.53125 43.90039062 C27.99060428 31.6908082 24.93292061 19.93292061 16 11 C10.95908696 7.11029894 5.819297 3.60336971 0 1 C0 0.67 0 0.34 0 0 Z " fill="#014B66" transform="translate(264,115)"/>
<path d="M0 0 C0.61746094 0.19335938 1.23492187 0.38671875 1.87109375 0.5859375 C16.98446756 5.23266735 27.30287819 5.91696565 42.4375 1.09375 C46 0 46 0 48 0 C48.64006465 4.41822407 49.1873592 8.36247154 46.46484375 12.1171875 C39.68626373 18.20354258 33.15707393 20.57320161 24.1875 20.5 C22.99991089 20.49359497 22.99991089 20.49359497 21.78833008 20.48706055 C15.25040484 20.29742922 10.34315639 18.90169635 5 15 C3.96875 14.278125 2.9375 13.55625 1.875 12.8125 C-0.89045925 8.66431113 -0.42324064 4.84375402 0 0 Z " fill="#F8AB99" transform="translate(232,247)"/>
<path d="M0 0 C5.94 0 11.88 0 18 0 C18 14.07645382 11.39088145 24.69652733 1.75 34.75 C-3.36551612 39.68206313 -8.7983564 43.55240882 -15 47 C-15.70253906 47.41121094 -16.40507812 47.82242188 -17.12890625 48.24609375 C-19 49 -19 49 -22 48 C-21.45472656 47.56171875 -20.90945313 47.1234375 -20.34765625 46.671875 C-10.58028533 38.45726561 -3.6143714 28.89612205 1 17 C1.4125 15.989375 1.825 14.97875 2.25 13.9375 C3.33864984 9.67362145 3.67103646 5.38040929 4 1 C2.68 0.67 1.36 0.34 0 0 Z " fill="#F7C8B9" transform="translate(289,186)"/>
</svg>
