<?xml version="1.0" encoding="UTF-8"?>
<svg version="1.1" xmlns="http://www.w3.org/2000/svg" width="512" height="512">
<path d="M0 0 C2.50640389 2.19263085 4.87508222 4.45937527 7.21484375 6.828125 C7.85035156 7.44171875 8.48585937 8.0553125 9.140625 8.6875 C20.67012317 20.65159123 25.22600075 37.4193626 25.27197266 53.63330078 C24.79177985 72.08173373 16.0883853 87.95458345 3.21484375 100.828125 C4.26542969 101.33601563 5.31601563 101.84390625 6.3984375 102.3671875 C30.20449319 113.98647213 48.43726346 130.11433059 58.03686523 155.40209961 C63.68586657 171.83161997 63.70609056 187.72673708 63.46484375 204.953125 C63.44473173 207.47264192 63.42648935 209.9921745 63.41015625 212.51171875 C63.37001041 218.61790141 63.29165212 224.72185989 63.21484375 230.828125 C49.35484375 230.828125 35.49484375 230.828125 21.21484375 230.828125 C20.88484375 232.478125 20.55484375 234.128125 20.21484375 235.828125 C19.15234375 237.640625 19.15234375 237.640625 17.21484375 238.828125 C13.09998796 239.22001603 10.48402473 239.44644394 6.77734375 237.640625 C5.21484375 235.828125 5.21484375 235.828125 4.21484375 230.828125 C-25.48515625 230.828125 -55.18515625 230.828125 -85.78515625 230.828125 C-86.11515625 232.478125 -86.44515625 234.128125 -86.78515625 235.828125 C-88.37353769 238.02965065 -89.24826873 238.70947582 -91.90625 239.296875 C-98.17206181 239.38140534 -98.17206181 239.38140534 -101.34765625 236.515625 C-102.78515625 233.828125 -102.78515625 233.828125 -102.78515625 230.828125 C-116.31515625 230.828125 -129.84515625 230.828125 -143.78515625 230.828125 C-143.89087057 223.59961474 -143.99092304 216.37400581 -144.04390717 209.14539337 C-144.06999557 205.77703598 -144.10751897 202.40983089 -144.16235352 199.04174805 C-144.46442527 179.98990466 -144.30467567 161.63320579 -134.41015625 144.703125 C-134.0244043 144.00920654 -133.63865234 143.31528809 -133.24121094 142.6003418 C-130.21918918 137.28310575 -126.78863755 132.45459701 -122.78515625 127.828125 C-122.04265625 126.838125 -121.30015625 125.848125 -120.53515625 124.828125 C-111.95788324 114.74704438 -99.0733543 106.57451429 -86.78515625 101.828125 C-85.79515625 101.828125 -84.80515625 101.828125 -83.78515625 101.828125 C-84.22085938 101.3434375 -84.6565625 100.85875 -85.10546875 100.359375 C-100.56726367 82.95648894 -106.99294696 66.55179795 -105.94921875 43.21142578 C-104.82373527 26.8617684 -95.68341561 13.3910138 -84.28515625 2.203125 C-60.81337597 -18.1631582 -24.49503221 -19.10131544 0 0 Z " fill="#78AF42" transform="translate(151.78515625,265.171875)"/>
<path d="M0 0 C23.76392395 -0.64226821 44.22273342 7.60306202 61.66943359 23.74365234 C75.81231151 37.47564441 86.13850379 58.23034107 86.96875 78.15625 C87.0203125 79.290625 87.071875 80.425 87.125 81.59375 C87.87187236 106.26522781 80.21785178 128.73779334 63.19458008 146.96704102 C57.96738281 152.36312116 52.21079836 156.99488443 45.96875 161.15625 C45.04941643 163.30395935 45.04941643 163.30395935 44.46875 165.86328125 C44.10015869 167.3172229 44.10015869 167.3172229 43.72412109 168.80053711 C43.47484863 169.84604736 43.22557617 170.89155762 42.96875 171.96875 C42.70529785 173.03939697 42.4418457 174.11004395 42.17041016 175.21313477 C40.28819542 183.12415447 38.92182443 191.02600885 38.08203125 199.11450195 C37.19207999 206.85692125 34.67610782 214.60742989 28.96875 220.15625 C21.78191133 225.11332591 14.2652336 224.80132111 5.85107422 224.73266602 C3.47351552 224.71877784 1.09988513 224.75295836 -1.27734375 224.79101562 C-16.05543465 224.86506767 -16.05543465 224.86506767 -22.03125 219.15625 C-28.7339356 212.4535644 -29.64891797 203.36620633 -30.90625 194.40625 C-31.59185894 189.98581652 -32.30481116 185.57014835 -33.03125 181.15625 C-33.19286621 180.17188965 -33.35448242 179.1875293 -33.52099609 178.17333984 C-35.38323599 165.78327674 -35.38323599 165.78327674 -43.15625 156.59375 C-44.1153125 156.03816406 -45.074375 155.48257813 -46.0625 154.91015625 C-62.89528619 144.96552336 -72.18488272 124.47857295 -77.234375 106.515625 C-82.63680925 83.74065707 -78.21249172 60.04495648 -66.76171875 39.8515625 C-53.71436184 19.52949418 -34.53868134 6.54460328 -11.03125 1.15625 C-7.34184989 0.3704211 -3.76213785 0.19392463 0 0 Z " fill="#FED169" transform="translate(367.03125,62.84375)"/>
<path d="M0 0 C2.50640389 2.19263085 4.87508222 4.45937527 7.21484375 6.828125 C7.85035156 7.44171875 8.48585938 8.0553125 9.140625 8.6875 C20.67012317 20.65159123 25.22600075 37.4193626 25.27197266 53.63330078 C24.8595603 69.47769007 18.27181514 84.3896137 7.89453125 96.29296875 C1.2226311 102.60501423 -6.48417022 107.61525332 -15.03149414 110.96508789 C-15.92405411 111.31656387 -16.81661407 111.66803986 -17.73622131 112.03016663 C-18.41236984 112.29349289 -19.08851837 112.55681915 -19.78515625 112.828125 C-19.76881638 113.56933594 -19.7524765 114.31054688 -19.73564148 115.07421875 C-19.59189254 122.13347649 -19.51289354 129.19000665 -19.50274944 136.2505188 C-19.49535535 139.87914288 -19.46480455 143.50419174 -19.37719727 147.13183594 C-18.73353795 175.00497438 -18.73353795 175.00497438 -26.9921875 184.328125 C-28.64502265 186.00985829 -30.33476282 187.6121077 -32.09243774 189.18359375 C-35.06441907 192.07097056 -37.40211714 195.45119619 -39.78515625 198.828125 C-43.06679876 197.73424416 -43.53553761 197.18907328 -45.4921875 194.51171875 C-46.24918945 193.48788086 -46.24918945 193.48788086 -47.02148438 192.44335938 C-47.54162109 191.72470703 -48.06175781 191.00605469 -48.59765625 190.265625 C-49.36045898 189.22825195 -49.36045898 189.22825195 -50.13867188 188.16992188 C-51.11253663 186.84551518 -52.08339893 185.51889076 -53.05004883 184.18920898 C-54.65839329 181.88899163 -54.65839329 181.88899163 -56.2869873 180.27786255 C-61.91768036 173.99445533 -61.64711765 167.84654776 -61.58984375 159.703125 C-61.60111109 158.34689997 -61.61499921 156.99069442 -61.63137817 155.63452148 C-61.6672324 152.08994753 -61.66781361 148.54623926 -61.66070557 145.00152588 C-61.65978887 141.37456025 -61.69270461 137.74791257 -61.72265625 134.12109375 C-61.7763445 127.02339058 -61.7927215 119.92604903 -61.78515625 112.828125 C-62.88287354 112.28978027 -63.98059082 111.75143555 -65.11157227 111.19677734 C-66.56666574 110.47773478 -68.02165711 109.75848557 -69.4765625 109.0390625 C-70.19831665 108.68577881 -70.9200708 108.33249512 -71.66369629 107.96850586 C-87.71452917 100.00949087 -97.48127963 87.47475416 -103.8828125 71.00390625 C-108.65675636 55.43862882 -106.86158484 37.28151061 -100.09765625 22.703125 C-91.06217322 5.67556853 -77.39083352 -4.48977079 -59.79296875 -11.3359375 C-39.70871708 -17.42379849 -16.39659847 -12.78612728 0 0 Z " fill="#FED169" transform="translate(151.78515625,265.171875)"/>
<path d="M0 0 C2.28272042 1.60391899 4.2555057 3.1504547 6.3125 5 C6.86228516 5.47695312 7.41207031 5.95390625 7.97851562 6.4453125 C9.32858577 7.61928654 10.66562641 8.80821498 12 10 C13.22995949 9.0843974 14.45892386 8.16745797 15.6875 7.25 C16.78771484 6.43595703 16.78771484 6.43595703 17.91015625 5.60546875 C20.15159175 3.93515271 20.15159175 3.93515271 22.625 1.5625 C25 0 25 0 27.8125 0.1171875 C31.67827068 1.18785438 33.49575767 2.79998371 36.375 5.5625 C37.68597656 6.80193359 37.68597656 6.80193359 39.0234375 8.06640625 C40.00183594 9.02353516 40.00183594 9.02353516 41 10 C42.22995949 9.0843974 43.45892386 8.16745797 44.6875 7.25 C45.78771484 6.43595703 45.78771484 6.43595703 46.91015625 5.60546875 C49.15159175 3.93515271 49.15159175 3.93515271 51.625 1.5625 C54 0 54 0 57.1875 0.125 C60 1 60 1 62 3 C62.43132889 8.4959649 61.44111148 13.34188583 60.125 18.625 C59.95097656 19.36234375 59.77695312 20.0996875 59.59765625 20.859375 C58.66473457 24.71545127 57.59941417 28.35448843 56 32 C57.08539063 31.94199219 58.17078125 31.88398438 59.2890625 31.82421875 C60.73433176 31.77729442 62.17964784 31.73179713 63.625 31.6875 C64.33785156 31.64560547 65.05070312 31.60371094 65.78515625 31.56054688 C69.79907104 31.46848461 72.28187144 31.79532884 75.484375 34.33203125 C78 37 78 37 78.625 40 C77.80893007 43.91713568 77.02087451 45.32019196 74 48 C70.25925765 48.77413115 66.56048465 48.79073962 62.75 48.8125 C61.71875 48.83763672 60.6875 48.86277344 59.625 48.88867188 C57.08295011 48.94751562 54.54262084 48.98381507 52 49 C51.77860352 49.88147705 51.55720703 50.7629541 51.32910156 51.67114258 C50.49122314 54.99540995 49.64816288 58.31827855 48.80175781 61.64038086 C48.4390524 63.06825258 48.07831632 64.49662625 47.71972656 65.92553711 C43.01157585 84.67265679 43.01157585 84.67265679 40 91 C35.99057084 93.00471458 30.97111234 92.31639609 26.5625 92.375 C24.96825195 92.43107422 24.96825195 92.43107422 23.34179688 92.48828125 C15.6024914 92.57639478 15.6024914 92.57639478 12.92578125 90.015625 C12.62027344 89.02046875 12.31476563 88.0253125 12 87 C11.80510986 86.37754395 11.61021973 85.75508789 11.40942383 85.11376953 C10.7467274 82.88078771 10.17985046 80.63711816 9.625 78.375 C9.19685661 76.68874061 8.76846331 75.00254467 8.33984375 73.31640625 C8.12183105 72.44773926 7.90381836 71.57907227 7.67919922 70.68408203 C6.54907196 66.2180076 5.36590223 61.7660302 4.1875 57.3125 C3.76407754 55.70449168 3.34087744 54.09642477 2.91796875 52.48828125 C2.46357422 50.76158203 2.46357422 50.76158203 2 49 C1.35450195 48.9906543 0.70900391 48.98130859 0.04394531 48.97167969 C-2.88813944 48.91790899 -5.81864008 48.8342766 -8.75 48.75 C-9.76578125 48.73582031 -10.7815625 48.72164062 -11.828125 48.70703125 C-19.33074643 48.46023449 -19.33074643 48.46023449 -22.6640625 46.16796875 C-24.70140121 42.8617612 -24.66617375 40.7971904 -24 37 C-21.8930501 33.99919257 -21.30886577 33.2304325 -18 32 C-12.96083973 31.58928474 -8.04242764 31.71131139 -3 32 C-3.15146484 31.40574219 -3.30292969 30.81148437 -3.45898438 30.19921875 C-4.14909352 27.46850993 -4.82461744 24.7343867 -5.5 22 C-5.73847656 21.06542969 -5.97695313 20.13085938 -6.22265625 19.16796875 C-9.54356431 5.59968726 -9.54356431 5.59968726 -6.8125 1 C-4.25770083 -0.40954437 -2.91042796 -0.39241725 0 0 Z " fill="#FFFEFD" transform="translate(344,126)"/>
<path d="M0 0 C1.00905647 0.21194 1.00905647 0.21194 2.03849792 0.42816162 C2.92837906 0.61138977 3.81826019 0.79461792 4.73510742 0.98339844 C5.61406174 1.16594177 6.49301605 1.34848511 7.39860535 1.53656006 C11.06010702 2.18885867 14.60301683 2.29292555 18.3125 2.25 C18.96927734 2.25773437 19.62605469 2.26546875 20.30273438 2.2734375 C24.87939857 2.25608522 29.26953627 1.69919047 33.78979492 0.98339844 C34.95451828 0.80017029 36.11924164 0.61694214 37.31925964 0.42816162 C38.20390396 0.28686829 39.08854828 0.14557495 40 0 C40.30403807 7.80645448 40.53357455 15.61147157 40.67355824 23.4223938 C40.74082546 27.05165674 40.83166653 30.6768128 40.98071289 34.30371094 C42.09607754 62.17683245 42.09607754 62.17683245 33.82421875 71.5 C32.16435712 73.18322831 30.46730256 74.78491215 28.70077515 76.35546875 C25.71986812 79.23779847 23.38289434 82.61981761 21 86 C17.71835749 84.90611916 17.24961864 84.36094828 15.29296875 81.68359375 C14.5359668 80.65975586 14.5359668 80.65975586 13.76367188 79.61523438 C13.24353516 78.89658203 12.72339844 78.17792969 12.1875 77.4375 C11.67896484 76.74591797 11.17042969 76.05433594 10.64648438 75.34179688 C9.67261962 74.01739018 8.70175732 72.69076576 7.73510742 71.36108398 C6.1271284 69.0592785 6.1271284 69.0592785 4.49047852 67.44973755 C-1.17443727 61.15108554 -0.78135187 55.03423299 -0.5859375 46.875 C-0.57472695 45.51881805 -0.56619555 44.16261156 -0.56021118 42.80639648 C-0.53745741 39.26136497 -0.47865768 35.71784209 -0.4119873 32.17340088 C-0.35026916 28.54679771 -0.3231338 24.91994731 -0.29296875 21.29296875 C-0.22889572 14.19470064 -0.12668545 7.09744955 0 0 Z " fill="#FEFEFE" transform="translate(91,378)"/>
<path d="M0 0 C23.1 0 46.2 0 70 0 C68.25 24.5 68.25 24.5 60 32 C52.80918474 36.95509224 45.30091368 36.64510725 36.88232422 36.57641602 C34.50476552 36.56252784 32.13113513 36.59670836 29.75390625 36.63476562 C14.97581535 36.70881767 14.97581535 36.70881767 9 31 C2.06100678 24.06100678 1.01692037 14.34370363 0 5 C0 3.35 0 1.7 0 0 Z " fill="#6B6A68" transform="translate(336,251)"/>
<path d="M0 0 C4.55861422 0.71978119 5.74303732 1.95386113 8.5625 5.5625 C9.050404 8.43613185 9.24360053 10.70349171 9.19140625 13.56640625 C9.19381821 14.32670639 9.19623016 15.08700653 9.19871521 15.87034607 C9.19773907 17.47147864 9.18440072 19.07264594 9.15942383 20.67358398 C9.1250499 23.12144652 9.1387885 25.56570865 9.15820312 28.01367188 C9.15130574 29.57293199 9.14163431 31.13218283 9.12890625 32.69140625 C9.13386612 33.42065811 9.13882599 34.14990997 9.14393616 34.90126038 C9.06346959 38.3782093 8.81205214 40.24103219 6.65209961 43.0234375 C3.75048371 45.16057813 1.95139172 45.07759172 -1.53515625 44.8828125 C-4.26320187 44.42347012 -5.63060548 43.65849765 -7.4375 41.5625 C-9.13013967 35.44945875 -8.47535423 29.01240054 -8.30541992 22.7331543 C-8.25009189 20.50370281 -8.22160508 18.27485899 -8.19335938 16.04492188 C-8.15791104 14.62235347 -8.12085615 13.199824 -8.08203125 11.77734375 C-8.05471924 10.48948975 -8.02740723 9.20163574 -7.99926758 7.87475586 C-7.12039448 2.69280394 -5.1333321 0.8399998 0 0 Z " fill="#FCFDFC" transform="translate(164.4375,459.4375)"/>
<path d="M0 0 C4.04822349 0.73604064 5.00389116 1.36667538 7.4375 4.625 C7.90403489 7.3716868 8.13544528 9.7406751 8.1875 12.49609375 C8.22653442 13.63510887 8.22653442 13.63510887 8.26635742 14.7971344 C8.31590885 16.399726 8.35565296 18.00264702 8.38623047 19.60571289 C8.43728481 22.0521881 8.53095879 24.49445812 8.62890625 26.93945312 C8.67184756 28.49993122 8.71229499 30.06048035 8.75 31.62109375 C8.7799707 32.34832138 8.80994141 33.07554901 8.84082031 33.82481384 C8.88032218 37.48842413 8.54130445 39.4617074 6.55664062 42.58374023 C4.1527768 44.8992593 3.22437239 45.30628206 -0.0625 45.25 C-1.19171875 45.26933594 -1.19171875 45.26933594 -2.34375 45.2890625 C-5.69239049 44.28682855 -6.68173414 42.52736863 -8.5625 39.625 C-9.09594727 36.12329102 -9.09594727 36.12329102 -9.12890625 32.12890625 C-9.13510483 31.41774155 -9.14130341 30.70657684 -9.14768982 29.97386169 C-9.15476784 28.47534549 -9.15164914 26.97675031 -9.13891602 25.47827148 C-9.12505721 23.19691829 -9.15912993 20.91967851 -9.19726562 18.63867188 C-9.19821707 17.17708234 -9.19635663 15.71548771 -9.19140625 14.25390625 C-9.19213135 12.93463135 -9.19285645 11.61535645 -9.19360352 10.25610352 C-8.22309744 4.67222078 -5.88541454 1.03252887 0 0 Z " fill="#FBFDFA" transform="translate(57.5625,459.375)"/>
<path d="M0 0 C3.70492515 2.05829175 4.78327144 3.3115681 6.0625 7.375 C5.93624963 14.69752123 0.03519086 19.33519041 -4.69921875 24.45703125 C-6.14687334 26.05707054 -7.55302232 27.6966941 -8.89453125 29.38671875 C-11.6779464 32.88640778 -13.28981709 34.73835367 -17.5625 36.3125 C-22.23666886 35.88757556 -23.97101759 34.54612575 -27 31 C-27.9053217 27.3787132 -27.76286037 25.28684527 -25.83984375 22.04296875 C-23.99251169 19.59650197 -22.01882229 17.30770535 -20 15 C-18.97586104 13.78423702 -17.95387174 12.5666612 -16.93359375 11.34765625 C-6.81354559 -0.66799467 -6.81354559 -0.66799467 0 0 Z " fill="#CACACA" transform="translate(265,326)"/>
<path d="M0 0 C2.5 1.5 2.5 1.5 4 4 C4.90195267 8.35943791 4.91901402 10.52460992 2.5546875 14.3203125 C0.45467878 16.96445304 -1.75493419 19.47789883 -4 22 C-4.90103439 23.08554769 -5.79670984 24.17556158 -6.6875 25.26953125 C-13.682682 33.841341 -13.682682 33.841341 -16 35 C-23.0521327 35.56872038 -23.0521327 35.56872038 -26.5 33.5 C-28.15234004 30.74609994 -28.87087292 28.56326355 -28.703125 25.328125 C-27.09413594 20.00058345 -22.63767334 16.05951197 -19 12 C-17.33132178 9.976026 -15.70000351 7.92453767 -14.0625 5.875 C-9.76667031 0.52604804 -7.01596371 -0.95672232 0 0 Z " fill="#CACACA" transform="translate(298,289)"/>
<path d="M0 0 C3.76016643 2.59281367 6.84511734 5.7119567 10 9 C10.7115625 9.70382813 11.423125 10.40765625 12.15625 11.1328125 C15.16612845 14.27838219 16.83717897 16.49439784 18.1875 20.6875 C17.95707892 24.75827236 16.88871959 26.19381526 14 29 C10.98221063 30.50889469 9.37677363 30.50026276 6 30 C3.00574594 28.00811425 0.55658672 25.51629026 -2 23 C-2.89074219 22.19304687 -3.78148437 21.38609375 -4.69921875 20.5546875 C-5.60285156 19.71164063 -6.50648438 18.86859375 -7.4375 18 C-8.28183594 17.21625 -9.12617188 16.4325 -9.99609375 15.625 C-12.48712567 12.36189386 -12.83962769 10.06590964 -13 6 C-10.32144974 0.13269944 -6.33404915 -1.62303422 0 0 Z " fill="#454546" transform="translate(285,54)"/>
<path d="M0 0 C1.18916016 -0.03738281 2.37832031 -0.07476562 3.60351562 -0.11328125 C13.4010202 -0.21230151 13.4010202 -0.21230151 16.4765625 2.67578125 C18.72338178 6.2204208 18.86201738 8.25294935 18.1875 12.375 C16.32041495 14.73997439 14.86688569 16.03530715 12.1875 17.375 C8.25625325 17.67099687 4.3160823 17.65302989 0.375 17.6875 C-0.71876953 17.71650391 -1.81253906 17.74550781 -2.93945312 17.77539062 C-10.98966315 17.83916438 -10.98966315 17.83916438 -15.01171875 15.5703125 C-17.53366609 12.4958344 -17.8125 10.31987634 -17.8125 6.375 C-14.17178437 -1.5999009 -7.8118116 0.09224898 0 0 Z " fill="#444446" transform="translate(254.8125,139.625)"/>
<path d="M0 0 C2.05943408 3.08915112 2.6717046 5.05759546 2.57080078 8.76220703 C1.35102252 13.54428041 -2.58953803 16.64263864 -6.0625 19.9375 C-6.81466797 20.70384766 -7.56683594 21.47019531 -8.34179688 22.25976562 C-14.57603861 28.35366945 -14.57603861 28.35366945 -18.9140625 29.05078125 C-22.01866357 28.99969288 -23.52331565 28.834581 -26 27 C-28.56205842 23.15691236 -28.67366765 21.5659696 -28 17 C-26.04100253 13.96386888 -23.554189 11.54062694 -21 9 C-19.73736328 7.66582031 -19.73736328 7.66582031 -18.44921875 6.3046875 C-9.13412553 -3.38300945 -9.13412553 -3.38300945 0 0 Z " fill="#444445" transform="translate(464,52)"/>
<path d="M0 0 C1.69189453 -0.02320313 1.69189453 -0.02320313 3.41796875 -0.046875 C11.55820691 -0.00834133 11.55820691 -0.00834133 15.7421875 2.25 C17.68939184 4.74242155 18.17864529 5.86711483 18.125 9 C18.13789063 9.7528125 18.15078125 10.505625 18.1640625 11.28125 C17.08928325 14.87227715 15.81737074 15.70542233 12.5 17.5 C8.32499615 18.11385901 4.2133834 18.10343001 0 18.0625 C-1.12792969 18.08634766 -2.25585938 18.11019531 -3.41796875 18.13476562 C-11.61853943 18.1202084 -11.61853943 18.1202084 -15.7421875 15.21875 C-18.4289935 11.06315671 -18.27400291 9.37621835 -17.5 4.5 C-13.04217288 -1.11686218 -6.54423117 -0.08974946 0 0 Z " fill="#454546" transform="translate(486.5,137.5)"/>
<path d="M0 0 C0.7528125 -0.00128906 1.505625 -0.00257812 2.28125 -0.00390625 C5.36406833 0.78308082 6.50482611 2.10504227 8.5 4.5625 C9.01757812 7.32397461 9.01757812 7.32397461 9.03125 10.46484375 C9.03640625 11.60244141 9.0415625 12.74003906 9.046875 13.91210938 C9.02367187 15.68811523 9.02367187 15.68811523 9 17.5 C9.01546875 18.68013672 9.0309375 19.86027344 9.046875 21.07617188 C9.04171875 22.21505859 9.0365625 23.35394531 9.03125 24.52734375 C9.02673828 25.5649585 9.02222656 26.60257324 9.01757812 27.67163086 C8.37397763 31.26638249 7.01678677 32.96375904 4.5 35.5625 C0.79999505 36.66093897 -2.58537074 36.05499268 -5.9375 34.25 C-9.92841883 29.93980766 -8.76406356 23.18342096 -8.8125 17.6875 C-8.84150391 16.59824219 -8.87050781 15.50898438 -8.90039062 14.38671875 C-8.96375526 6.422271 -8.96375526 6.422271 -6.76171875 2.33984375 C-4.24944338 0.36560317 -3.15961186 -0.091975 0 0 Z " fill="#444445" transform="translate(368.5,15.4375)"/>
<path d="M0 0 C2.9375 2.0625 2.9375 2.0625 5 5 C5.49948692 9.20854818 5.40596784 11.33726617 3.171875 14.984375 C2.37265625 15.89703125 1.5734375 16.8096875 0.75 17.75 C-0.03890625 18.67296875 -0.8278125 19.5959375 -1.640625 20.546875 C-6.69898766 25.8062322 -6.69898766 25.8062322 -10.9375 26.4375 C-14.80874779 25.8844646 -16.35864164 24.8677605 -19 22 C-20.48689995 18.06408838 -20.21457447 16.48279256 -18.5 12.625 C-13.70313504 5.11102971 -9.49505653 -0.96559897 0 0 Z " fill="#CACACA" transform="translate(321,261)"/>
<path d="M0 0 C2.68799745 2.47578712 3.80229015 4.20916061 4.6875 7.75 C3.60384117 12.87275083 0.38898119 16.12687864 -3 20 C-3.804375 21.010625 -4.60875 22.02125 -5.4375 23.0625 C-9.21304075 25.91717716 -11.32892821 25.59315197 -16 25 C-18.4375 23.9375 -18.4375 23.9375 -20 22 C-21.02764496 18.30047814 -21.55068979 16.08721393 -19.78515625 12.6015625 C-17.85701824 9.79162833 -15.77708381 7.28515331 -13.5 4.75 C-12.33984375 3.44289063 -12.33984375 3.44289063 -11.15625 2.109375 C-7.52606157 -1.44189629 -4.71418576 -1.34691022 0 0 Z " fill="#CACACA" transform="translate(235,364)"/>
</svg>
