<?xml version="1.0" encoding="UTF-8"?>
<svg version="1.1" xmlns="http://www.w3.org/2000/svg" width="128" height="128">
<path d="M0 0 C2.13329342 -0.00968688 4.26561475 -0.04072669 6.39868164 -0.07226562 C7.77042076 -0.07879872 9.14216672 -0.08404799 10.51391602 -0.08789062 C11.75052979 -0.09723633 12.98714355 -0.10658203 14.26123047 -0.11621094 C19.76411238 0.43216171 23.56911603 1.96019666 27.53735352 5.96289062 C30.05544721 9.30351349 31.90447603 12.88860846 33.65063477 16.67773438 C34.11759766 17.62229492 34.11759766 17.62229492 34.59399414 18.5859375 C36.63105033 22.94210381 37.42547869 26.45249146 36.83813477 31.24023438 C33.79132416 33.27144145 33.23695153 33.48683312 29.82641602 33.43554688 C29.0690918 33.42910156 28.31176758 33.42265625 27.53149414 33.41601562 C26.74581055 33.39925781 25.96012695 33.3825 25.15063477 33.36523438 C24.35334961 33.35621094 23.55606445 33.3471875 22.73461914 33.33789062 C20.76899576 33.31435023 18.80352702 33.27847985 16.83813477 33.24023438 C16.83813477 34.89023437 16.83813477 36.54023437 16.83813477 38.24023438 C17.65797852 38.20542969 18.47782227 38.170625 19.32250977 38.13476562 C20.40016602 38.10769531 21.47782227 38.080625 22.58813477 38.05273438 C24.18915039 38.00052734 24.18915039 38.00052734 25.82250977 37.94726562 C29.16738676 38.27222129 30.49358359 38.8732473 32.83813477 41.24023438 C33.21313477 43.80273438 33.21313477 43.80273438 32.83813477 46.24023438 C30.83813477 48.24023438 30.83813477 48.24023438 28.67407227 48.43554688 C27.86196289 48.41234375 27.04985352 48.38914063 26.21313477 48.36523438 C25.39586914 48.3471875 24.57860352 48.32914063 23.73657227 48.31054688 C23.11008789 48.28734375 22.48360352 48.26414063 21.83813477 48.24023438 C22.12301758 49.33207031 22.40790039 50.42390625 22.70141602 51.54882812 C24.00220436 56.76461052 25.03368347 62.02068326 26.02563477 67.30273438 C26.21577148 68.25728516 26.4059082 69.21183594 26.60180664 70.1953125 C27.602762 75.54728415 28.12961721 79.91904441 26.83813477 85.24023438 C25.21313477 87.30273438 25.21313477 87.30273438 22.83813477 88.24023438 C19.21313477 87.61523438 19.21313477 87.61523438 15.83813477 86.24023438 C13.50204733 82.73610322 13.00483754 79.57302559 12.33032227 75.50976562 C12.15641968 74.51172913 12.15641968 74.51172913 11.97900391 73.49353027 C11.54922444 71.01460858 11.13191962 68.53353715 10.71313477 66.05273438 C9.76438477 60.50460938 8.81563477 54.95648438 7.83813477 49.24023438 C7.50813477 61.78023437 7.17813477 74.32023437 6.83813477 87.24023438 C9.47813477 87.24023438 12.11813477 87.24023438 14.83813477 87.24023438 C16.96313477 88.92773438 16.96313477 88.92773438 17.83813477 91.24023438 C17.15063477 93.92773438 17.15063477 93.92773438 15.83813477 96.24023438 C11.61050068 98.35405142 6.04554677 97.46962467 1.40063477 97.49023438 C-0.33669922 97.52117187 -0.33669922 97.52117187 -2.10913086 97.55273438 C-3.77298828 97.56046875 -3.77298828 97.56046875 -5.47045898 97.56835938 C-6.48938232 97.57770508 -7.50830566 97.58705078 -8.55810547 97.59667969 C-11.16186523 97.24023438 -11.16186523 97.24023438 -13.03710938 95.91894531 C-14.16186523 94.24023438 -14.16186523 94.24023438 -13.84936523 91.05273438 C-13.62249023 90.12460938 -13.39561523 89.19648437 -13.16186523 88.24023438 C-14.11061523 87.97210938 -15.05936523 87.70398438 -16.03686523 87.42773438 C-19.16186523 86.24023438 -19.16186523 86.24023438 -21.16186523 83.24023438 C-21.31298828 81.27001953 -21.31298828 81.27001953 -21.17358398 79.02929688 C-21.12717773 78.20220215 -21.08077148 77.37510742 -21.03295898 76.52294922 C-20.97237305 75.64590332 -20.91178711 74.76885742 -20.84936523 73.86523438 C-20.7681543 72.52452881 -20.7681543 72.52452881 -20.68530273 71.15673828 C-20.52189553 68.51704694 -20.34324992 65.87874294 -20.16186523 63.24023438 C-20.07428835 61.8600474 -19.98701183 60.47984131 -19.90014648 59.09960938 C-19.31527433 50.54705256 -19.31527433 50.54705256 -18.16186523 48.24023438 C-20.14186523 48.57023437 -22.12186523 48.90023437 -24.16186523 49.24023438 C-24.27071045 50.25303467 -24.37955566 51.26583496 -24.49169922 52.30932617 C-25.16979701 56.28675878 -26.29363413 59.43643559 -27.88452148 63.13476562 C-28.42867861 64.43336872 -28.97228114 65.73220432 -29.51538086 67.03125 C-30.36648874 69.04164661 -31.22290322 71.04935545 -32.08984375 73.05297852 C-35.41844776 80.78297955 -38.24890282 87.62911673 -37.16186523 96.24023438 C-41.82807652 97.59494088 -46.49313804 97.542091 -51.16186523 96.24023438 C-53.28686523 94.05273438 -53.28686523 94.05273438 -54.16186523 91.24023438 C-53.9235379 88.20156092 -53.52291514 85.96233418 -52.16186523 83.24023438 C-59.42186523 83.24023438 -66.68186523 83.24023438 -74.16186523 83.24023438 C-74.16186523 86.87023437 -74.16186523 90.50023438 -74.16186523 94.24023438 C-74.49186523 94.90023437 -74.82186523 95.56023437 -75.16186523 96.24023438 C-76.82798429 96.28295538 -78.49569408 96.2808727 -80.16186523 96.24023438 C-81.97673564 94.42536397 -81.31385678 91.58504523 -81.33764648 89.14257812 C-81.5523545 76.14365939 -81.75743882 64.02501241 -85.54858398 51.47167969 C-86.92180625 46.47516236 -87.88545005 41.37937798 -88.91186523 36.30273438 C-89.13455078 35.24723389 -89.35723633 34.1917334 -89.58666992 33.10424805 C-90.81568725 27.02138401 -91.39478502 21.44495877 -91.16186523 15.24023438 C-89.51186523 14.58023438 -87.86186523 13.92023437 -86.16186523 13.24023438 C-81.91522193 16.61107644 -81.13797993 20.25227737 -80.23999023 25.36523438 C-80.09027771 26.14914551 -79.94056519 26.93305664 -79.78631592 27.74072266 C-79.31355655 30.23807539 -78.86293631 32.73888399 -78.41186523 35.24023438 C-78.094202 36.92278095 -77.77520563 38.60507641 -77.45483398 40.28710938 C-77.15285784 41.8962606 -76.85203726 43.5056292 -76.55249023 45.11523438 C-76.411922 45.86949707 -76.27135376 46.62375977 -76.12652588 47.40087891 C-75.52227437 50.7610415 -75.16186523 53.81198962 -75.16186523 57.24023438 C-73.18186523 56.74523437 -73.18186523 56.74523437 -71.16186523 56.24023438 C-71.82186523 55.25023437 -72.48186523 54.26023438 -73.16186523 53.24023438 C-73.3821038 50.38583151 -73.48988856 47.63138597 -73.49780273 44.77539062 C-73.50445953 43.94567245 -73.51111633 43.11595428 -73.51797485 42.26109314 C-73.52809635 40.50684831 -73.53279203 38.75256502 -73.5324707 36.99829102 C-73.53684373 34.31592332 -73.57316608 31.63520152 -73.61108398 28.953125 C-73.61695232 27.2480525 -73.6209216 25.54297219 -73.62280273 23.83789062 C-73.63717377 23.03674332 -73.6515448 22.23559601 -73.66635132 21.41017151 C-73.63691883 17.81890199 -73.49540401 15.6885349 -71.32055664 12.76538086 C-66.00928978 9.01289454 -59.39005623 9.79700115 -53.16186523 10.24023438 C-47.65166115 12.26064254 -47.65166115 12.26064254 -46.16186523 15.24023438 C-45.96482466 18.32282473 -45.84368241 21.40327257 -45.73608398 24.49023438 C-45.45497206 27.31338631 -45.45497206 27.31338631 -43.41577148 28.60742188 C-40.96286967 29.29610488 -38.9553993 29.4400442 -36.41186523 29.36523438 C-35.21303711 29.33816406 -35.21303711 29.33816406 -33.98999023 29.31054688 C-33.38670898 29.28734375 -32.78342773 29.26414062 -32.16186523 29.24023438 C-32.02844727 27.75910156 -32.02844727 27.75910156 -31.89233398 26.24804688 C-31.24808615 21.77991265 -29.50300926 18.11207865 -27.47436523 14.11523438 C-27.14758789 13.42558594 -26.82081055 12.7359375 -26.48413086 12.02539062 C-23.9774483 7.0120255 -20.95718134 2.57509493 -15.40844727 0.62353516 C-10.34392095 -0.24054943 -5.12761048 0.01408845 0 0 Z M-13.16186523 12.24023438 C-14.81186523 15.54023437 -16.46186523 18.84023438 -18.16186523 22.24023438 C-16.18186523 22.24023438 -14.20186523 22.24023438 -12.16186523 22.24023438 C-12.16186523 18.94023438 -12.16186523 15.64023437 -12.16186523 12.24023438 C-12.49186523 12.24023438 -12.82186523 12.24023438 -13.16186523 12.24023438 Z M16.83813477 12.24023438 C16.83813477 15.54023437 16.83813477 18.84023438 16.83813477 22.24023438 C18.81813477 22.24023438 20.79813477 22.24023438 22.83813477 22.24023438 C21.18813477 18.94023438 19.53813477 15.64023437 17.83813477 12.24023438 C17.50813477 12.24023438 17.17813477 12.24023438 16.83813477 12.24023438 Z M-15.16186523 33.24023438 C-15.49186523 34.89023437 -15.82186523 36.54023437 -16.16186523 38.24023438 C-14.84186523 38.24023438 -13.52186523 38.24023438 -12.16186523 38.24023438 C-12.16186523 36.59023437 -12.16186523 34.94023438 -12.16186523 33.24023438 C-13.15186523 33.24023438 -14.14186523 33.24023438 -15.16186523 33.24023438 Z M-38.28686523 41.24023438 C-39.0409668 41.335625 -39.79506836 41.43101563 -40.57202148 41.52929688 C-42.43544269 41.76517298 -44.29867246 42.00256058 -46.16186523 42.24023438 C-46.16186523 42.90023437 -46.16186523 43.56023437 -46.16186523 44.24023438 C-40.55186523 44.24023438 -34.94186523 44.24023438 -29.16186523 44.24023438 C-28.83186523 42.92023438 -28.50186523 41.60023437 -28.16186523 40.24023438 C-31.56062675 40.24023438 -34.91961582 40.8098778 -38.28686523 41.24023438 Z M-5.16186523 48.24023438 C-5.24227051 49.24401123 -5.32267578 50.24778809 -5.40551758 51.28198242 C-5.70698703 55.01931445 -6.01882423 58.75572235 -6.33374023 62.49194336 C-6.46839102 64.10661995 -6.60025956 65.72153114 -6.72924805 67.33666992 C-6.91554855 69.66327664 -7.11196342 71.98884553 -7.31030273 74.31445312 C-7.3656015 75.03235519 -7.42090027 75.75025726 -7.47787476 76.48991394 C-7.82287639 80.40761659 -8.47895332 83.67695699 -10.16186523 87.24023438 C-7.85186523 87.24023438 -5.54186523 87.24023438 -3.16186523 87.24023438 C-3.16186523 74.37023437 -3.16186523 61.50023437 -3.16186523 48.24023438 C-3.82186523 48.24023438 -4.48186523 48.24023438 -5.16186523 48.24023438 Z M-74.16186523 66.24023438 C-74.16186523 69.54023437 -74.16186523 72.84023437 -74.16186523 76.24023438 C-66.57186523 76.24023438 -58.98186523 76.24023438 -51.16186523 76.24023438 C-52.02226347 71.14918974 -52.02226347 71.14918974 -54.16186523 66.24023438 C-60.76186523 66.24023438 -67.36186523 66.24023438 -74.16186523 66.24023438 Z " fill="#424F86" transform="translate(91.161865234375,27.759765625)"/>
<path d="M0 0 C2.13329342 -0.00968688 4.26561475 -0.04072669 6.39868164 -0.07226562 C7.77042076 -0.07879872 9.14216672 -0.08404799 10.51391602 -0.08789062 C11.75052979 -0.09723633 12.98714355 -0.10658203 14.26123047 -0.11621094 C19.76411238 0.43216171 23.56911603 1.96019666 27.53735352 5.96289062 C30.05544721 9.30351349 31.90447603 12.88860846 33.65063477 16.67773438 C34.11759766 17.62229492 34.11759766 17.62229492 34.59399414 18.5859375 C36.63105033 22.94210381 37.42547869 26.45249146 36.83813477 31.24023438 C33.79132416 33.27144145 33.23695153 33.48683312 29.82641602 33.43554688 C29.0690918 33.42910156 28.31176758 33.42265625 27.53149414 33.41601562 C26.74581055 33.39925781 25.96012695 33.3825 25.15063477 33.36523438 C24.35334961 33.35621094 23.55606445 33.3471875 22.73461914 33.33789062 C20.76899576 33.31435023 18.80352702 33.27847985 16.83813477 33.24023438 C16.83813477 35.22023437 16.83813477 37.20023438 16.83813477 39.24023438 C7.26813477 39.24023438 -2.30186523 39.24023438 -12.16186523 39.24023438 C-12.16186523 37.26023438 -12.16186523 35.28023437 -12.16186523 33.24023438 C-13.15186523 33.24023438 -14.14186523 33.24023438 -15.16186523 33.24023438 C-15.30624023 34.04460938 -15.45061523 34.84898438 -15.59936523 35.67773438 C-16.16186523 38.24023438 -16.16186523 38.24023438 -17.16186523 39.24023438 C-20.99003476 39.94790581 -24.86290869 40.37661421 -28.72436523 40.86523438 C-29.79750977 41.0121875 -30.8706543 41.15914062 -31.97631836 41.31054688 C-37.92056933 42.06768356 -43.31748123 42.74530985 -49.16186523 41.24023438 C-51.69311523 38.95507812 -51.69311523 38.95507812 -53.66186523 36.17773438 C-54.33217773 35.25863281 -55.00249023 34.33953125 -55.69311523 33.39257812 C-56.17780273 32.68230469 -56.66249023 31.97203125 -57.16186523 31.24023438 C-54.35382256 28.27618933 -51.9787075 25.79524419 -48.16186523 24.24023438 C-47.56374023 25.06523438 -46.96561523 25.89023437 -46.34936523 26.74023438 C-44.32571567 28.82859366 -43.32213704 29.2211008 -40.38061523 29.57226562 C-37.62623084 29.5545183 -34.90743554 29.45661032 -32.16186523 29.24023438 C-32.07291992 28.2528125 -31.98397461 27.26539062 -31.89233398 26.24804688 C-31.24808615 21.77991265 -29.50300926 18.11207865 -27.47436523 14.11523438 C-27.14758789 13.42558594 -26.82081055 12.7359375 -26.48413086 12.02539062 C-23.9774483 7.0120255 -20.95718134 2.57509493 -15.40844727 0.62353516 C-10.34392095 -0.24054943 -5.12761048 0.01408845 0 0 Z M-13.16186523 12.24023438 C-14.81186523 15.54023437 -16.46186523 18.84023438 -18.16186523 22.24023438 C-16.18186523 22.24023438 -14.20186523 22.24023438 -12.16186523 22.24023438 C-12.16186523 18.94023438 -12.16186523 15.64023437 -12.16186523 12.24023438 C-12.49186523 12.24023438 -12.82186523 12.24023438 -13.16186523 12.24023438 Z M16.83813477 12.24023438 C16.83813477 15.54023437 16.83813477 18.84023438 16.83813477 22.24023438 C18.81813477 22.24023438 20.79813477 22.24023438 22.83813477 22.24023438 C21.18813477 18.94023438 19.53813477 15.64023437 17.83813477 12.24023438 C17.50813477 12.24023438 17.17813477 12.24023438 16.83813477 12.24023438 Z " fill="#B86747" transform="translate(91.161865234375,27.759765625)"/>
<path d="M0 0 C0.9973819 -0.00570007 1.99476379 -0.01140015 3.02236938 -0.01727295 C5.11141928 -0.02664851 7.20048346 -0.03322695 9.28955078 -0.03710938 C12.48886179 -0.04691269 15.68755531 -0.07804425 18.88671875 -0.109375 C20.92447538 -0.11589723 22.96223656 -0.12115075 25 -0.125 C25.95417816 -0.1373468 26.90835632 -0.1496936 27.89144897 -0.16241455 C29.2240123 -0.1579129 29.2240123 -0.1579129 30.58349609 -0.15332031 C31.36163666 -0.15696594 32.13977722 -0.16061157 32.9414978 -0.16436768 C35.69523774 0.30412721 37.08093972 1.30224991 39.1015625 3.203125 C39.4765625 5.765625 39.4765625 5.765625 39.1015625 8.203125 C37.1015625 10.203125 37.1015625 10.203125 34.9375 10.3984375 C33.71933594 10.36363281 33.71933594 10.36363281 32.4765625 10.328125 C31.65929687 10.31007813 30.84203125 10.29203125 30 10.2734375 C29.37351563 10.25023438 28.74703125 10.22703125 28.1015625 10.203125 C28.38644531 11.29496094 28.67132813 12.38679688 28.96484375 13.51171875 C30.26563209 18.72750114 31.29711121 23.98357389 32.2890625 29.265625 C32.47919922 30.22017578 32.66933594 31.17472656 32.86523438 32.15820312 C33.86618973 37.51017477 34.39304494 41.88193504 33.1015625 47.203125 C31.4765625 49.265625 31.4765625 49.265625 29.1015625 50.203125 C25.4765625 49.578125 25.4765625 49.578125 22.1015625 48.203125 C19.76547506 44.69899384 19.26826527 41.53591621 18.59375 37.47265625 C18.41984741 36.47461975 18.41984741 36.47461975 18.24243164 35.4564209 C17.81265217 32.97749921 17.39534735 30.49642777 16.9765625 28.015625 C15.5534375 19.6934375 15.5534375 19.6934375 14.1015625 11.203125 C13.7715625 23.743125 13.4415625 36.283125 13.1015625 49.203125 C15.7415625 49.203125 18.3815625 49.203125 21.1015625 49.203125 C23.2265625 50.890625 23.2265625 50.890625 24.1015625 53.203125 C23.4140625 55.890625 23.4140625 55.890625 22.1015625 58.203125 C17.87392841 60.31694204 12.3089745 59.4325153 7.6640625 59.453125 C6.50583984 59.47375 5.34761719 59.494375 4.15429688 59.515625 C2.49043945 59.52335937 2.49043945 59.52335937 0.79296875 59.53125 C-0.73541626 59.54526855 -0.73541626 59.54526855 -2.29467773 59.55957031 C-4.8984375 59.203125 -4.8984375 59.203125 -6.77368164 57.88183594 C-7.8984375 56.203125 -7.8984375 56.203125 -7.5859375 53.015625 C-7.3590625 52.0875 -7.1321875 51.159375 -6.8984375 50.203125 C-7.8471875 49.935 -8.7959375 49.666875 -9.7734375 49.390625 C-12.8984375 48.203125 -12.8984375 48.203125 -14.8984375 45.203125 C-15.04956055 43.23291016 -15.04956055 43.23291016 -14.91015625 40.9921875 C-14.84054688 39.75154541 -14.84054688 39.75154541 -14.76953125 38.48583984 C-14.70894531 37.60879395 -14.64835937 36.73174805 -14.5859375 35.828125 C-14.53179687 34.93432129 -14.47765625 34.04051758 -14.421875 33.11962891 C-14.2584678 30.47993756 -14.07982219 27.84163357 -13.8984375 25.203125 C-13.81086061 23.82293803 -13.72358409 22.44273194 -13.63671875 21.0625 C-13.05184659 12.50994318 -13.05184659 12.50994318 -11.8984375 10.203125 C-13.1565625 10.265 -14.4146875 10.326875 -15.7109375 10.390625 C-18.38547151 10.38114084 -19.61296748 10.36748653 -21.9609375 9.015625 C-23.2929897 6.44032407 -22.75196151 4.90595104 -21.8984375 2.203125 C-17.98164401 -1.71366849 -5.30600817 0.02393748 0 0 Z M1.1015625 10.203125 C1.02115723 11.20690186 0.94075195 12.21067871 0.85791016 13.24487305 C0.5564407 16.98220508 0.2446035 20.71861297 -0.0703125 24.45483398 C-0.20496329 26.06951057 -0.33683183 27.68442176 -0.46582031 29.29956055 C-0.65212082 31.62616726 -0.84853568 33.95173616 -1.046875 36.27734375 C-1.10217377 36.99524582 -1.15747253 37.71314789 -1.21444702 38.45280457 C-1.55944866 42.37050721 -2.21552559 45.63984762 -3.8984375 49.203125 C-1.5884375 49.203125 0.7215625 49.203125 3.1015625 49.203125 C3.1015625 36.333125 3.1015625 23.463125 3.1015625 10.203125 C2.4415625 10.203125 1.7815625 10.203125 1.1015625 10.203125 Z " fill="#69270E" transform="translate(84.8984375,65.796875)"/>
<path d="M0 0 C2.13329342 -0.00968688 4.26561475 -0.04072669 6.39868164 -0.07226562 C7.77042076 -0.07879872 9.14216672 -0.08404799 10.51391602 -0.08789062 C11.75052979 -0.09723633 12.98714355 -0.10658203 14.26123047 -0.11621094 C19.82218021 0.43794827 23.60462006 1.97868524 27.58813477 6.05273438 C32.83813477 13.49023438 32.83813477 13.49023438 32.83813477 17.24023438 C31.59392829 17.77475997 30.34242541 18.29232048 29.08813477 18.80273438 C28.39204102 19.09277344 27.69594727 19.3828125 26.97875977 19.68164062 C24.47121974 20.33598045 23.21742685 20.24840899 20.83813477 19.24023438 C19.08813477 16.17773438 19.08813477 16.17773438 17.83813477 13.24023438 C17.50813477 16.21023437 17.17813477 19.18023437 16.83813477 22.24023438 C14.78735352 22.46809896 12.73657227 22.69596354 10.68579102 22.92382812 C8.82673248 23.05910052 8.82673248 23.05910052 7.83813477 24.24023438 C7.79732694 26.23981801 7.7955912 28.24068691 7.83813477 30.24023438 C10.31313477 31.23023438 10.31313477 31.23023438 12.83813477 32.24023438 C12.50813477 33.23023438 12.17813477 34.22023437 11.83813477 35.24023438 C4.31270227 37.79122844 -0.71228365 36.90079923 -8.16186523 34.24023438 C-8.16186523 33.58023438 -8.16186523 32.92023437 -8.16186523 32.24023438 C-6.51186523 31.58023438 -4.86186523 30.92023437 -3.16186523 30.24023438 C-3.16186523 28.26023437 -3.16186523 26.28023437 -3.16186523 24.24023438 C-6.13186523 23.58023438 -9.10186523 22.92023437 -12.16186523 22.24023438 C-12.49186523 19.27023438 -12.82186523 16.30023438 -13.16186523 13.24023438 C-14.48186523 15.55023438 -15.80186523 17.86023438 -17.16186523 20.24023438 C-18.62089781 19.93101554 -20.07907245 19.61774638 -21.53686523 19.30273438 C-22.7550293 19.04169922 -22.7550293 19.04169922 -23.99780273 18.77539062 C-26.16186523 18.24023438 -26.16186523 18.24023438 -28.16186523 17.24023438 C-26.19607651 10.35997384 -23.15523108 5.28575632 -17.16186523 1.24023438 C-11.74285013 -0.62367959 -5.66845635 0.01557447 0 0 Z " fill="#5B8596" transform="translate(91.161865234375,27.759765625)"/>
<path d="M0 0 C2.5847168 0.54492188 2.5847168 0.54492188 5 2 C6.05004883 4.34570312 6.05004883 4.34570312 6.64453125 7.28125 C6.87350098 8.36019531 7.1024707 9.43914063 7.33837891 10.55078125 C7.55671387 11.68902344 7.77504883 12.82726562 8 14 C8.34490479 15.66095703 8.34490479 15.66095703 8.69677734 17.35546875 C9.38942929 20.73196315 10.04337012 24.1139396 10.6875 27.5 C11.02491211 29.22863281 11.02491211 29.22863281 11.36914062 30.9921875 C11.6872168 32.65121094 11.6872168 32.65121094 12.01171875 34.34375 C12.20209717 35.33568359 12.39247559 36.32761719 12.58862305 37.34960938 C13 40 13 40 13 44 C28.84 44.495 28.84 44.495 45 45 C45.33 45.66 45.66 46.32 46 47 C45 49 44 51 43 53 C42.21483521 55.43160729 41.51704687 57.87509627 40.84375 60.33984375 C39.79597319 63.64325119 38.36516409 66.81461713 37 70 C29.41 70 21.82 70 14 70 C14 73.63 14 77.26 14 81 C13.67 81.66 13.34 82.32 13 83 C11.33388095 83.042721 9.66617115 83.04063832 8 83 C6.1851296 81.1851296 6.84800846 78.34481085 6.82421875 75.90234375 C6.60951073 62.90342501 6.40442642 50.78477803 2.61328125 38.23144531 C1.24005898 33.23492799 0.27641518 28.13914361 -0.75 23.0625 C-0.97268555 22.00699951 -1.19537109 20.95149902 -1.42480469 19.86401367 C-2.64837103 13.80812861 -3.52380213 8.17961796 -3 2 C-2.01 1.34 -1.02 0.68 0 0 Z M14 53 C14 56.3 14 59.6 14 63 C21.59 63 29.18 63 37 63 C36.13960177 57.90895537 36.13960177 57.90895537 34 53 C27.4 53 20.8 53 14 53 Z " fill="#823113" transform="translate(3,41)"/>
<path d="M0 0 C0.9973819 -0.00570007 1.99476379 -0.01140015 3.02236938 -0.01727295 C5.11141928 -0.02664851 7.20048346 -0.03322695 9.28955078 -0.03710938 C12.48886179 -0.04691269 15.68755531 -0.07804425 18.88671875 -0.109375 C20.92447538 -0.11589723 22.96223656 -0.12115075 25 -0.125 C25.95417816 -0.1373468 26.90835632 -0.1496936 27.89144897 -0.16241455 C29.2240123 -0.1579129 29.2240123 -0.1579129 30.58349609 -0.15332031 C31.36163666 -0.15696594 32.13977722 -0.16061157 32.9414978 -0.16436768 C35.69523774 0.30412721 37.08093972 1.30224991 39.1015625 3.203125 C39.4765625 5.765625 39.4765625 5.765625 39.1015625 8.203125 C37.1015625 10.203125 37.1015625 10.203125 34.9375 10.3984375 C33.71933594 10.36363281 33.71933594 10.36363281 32.4765625 10.328125 C31.65929687 10.31007813 30.84203125 10.29203125 30 10.2734375 C29.37351563 10.25023438 28.74703125 10.22703125 28.1015625 10.203125 C28.38644531 11.29496094 28.67132813 12.38679688 28.96484375 13.51171875 C30.26563209 18.72750114 31.29711121 23.98357389 32.2890625 29.265625 C32.47919922 30.22017578 32.66933594 31.17472656 32.86523438 32.15820312 C33.86618973 37.51017477 34.39304494 41.88193504 33.1015625 47.203125 C31.4765625 49.265625 31.4765625 49.265625 29.1015625 50.203125 C25.4765625 49.578125 25.4765625 49.578125 22.1015625 48.203125 C19.76519899 44.69857974 19.26840785 41.53569004 18.59375 37.47265625 C18.39823044 36.34702522 18.39823044 36.34702522 18.19876099 35.19865417 C17.7846449 32.80541074 17.38048909 30.41060709 16.9765625 28.015625 C16.69726965 26.39116328 16.41732938 24.76681273 16.13671875 23.14257812 C15.45081872 19.16401062 14.77384563 15.1840151 14.1015625 11.203125 C13.08731201 11.18854248 12.07306152 11.17395996 11.02807617 11.15893555 C7.26502221 11.10096247 3.50256729 11.02373041 -0.26000977 10.94067383 C-1.88849159 10.90741964 -3.51708881 10.87938916 -5.14575195 10.85668945 C-7.48699111 10.82315143 -9.82717236 10.77083915 -12.16796875 10.71484375 C-12.89619339 10.70845383 -13.62441803 10.7020639 -14.37471008 10.69548035 C-17.33478883 10.60937589 -19.41509227 10.53391569 -21.8972168 8.83520508 C-22.8984375 7.203125 -22.8984375 7.203125 -22.6484375 4.578125 C-21.8984375 2.203125 -21.8984375 2.203125 -20.8984375 1.203125 C-13.99597647 0.08078982 -6.97569418 0.03147008 0 0 Z " fill="#813214" transform="translate(84.8984375,65.796875)"/>
<path d="M0 0 C2.25 1.625 2.25 1.625 3.25 3.625 C3.32033769 5.49879605 3.3343022 7.37501102 3.3125 9.25 C3.30347656 10.25289062 3.29445313 11.25578125 3.28515625 12.2890625 C3.27355469 13.05992188 3.26195313 13.83078125 3.25 14.625 C2.26 14.295 1.27 13.965 0.25 13.625 C-1.6448204 14.59729848 -1.6448204 14.59729848 -3.4375 16.0625 C-4.06011719 16.53558594 -4.68273437 17.00867188 -5.32421875 17.49609375 C-5.79472656 17.86863281 -6.26523437 18.24117187 -6.75 18.625 C-3.02992996 25.548426 -3.02992996 25.548426 3.25 29.625 C3.25 30.615 3.25 31.605 3.25 32.625 C-15.85 37.625 -15.85 37.625 -23.75 37.625 C-23.84900135 32.85618124 -23.92152928 28.0879627 -23.96972656 23.31835938 C-23.98982144 21.69650857 -24.01710254 20.07473003 -24.05175781 18.453125 C-24.1003727 16.1196102 -24.12298889 13.78705443 -24.140625 11.453125 C-24.16127014 10.73006165 -24.18191528 10.00699829 -24.20318604 9.26202393 C-24.20471123 5.82717926 -24.01334386 3.9729051 -21.91308594 1.19824219 C-15.96060387 -3.13107998 -6.61329025 -2.42487309 0 0 Z " fill="#64AEFE" transform="translate(41.75,39.375)"/>
<path d="M0 0 C4.62 0 9.24 0 14 0 C15.64730698 6.31343445 16.98333848 12.65044859 18.1875 19.0625 C18.37763672 20.01705078 18.56777344 20.97160156 18.76367188 21.95507812 C19.76462723 27.30704977 20.29148244 31.67881004 19 37 C17.375 39.0625 17.375 39.0625 15 40 C11.375 39.375 11.375 39.375 8 38 C5.62516997 34.43775496 5.15856986 31.18452192 4.4921875 27.05078125 C4.36184113 26.27816452 4.23149475 25.50554779 4.09719849 24.70951843 C3.68300396 22.2449255 3.2788865 19.77880097 2.875 17.3125 C2.59571479 15.63986317 2.31577466 13.96733555 2.03515625 12.29492188 C1.34916862 8.1978425 0.67221299 4.09936096 0 0 Z " fill="#414A82" transform="translate(99,76)"/>
<path d="M0 0 C4.29 0 8.58 0 13 0 C12.8575245 3.60432691 12.71109881 7.20842444 12.5625 10.8125 C12.50352539 12.31973633 12.50352539 12.31973633 12.44335938 13.85742188 C11.55143965 35.19488609 11.55143965 35.19488609 8 39 C5.625 40 5.625 40 3 40 C-1.59701493 37.80597015 -1.59701493 37.80597015 -3 35 C-3.03759766 33.14331055 -3.03759766 33.14331055 -2.9140625 30.88671875 C-2.87087891 30.05640137 -2.82769531 29.22608398 -2.78320312 28.37060547 C-2.73099609 27.48518066 -2.67878906 26.59975586 -2.625 25.6875 C-2.57537109 24.78918457 -2.52574219 23.89086914 -2.47460938 22.96533203 C-2.32435204 20.30967631 -2.16448885 17.65480914 -2 15 C-1.95584961 14.27989746 -1.91169922 13.55979492 -1.86621094 12.81787109 C-1.20893264 2.41786528 -1.20893264 2.41786528 0 0 Z " fill="#414B82" transform="translate(73,76)"/>
<path d="M0 0 C2.81485619 2.48369664 3.93119986 4.29359959 5.125 7.875 C5.32648794 12.44474638 4.72462755 15.86848233 2.375 19.8125 C-1.37357972 23.24869807 -4.28959713 24.0976261 -9.3125 23.9375 C-12.90307982 23.41512467 -14.89376686 22.47298337 -17.4375 19.875 C-20.04884839 16.33258588 -20.64805051 13.37815713 -20.3359375 9.0234375 C-19.60713236 5.6264644 -18.14549672 3.46084349 -15.875 0.875 C-10.91127254 -2.16359207 -5.3372215 -2.08847798 0 0 Z " fill="#FFB69E" transform="translate(43.875,12.125)"/>
<path d="M0 0 C0.72832031 0.83273438 1.45664062 1.66546875 2.20703125 2.5234375 C6.27657402 5.91532072 10.20652067 5.28304601 15.26757812 4.9375 C16.39615234 4.834375 17.52472656 4.73125 18.6875 4.625 C20.94027912 4.43652555 23.19422664 4.26139655 25.44921875 4.1015625 C26.44268311 4.01213379 27.43614746 3.92270508 28.4597168 3.83056641 C31 4 31 4 32.82739258 5.30224609 C34.61037453 7.88372778 34.32417633 9.95274248 34 13 C30.48019327 16.51980673 25.16653118 16.11330825 20.375 16.6875 C19.30636719 16.82994141 18.23773438 16.97238281 17.13671875 17.11914062 C11.21704064 17.85090895 5.81723543 18.48993781 0 17 C-2.53125 14.71484375 -2.53125 14.71484375 -4.5 11.9375 C-5.50546875 10.55884766 -5.50546875 10.55884766 -6.53125 9.15234375 C-7.0159375 8.44207031 -7.500625 7.73179688 -8 7 C-5.42215154 4.35247996 -3.08351902 2.05567935 0 0 Z " fill="#FCB49D" transform="translate(42,52)"/>
<path d="M0 0 C2.31 0.33 4.62 0.66 7 1 C7 4.3 7 7.6 7 11 C14.59 11 22.18 11 30 11 C28.515 6.05 28.515 6.05 27 1 C29.64 1 32.28 1 35 1 C34.42452109 7.61800742 32.66796826 11.33007936 30 18 C22.41 18 14.82 18 7 18 C7 21.63 7 25.26 7 29 C6.67 29.66 6.34 30.32 6 31 C4.33388095 31.042721 2.66617115 31.04063832 1 31 C0 30 0 30 -0.11352539 27.13256836 C-0.10828857 25.88096924 -0.10305176 24.62937012 -0.09765625 23.33984375 C-0.0962413 22.67537735 -0.09482635 22.01091095 -0.09336853 21.3263092 C-0.08775518 19.19666101 -0.07520054 17.06711661 -0.0625 14.9375 C-0.05748671 13.49674631 -0.05292351 12.05599097 -0.04882812 10.61523438 C-0.03778145 7.07678898 -0.02050792 3.53840461 0 0 Z " fill="#68280F" transform="translate(10,93)"/>
<path d="M0 0 C1.2684375 0.12568359 1.2684375 0.12568359 2.5625 0.25390625 C8.92574237 0.82515187 14.70148662 1.11150236 21 0 C21 3.96 21 7.92 21 12 C19.35 12.66 17.7 13.32 16 14 C16 15.98 16 17.96 16 20 C17.65 20.66 19.3 21.32 21 22 C20.67 22.99 20.34 23.98 20 25 C12.4745675 27.55099407 7.44958158 26.66056485 0 24 C0 23.34 0 22.68 0 22 C1.65 21.34 3.3 20.68 5 20 C5 18.02 5 16.04 5 14 C2.525 13.01 2.525 13.01 0 12 C0 8.04 0 4.08 0 0 Z " fill="#A0D7F7" transform="translate(83,38)"/>
<path d="M0 0 C3.55163779 2.54791407 5.23401738 4.68385185 6 8.9375 C6.24754613 13.0374827 5.49533622 15.64689195 3 19 C-0.76669911 21.24553216 -3.23901235 22 -7.625 22 C-11.7789098 20.76921191 -13.42930457 19.47799969 -16 16 C-17.23778002 11.82249244 -17.12368284 9.46381066 -16 5.25 C-12.20834522 -0.91143902 -6.72373368 -1.99221739 0 0 Z " fill="#BA6645" transform="translate(99,4)"/>
<path d="M0 0 C1.258125 -0.02900391 2.51625 -0.05800781 3.8125 -0.08789062 C5.01648438 -0.09626953 6.22046875 -0.10464844 7.4609375 -0.11328125 C8.57001465 -0.12786377 9.6790918 -0.14244629 10.82177734 -0.1574707 C13.625 0.3125 13.625 0.3125 15.55322266 2.17114258 C16.625 4.3125 16.625 4.3125 15.9375 7 C14.625 9.3125 14.625 9.3125 12.625 10.3125 C8.48462368 10.5821249 4.33566454 10.54409439 0.1875 10.5625 C-0.97072266 10.583125 -2.12894531 10.60375 -3.32226562 10.625 C-4.98612305 10.63273437 -4.98612305 10.63273437 -6.68359375 10.640625 C-8.21197876 10.65464355 -8.21197876 10.65464355 -9.77124023 10.66894531 C-12.375 10.3125 -12.375 10.3125 -14.24633789 8.98730469 C-15.375 7.3125 -15.375 7.3125 -15.125 4.1875 C-13.43292864 -2.29877353 -5.68246381 0.04339967 0 0 Z " fill="#823113" transform="translate(92.375,114.6875)"/>
<path d="M0 0 C1.4391134 0.28359887 2.87625518 0.57721399 4.3125 0.875 C5.11300781 1.03742187 5.91351563 1.19984375 6.73828125 1.3671875 C9 2 9 2 12 4 C14.86878729 4.38515717 14.86878729 4.38515717 18 4.5 C23.66666667 4.77777778 23.66666667 4.77777778 27 7 C27.3125 10 27.3125 10 27 13 C24.47260632 15.52739368 23.07162202 15.49286453 19.5625 15.875 C18.59441406 15.99617188 17.62632813 16.11734375 16.62890625 16.2421875 C15.32759766 16.12230469 15.32759766 16.12230469 14 16 C13.53851563 15.34773438 13.07703125 14.69546875 12.6015625 14.0234375 C11.07778314 11.60826398 11.07778314 11.60826398 7.64453125 11.609375 C6.37996094 11.65578125 5.11539063 11.7021875 3.8125 11.75 C2.54019531 11.78609375 1.26789062 11.8221875 -0.04296875 11.859375 C-1.50669922 11.92898437 -1.50669922 11.92898437 -3 12 C-2.49202991 7.6822542 -1.80317221 3.96697886 0 0 Z " fill="#BA6747" transform="translate(62,45)"/>
<path d="M0 0 C4.95 0.99 4.95 0.99 10 2 C10 9.92 10 17.84 10 26 C7.03 25.67 4.06 25.34 1 25 C0.67 24.01 0.34 23.02 0 22 C1.65 21.34 3.3 20.68 5 20 C5 18.02 5 16.04 5 14 C2.525 13.01 2.525 13.01 0 12 C0 8.04 0 4.08 0 0 Z " fill="#FAF9F9" transform="translate(83,38)"/>
<path d="M0 0 C5.4518838 1.8172946 7.64876718 5.58401142 10.75 10.25 C7.66008328 13.44739209 4.50754796 15.85883312 0.75 18.25 C-0.43106063 16.69835147 -1.59435453 15.13316894 -2.75 13.5625 C-3.3996875 12.69238281 -4.049375 11.82226562 -4.71875 10.92578125 C-6.38517064 8.0137962 -6.66066364 6.54093463 -6.25 3.25 C-4.55309572 0.25546303 -3.44539863 0.26503066 0 0 Z " fill="#7CBCFA" transform="translate(32.25,40.75)"/>
<path d="M0 0 C0.99 0 1.98 0 3 0 C3.33 0.66 3.66 1.32 4 2 C10.28915596 4.38987926 14.88097509 4.03967497 21.1875 1.9375 C24 1 24 1 28 1 C28 2.98 28 4.96 28 7 C18.43 7 8.86 7 -1 7 C-1 1 -1 1 0 0 Z " fill="#5D8393" transform="translate(80,60)"/>
<path d="M0 0 C2.97 0 5.94 0 9 0 C8.67 1.65 8.34 3.3 8 5 C5.125 5.625 5.125 5.625 2 6 C1.34 5.34 0.68 4.68 0 4 C0 2.68 0 1.36 0 0 Z " fill="#B66849" transform="translate(89,28)"/>
<path d="M0 0 C2 2 2 2 2.125 5.125 C2.08375 6.07375 2.0425 7.0225 2 8 C0.35 8.33 -1.3 8.66 -3 9 C-3 5.30581799 -1.71820705 3.22163822 0 0 Z " fill="#6A2811" transform="translate(52,116)"/>
</svg>
