<?xml version="1.0" encoding="UTF-8"?>
<svg version="1.1" xmlns="http://www.w3.org/2000/svg" width="512" height="512">
<path d="M0 0 C1.69022397 -0.00967334 1.69022397 -0.00967334 3.41459388 -0.0195421 C4.64249886 -0.01644489 5.87040385 -0.01334769 7.13551807 -0.01015663 C9.10392185 -0.0169533 9.10392185 -0.0169533 11.11209136 -0.02388728 C14.74863065 -0.03610901 18.38507789 -0.03585779 22.02163303 -0.03349853 C25.9461244 -0.03309014 29.87058634 -0.04413165 33.79506397 -0.05361366 C41.48220502 -0.07022076 49.16931539 -0.0757231 56.85647287 -0.07683842 C63.10671703 -0.07778915 69.35695108 -0.08190074 75.60719204 -0.08823967 C93.33471013 -0.10585231 111.06220402 -0.11507866 128.78973093 -0.11357872 C130.22302623 -0.11345885 130.22302623 -0.11345885 131.68527699 -0.11333656 C133.12032628 -0.11321392 133.12032628 -0.11321392 134.58436648 -0.1130888 C150.08332604 -0.11227619 165.58218836 -0.13140759 181.0811198 -0.1596133 C197.00211451 -0.18835798 212.92306182 -0.20215268 228.84408313 -0.20042574 C237.77973716 -0.19976233 246.71528928 -0.20523328 255.65091991 -0.22678185 C263.26028615 -0.24501464 270.86950428 -0.24932389 278.47888293 -0.235763 C282.35877659 -0.22924352 286.2383863 -0.22907884 290.11825275 -0.2464695 C293.67589191 -0.26225127 297.2330232 -0.2592853 300.79065035 -0.24190123 C302.67510931 -0.23740256 304.55958436 -0.25244873 306.44398135 -0.26838052 C319.128881 -0.16602491 328.74941438 3.89717414 338.26364613 12.25726891 C342.98582821 17.27732518 346.65825835 22.87345146 349.26364613 29.25726891 C349.62071644 30.12609703 349.97778675 30.99492516 350.34567738 31.89008141 C353.25705051 42.56924583 352.74830319 56.57028304 347.26364613 66.25726891 C339.85389052 78.48420197 329.91409005 86.1837784 316.26364613 90.25726891 C313.46643907 90.51026857 313.46643907 90.51026857 310.52729225 90.51453781 C308.83706828 90.52421115 308.83706828 90.52421115 307.11269838 90.53407991 C305.88479339 90.53098271 304.65688841 90.5278855 303.39177418 90.52469444 C302.07950499 90.52922556 300.76723581 90.53375667 299.41520089 90.53842509 C295.7786616 90.55064682 292.14221436 90.5503956 288.50565922 90.54803634 C284.58116785 90.54762795 280.65670591 90.55866946 276.73222828 90.56815147 C269.04508723 90.58475857 261.35797686 90.59026091 253.67081938 90.59137623 C247.42057522 90.59232697 241.17034117 90.59643855 234.92010021 90.60277748 C217.19258212 90.62039012 199.46508823 90.62961647 181.73756132 90.62811653 C180.78203112 90.62803662 179.82650093 90.62795671 178.84201527 90.62787437 C177.40696597 90.62775173 177.40696597 90.62775173 175.94292577 90.62762661 C160.44396621 90.626814 144.9451039 90.64594541 129.44617245 90.67415111 C113.52517774 90.7028958 97.60423043 90.71669049 81.68320912 90.71496356 C72.74755509 90.71430014 63.81200297 90.71977109 54.87637234 90.74131966 C47.2670061 90.75955245 39.65778797 90.7638617 32.04840932 90.75030081 C28.16851566 90.74378133 24.28890595 90.74361665 20.4090395 90.76100731 C16.85140035 90.77678908 13.29426905 90.77382311 9.73664191 90.75643905 C7.85218294 90.75194037 5.96770789 90.76698654 4.0833109 90.78291833 C-8.60158875 90.68056272 -18.22212213 86.61736367 -27.73635387 78.25726891 C-32.45853596 73.23721263 -36.1309661 67.64108635 -38.73635387 61.25726891 C-39.09342419 60.38844078 -39.4504945 59.51961266 -39.81838512 58.62445641 C-42.72975826 47.94529198 -42.22101094 33.94425477 -36.73635387 24.25726891 C-28.9144368 11.35022289 -15.8649856 0.0230446 0 0 Z " fill="#000000" transform="translate(160.73635387420654,360.74273109436035)"/>
<path d="M0 0 C1.69022397 -0.00967334 1.69022397 -0.00967334 3.41459388 -0.0195421 C4.64249886 -0.01644489 5.87040385 -0.01334769 7.13551807 -0.01015663 C9.10392185 -0.0169533 9.10392185 -0.0169533 11.11209136 -0.02388728 C14.74863065 -0.03610901 18.38507789 -0.03585779 22.02163303 -0.03349853 C25.9461244 -0.03309014 29.87058634 -0.04413165 33.79506397 -0.05361366 C41.48220502 -0.07022076 49.16931539 -0.0757231 56.85647287 -0.07683842 C63.10671703 -0.07778915 69.35695108 -0.08190074 75.60719204 -0.08823967 C93.33471013 -0.10585231 111.06220402 -0.11507866 128.78973093 -0.11357872 C130.22302623 -0.11345885 130.22302623 -0.11345885 131.68527699 -0.11333656 C133.12032628 -0.11321392 133.12032628 -0.11321392 134.58436648 -0.1130888 C150.08332604 -0.11227619 165.58218836 -0.13140759 181.0811198 -0.1596133 C197.00211451 -0.18835798 212.92306182 -0.20215268 228.84408313 -0.20042574 C237.77973716 -0.19976233 246.71528928 -0.20523328 255.65091991 -0.22678185 C263.26028615 -0.24501464 270.86950428 -0.24932389 278.47888293 -0.235763 C282.35877659 -0.22924352 286.2383863 -0.22907884 290.11825275 -0.2464695 C293.67589191 -0.26225127 297.2330232 -0.2592853 300.79065035 -0.24190123 C302.67510931 -0.23740256 304.55958436 -0.25244873 306.44398135 -0.26838052 C319.128881 -0.16602491 328.74941438 3.89717414 338.26364613 12.25726891 C342.98582821 17.27732518 346.65825835 22.87345146 349.26364613 29.25726891 C349.62071644 30.12609703 349.97778675 30.99492516 350.34567738 31.89008141 C353.25705051 42.56924583 352.74830319 56.57028304 347.26364613 66.25726891 C339.85389052 78.48420197 329.91409005 86.1837784 316.26364613 90.25726891 C313.46643907 90.51026857 313.46643907 90.51026857 310.52729225 90.51453781 C308.83706828 90.52421115 308.83706828 90.52421115 307.11269838 90.53407991 C305.88479339 90.53098271 304.65688841 90.5278855 303.39177418 90.52469444 C302.07950499 90.52922556 300.76723581 90.53375667 299.41520089 90.53842509 C295.7786616 90.55064682 292.14221436 90.5503956 288.50565922 90.54803634 C284.58116785 90.54762795 280.65670591 90.55866946 276.73222828 90.56815147 C269.04508723 90.58475857 261.35797686 90.59026091 253.67081938 90.59137623 C247.42057522 90.59232697 241.17034117 90.59643855 234.92010021 90.60277748 C217.19258212 90.62039012 199.46508823 90.62961647 181.73756132 90.62811653 C180.78203112 90.62803662 179.82650093 90.62795671 178.84201527 90.62787437 C177.40696597 90.62775173 177.40696597 90.62775173 175.94292577 90.62762661 C160.44396621 90.626814 144.9451039 90.64594541 129.44617245 90.67415111 C113.52517774 90.7028958 97.60423043 90.71669049 81.68320912 90.71496356 C72.74755509 90.71430014 63.81200297 90.71977109 54.87637234 90.74131966 C47.2670061 90.75955245 39.65778797 90.7638617 32.04840932 90.75030081 C28.16851566 90.74378133 24.28890595 90.74361665 20.4090395 90.76100731 C16.85140035 90.77678908 13.29426905 90.77382311 9.73664191 90.75643905 C7.85218294 90.75194037 5.96770789 90.76698654 4.0833109 90.78291833 C-8.60158875 90.68056272 -18.22212213 86.61736367 -27.73635387 78.25726891 C-32.45853596 73.23721263 -36.1309661 67.64108635 -38.73635387 61.25726891 C-39.09342419 60.38844078 -39.4504945 59.51961266 -39.81838512 58.62445641 C-42.72975826 47.94529198 -42.22101094 33.94425477 -36.73635387 24.25726891 C-28.9144368 11.35022289 -15.8649856 0.0230446 0 0 Z " fill="#000000" transform="translate(160.73635387420654,210.74273109436035)"/>
<path d="M0 0 C1.69022397 -0.00967334 1.69022397 -0.00967334 3.41459388 -0.0195421 C4.64249886 -0.01644489 5.87040385 -0.01334769 7.13551807 -0.01015663 C9.10392185 -0.0169533 9.10392185 -0.0169533 11.11209136 -0.02388728 C14.74863065 -0.03610901 18.38507789 -0.03585779 22.02163303 -0.03349853 C25.9461244 -0.03309014 29.87058634 -0.04413165 33.79506397 -0.05361366 C41.48220502 -0.07022076 49.16931539 -0.0757231 56.85647287 -0.07683842 C63.10671703 -0.07778915 69.35695108 -0.08190074 75.60719204 -0.08823967 C93.33471013 -0.10585231 111.06220402 -0.11507866 128.78973093 -0.11357872 C130.22302623 -0.11345885 130.22302623 -0.11345885 131.68527699 -0.11333656 C133.12032628 -0.11321392 133.12032628 -0.11321392 134.58436648 -0.1130888 C150.08332604 -0.11227619 165.58218836 -0.13140759 181.0811198 -0.1596133 C197.00211451 -0.18835798 212.92306182 -0.20215268 228.84408313 -0.20042574 C237.77973716 -0.19976233 246.71528928 -0.20523328 255.65091991 -0.22678185 C263.26028615 -0.24501464 270.86950428 -0.24932389 278.47888293 -0.235763 C282.35877659 -0.22924352 286.2383863 -0.22907884 290.11825275 -0.2464695 C293.67589191 -0.26225127 297.2330232 -0.2592853 300.79065035 -0.24190123 C302.67510931 -0.23740256 304.55958436 -0.25244873 306.44398135 -0.26838052 C319.128881 -0.16602491 328.74941438 3.89717414 338.26364613 12.25726891 C342.98582821 17.27732518 346.65825835 22.87345146 349.26364613 29.25726891 C349.62071644 30.12609703 349.97778675 30.99492516 350.34567738 31.89008141 C353.25705051 42.56924583 352.74830319 56.57028304 347.26364613 66.25726891 C339.85389052 78.48420197 329.91409005 86.1837784 316.26364613 90.25726891 C313.46643907 90.51026857 313.46643907 90.51026857 310.52729225 90.51453781 C308.83706828 90.52421115 308.83706828 90.52421115 307.11269838 90.53407991 C305.88479339 90.53098271 304.65688841 90.5278855 303.39177418 90.52469444 C302.07950499 90.52922556 300.76723581 90.53375667 299.41520089 90.53842509 C295.7786616 90.55064682 292.14221436 90.5503956 288.50565922 90.54803634 C284.58116785 90.54762795 280.65670591 90.55866946 276.73222828 90.56815147 C269.04508723 90.58475857 261.35797686 90.59026091 253.67081938 90.59137623 C247.42057522 90.59232697 241.17034117 90.59643855 234.92010021 90.60277748 C217.19258212 90.62039012 199.46508823 90.62961647 181.73756132 90.62811653 C180.78203112 90.62803662 179.82650093 90.62795671 178.84201527 90.62787437 C177.40696597 90.62775173 177.40696597 90.62775173 175.94292577 90.62762661 C160.44396621 90.626814 144.9451039 90.64594541 129.44617245 90.67415111 C113.52517774 90.7028958 97.60423043 90.71669049 81.68320912 90.71496356 C72.74755509 90.71430014 63.81200297 90.71977109 54.87637234 90.74131966 C47.2670061 90.75955245 39.65778797 90.7638617 32.04840932 90.75030081 C28.16851566 90.74378133 24.28890595 90.74361665 20.4090395 90.76100731 C16.85140035 90.77678908 13.29426905 90.77382311 9.73664191 90.75643905 C7.85218294 90.75194037 5.96770789 90.76698654 4.0833109 90.78291833 C-8.60158875 90.68056272 -18.22212213 86.61736367 -27.73635387 78.25726891 C-32.45853596 73.23721263 -36.1309661 67.64108635 -38.73635387 61.25726891 C-39.09342419 60.38844078 -39.4504945 59.51961266 -39.81838512 58.62445641 C-42.72975826 47.94529198 -42.22101094 33.94425477 -36.73635387 24.25726891 C-28.9144368 11.35022289 -15.8649856 0.0230446 0 0 Z " fill="#000000" transform="translate(160.73635387420654,60.74273109436035)"/>
<path d="M0 0 C10.13859394 6.1441821 17.49928386 13.97217893 22 25 C22.53560547 26.30324219 22.53560547 26.30324219 23.08203125 27.6328125 C25.99340438 38.31197692 25.48465707 52.31301414 20 62 C13.8558179 72.13859394 6.02782107 79.49928386 -5 84 C-6.30324219 84.53560547 -6.30324219 84.53560547 -7.6328125 85.08203125 C-18.31197692 87.99340438 -32.31301414 87.48465707 -42 82 C-52.13859394 75.8558179 -59.49928386 68.02782107 -64 57 C-64.35707031 56.13117188 -64.71414062 55.26234375 -65.08203125 54.3671875 C-67.99340438 43.68802308 -67.48465707 29.68698586 -62 20 C-55.8558179 9.86140606 -48.02782107 2.50071614 -37 -2 C-36.13117187 -2.35707031 -35.26234375 -2.71414063 -34.3671875 -3.08203125 C-23.68802308 -5.99340438 -9.68698586 -5.48465707 0 0 Z " fill="#000000" transform="translate(66,365)"/>
<path d="M0 0 C10.13859394 6.1441821 17.49928386 13.97217893 22 25 C22.53560547 26.30324219 22.53560547 26.30324219 23.08203125 27.6328125 C25.99340438 38.31197692 25.48465707 52.31301414 20 62 C13.8558179 72.13859394 6.02782107 79.49928386 -5 84 C-6.30324219 84.53560547 -6.30324219 84.53560547 -7.6328125 85.08203125 C-18.31197692 87.99340438 -32.31301414 87.48465707 -42 82 C-52.13859394 75.8558179 -59.49928386 68.02782107 -64 57 C-64.35707031 56.13117188 -64.71414062 55.26234375 -65.08203125 54.3671875 C-67.99340438 43.68802308 -67.48465707 29.68698586 -62 20 C-55.8558179 9.86140606 -48.02782107 2.50071614 -37 -2 C-36.13117187 -2.35707031 -35.26234375 -2.71414062 -34.3671875 -3.08203125 C-23.68802308 -5.99340438 -9.68698586 -5.48465707 0 0 Z " fill="#000000" transform="translate(66,215)"/>
<path d="M0 0 C10.13859394 6.1441821 17.49928386 13.97217893 22 25 C22.53560547 26.30324219 22.53560547 26.30324219 23.08203125 27.6328125 C25.99340438 38.31197692 25.48465707 52.31301414 20 62 C13.8558179 72.13859394 6.02782107 79.49928386 -5 84 C-6.30324219 84.53560547 -6.30324219 84.53560547 -7.6328125 85.08203125 C-18.31197692 87.99340438 -32.31301414 87.48465707 -42 82 C-52.13859394 75.8558179 -59.49928386 68.02782107 -64 57 C-64.35707031 56.13117188 -64.71414062 55.26234375 -65.08203125 54.3671875 C-67.99340438 43.68802308 -67.48465707 29.68698586 -62 20 C-55.8558179 9.86140606 -48.02782107 2.50071614 -37 -2 C-36.13117187 -2.35707031 -35.26234375 -2.71414062 -34.3671875 -3.08203125 C-23.68802308 -5.99340438 -9.68698586 -5.48465707 0 0 Z " fill="#000000" transform="translate(66,65)"/>
</svg>
